<svg width="158" height="158" viewBox="0 0 158 158" fill="none" xmlns="http://www.w3.org/2000/svg">
    <g clip-path="url(#clip0_2_2)" filter="url(#filter0_d_2_2)">
        <rect width="128" height="128" transform="translate(15 15)" fill="#0D1117"/>
        <path d="M133.766 110.82C134.656 109.277 135.207 107.54 135.207 105.977V51.78C135.207 50.222 134.657 48.483 133.766 46.94L78.446 78.88L133.766 110.82Z" fill="#0D1117"/>
        <path d="M83.36 141.586L130.293 114.492C131.645 113.711 132.875 112.363 133.766 110.82L78.446 78.88L23.12 110.82C24.01 112.363 25.241 113.71 26.593 114.492L73.526 141.586C76.229 143.148 80.656 143.148 83.358 141.586H83.36Z" fill="#0D1117"/>
        <path d="M133.766 46.941C132.875 45.395 131.645 44.047 130.293 43.27L83.359 16.172C80.656 14.609 76.23 14.609 73.527 16.172L26.594 43.27C23.89 44.828 21.68 48.66 21.68 51.78V105.976C21.68 107.538 22.23 109.276 23.121 110.819L78.445 78.88L133.766 46.941Z" fill="#0D1117"/>
        <path d="M78.445 41.035C57.578 41.035 40.602 58.012 40.602 78.879C40.602 99.746 57.578 116.723 78.445 116.723C91.91 116.723 104.469 109.476 111.215 97.813L94.84 88.335C91.46 94.175 85.18 97.8 78.445 97.8C68.012 97.8 59.523 89.312 59.523 78.878C59.523 68.444 68.013 59.956 78.445 59.956C85.175 59.956 91.462 63.585 94.835 69.421L111.215 59.944C104.465 48.28 91.91 41.035 78.445 41.035ZM107.88 72.57V76.777H103.673V80.98H107.88V85.187H112.083V80.98H116.286V76.777H112.083V72.57H107.88ZM123.646 72.57V76.777H119.442V80.98H123.646V85.187H127.853V80.98H132.056V76.777H127.853V72.57H123.646Z" fill="#7F5AF0"/>
    </g>
    <defs>
        <filter id="filter0_d_2_2" x="0" y="0" width="158" height="158" filterUnits="userSpaceOnUse" color-interpolation-filters="sRGB">
            <feFlood flood-opacity="0" result="BackgroundImageFix"/>
            <feColorMatrix in="SourceAlpha" type="matrix" values="0 0 0 0 0 0 0 0 0 0 0 0 0 0 0 0 0 0 127 0" result="hardAlpha"/>
            <feMorphology radius="5" operator="dilate" in="SourceAlpha" result="effect1_dropShadow_2_2"/>
            <feOffset/>
            <feGaussianBlur stdDeviation="5"/>
            <feComposite in2="hardAlpha" operator="out"/>
            <feColorMatrix type="matrix" values="0 0 0 0 0.498039 0 0 0 0 0.352941 0 0 0 0 0.941176 0 0 0 0.25 0"/>
            <feBlend mode="normal" in2="BackgroundImageFix" result="effect1_dropShadow_2_2"/>
            <feBlend mode="normal" in="SourceGraphic" in2="effect1_dropShadow_2_2" result="shape"/>
        </filter>
    </defs>
</svg>
