<svg xmlns="http://www.w3.org/2000/svg" width="320" height="320" viewBox="0 0 240 240" overflow="visible">
    <defs>
        <linearGradient id="gradient" x1="0%" y1="0%" x2="100%" y2="100%">
            <stop offset="0%" stop-color="#009BFF">
                <animate attributeName="stop-color" values="#009BFF;#FF3A76;#FFB200;#6A5CFF;#009BFF" dur="6s" repeatCount="indefinite" keyTimes="0;0.25;0.5;0.75;1" calcMode="linear"/>
            </stop>
            <stop offset="25%" stop-color="#FF3A76">
                <animate attributeName="stop-color" values="#FF3A76;#FFB200;#6A5CFF;#009BFF;#FF3A76" dur="6s" repeatCount="indefinite" keyTimes="0;0.25;0.5;0.75;1" calcMode="linear"/>
            </stop>
            <stop offset="50%" stop-color="#FFB200">
                <animate attributeName="stop-color" values="#FFB200;#6A5CFF;#009BFF;#FF3A76;#FFB200" dur="6s" repeatCount="indefinite" keyTimes="0;0.25;0.5;0.75;1" calcMode="linear"/>
            </stop>
            <stop offset="75%" stop-color="#6A5CFF">
                <animate attributeName="stop-color" values="#6A5CFF;#009BFF;#FF3A76;#FFB200;#6A5CFF" dur="6s" repeatCount="indefinite" keyTimes="0;0.25;0.5;0.75;1" calcMode="linear"/>
            </stop>
            <stop offset="100%" stop-color="#009BFF">
                <animate attributeName="stop-color" values="#009BFF;#FF3A76;#FFB200;#6A5CFF;#009BFF" dur="6s" repeatCount="indefinite" keyTimes="0;0.25;0.5;0.75;1" calcMode="linear"/>
            </stop>
        </linearGradient>

        <filter id="shadow3D" x="-60%" y="-60%" width="220%" height="220%">
            <feGaussianBlur in="SourceAlpha" stdDeviation="12" result="blur"/>
            <feOffset in="blur" dx="0" dy="0" result="offsetBlur"/>
            <feMerge>
                <feMergeNode in="offsetBlur"/>
                <feMergeNode in="SourceGraphic"/>
            </feMerge>
        </filter>

        <filter id="glow" x="-200%" y="-200%" width="400%" height="400%">
            <feGaussianBlur in="SourceGraphic" stdDeviation="6" result="blur1"/>
            <feGaussianBlur in="SourceGraphic" stdDeviation="12" result="blur2"/>
            <feGaussianBlur in="SourceGraphic" stdDeviation="18" result="blur3"/>
            <feMerge>
                <feMergeNode in="blur1"/>
                <feMergeNode in="blur2"/>
                <feMergeNode in="blur3"/>
                <feMergeNode in="SourceGraphic"/>
            </feMerge>
        </filter>

        <mask id="lightMask" maskUnits="userSpaceOnUse">
            <g filter="url(#maskFilter)">
                <svg width="154" height="154" x="43" y="43" viewBox="0 0 154 154" fill="none" xmlns="http://www.w3.org/2000/svg">
                    <g clip-path="url(#clip0_7_147)">
                        <g clip-path="url(#clip1_7_147)">
                            <path d="M117.567 60.5581V68.6635H125.672V60.5581H129.725V68.6635H137.83V72.7163H129.725V80.8211H137.83V84.8739H129.725V92.9793H125.672V84.8739H117.567V92.9793H113.514V84.8739H105.409V80.8211H113.514V72.7163H105.409V68.6635H113.514V60.5581H117.567ZM125.672 72.7163H117.567V80.8211H125.672V72.7163Z" fill="white"/>
                            <path d="M73.3912 19.8516C94.5319 19.8516 112.99 31.3332 122.876 48.3994L122.78 48.2351L97.9061 62.5571C93.0058 54.2596 84.0214 48.6599 73.7155 48.5446L73.3912 48.5428C57.6748 48.5428 44.9334 61.2836 44.9334 76.9994C44.9334 82.1391 46.3037 86.9571 48.6866 91.1181C53.5918 99.6813 62.8128 105.458 73.3912 105.458C84.0341 105.458 93.3078 99.6079 98.1882 90.9532L98.0697 91.1608L122.906 105.549C113.128 122.471 94.923 133.917 74.0277 134.145L73.3912 134.148C52.1831 134.148 33.6726 122.596 23.811 105.439C18.9968 97.0639 16.2422 87.3541 16.2422 76.9994C16.2422 45.4381 41.828 19.8516 73.3912 19.8516Z" fill="white"/>
                        </g>
                    </g>
                    <defs>
                        <clipPath id="clip0_7_147">
                            <rect width="154" height="154" fill="white"/>
                        </clipPath>
                        <clipPath id="clip1_7_147">
                            <rect width="154" height="154" fill="white"/>
                        </clipPath>
                    </defs>
                </svg>

            </g>
        </mask>

        <filter id="maskFilter">
            <feColorMatrix in="SourceGraphic" type="saturate" values="0" result="gray"/>
            <feColorMatrix in="gray" type="luminanceToAlpha" result="lum"/>
            <feComponentTransfer in="lum" result="maskLight">
                <feFuncA type="discrete" tableValues="0 1"/>
            </feComponentTransfer>
            <feFlood flood-color="white" result="fill"/>
            <feComposite in="fill" in2="maskLight" operator="in"/>
        </filter>
    </defs>

    <rect x="38" y="38" width="164" height="164" rx="40" ry="40" fill="rgba(0,0,0,1)" filter="url(#shadow3D)"/>

    <rect x="40" y="40" width="160" height="160" rx="40" ry="40" fill="#0D1117"/>

    <rect x="40" y="40" width="160" height="160" rx="40" ry="40" fill="url(#gradient)" mask="url(#lightMask)"/>

    <rect x="40" y="40" width="160" height="160" rx="40" ry="40" fill="transparent" stroke="url(#gradient)" stroke-width="6" filter="url(#glow)"/>
</svg>