<svg xmlns="http://www.w3.org/2000/svg" viewBox="0 0 384 384" overflow="visible"><defs><filter id="a" x="-60%" y="-60%" width="220%" height="220%"><feGaussianBlur in="SourceAlpha" stdDeviation="12" result="blur"/><feOffset in="blur" result="offsetBlur"/><feMerge><feMergeNode in="offsetBlur"/><feMergeNode in="SourceGraphic"/></feMerge></filter><filter id="d" x="-200%" y="-200%" width="400%" height="400%"><feGaussianBlur in="SourceGraphic" stdDeviation="6" result="blur1"/><feGaussianBlur in="SourceGraphic" stdDeviation="12" result="blur2"/><feGaussianBlur in="SourceGraphic" stdDeviation="18" result="blur3"/><feMerge><feMergeNode in="blur1"/><feMergeNode in="blur2"/><feMergeNode in="blur3"/><feMergeNode in="SourceGraphic"/></feMerge></filter><linearGradient id="b" x1="0%" y1="0%" x2="100%" y2="100%"><stop offset="0%" stop-color="#009BFF"><animate attributeName="stop-color" values="#009BFF;#FF3A76;#FFB200;#6A5CFF;#009BFF" dur="6s" repeatCount="indefinite" keyTimes="0;0.25;0.5;0.75;1" calcMode="linear"/></stop><stop offset="25%" stop-color="#FF3A76"><animate attributeName="stop-color" values="#FF3A76;#FFB200;#6A5CFF;#009BFF;#FF3A76" dur="6s" repeatCount="indefinite" keyTimes="0;0.25;0.5;0.75;1" calcMode="linear"/></stop><stop offset="50%" stop-color="#FFB200"><animate attributeName="stop-color" values="#FFB200;#6A5CFF;#009BFF;#FF3A76;#FFB200" dur="6s" repeatCount="indefinite" keyTimes="0;0.25;0.5;0.75;1" calcMode="linear"/></stop><stop offset="75%" stop-color="#6A5CFF"><animate attributeName="stop-color" values="#6A5CFF;#009BFF;#FF3A76;#FFB200;#6A5CFF" dur="6s" repeatCount="indefinite" keyTimes="0;0.25;0.5;0.75;1" calcMode="linear"/></stop><stop offset="100%" stop-color="#009BFF"><animate attributeName="stop-color" values="#009BFF;#FF3A76;#FFB200;#6A5CFF;#009BFF" dur="6s" repeatCount="indefinite" keyTimes="0;0.25;0.5;0.75;1" calcMode="linear"/></stop></linearGradient><mask id="c" maskUnits="userSpaceOnUse" x="64" y="64" width="256" height="256"><g fill="#fff"><path d="M265.62 163.004v14.59h14.59v-14.59h7.295v14.59h14.589v7.295h-14.589v14.589h14.589v7.295h-14.589v14.59h-7.295v-14.59h-14.59v14.59h-7.295v-14.59h-14.589v-7.297h14.59v-14.589h-14.59v-7.294h14.59v-14.59zm14.59 21.885h-14.59v14.589h14.59z"/><path d="M186.104 89.734c38.052 0 71.278 20.665 89.073 51.384l-.173-.295-44.773 25.78c-8.82-14.935-24.993-25.015-43.542-25.222l-.585-.004c-28.289 0-51.225 22.932-51.225 51.221a51 51 0 0 0 6.758 25.416c8.829 15.412 25.426 25.81 44.467 25.81 19.157 0 35.85-10.53 44.634-26.109l-.212.375 44.705 25.898c-17.6 30.46-50.37 51.063-87.98 51.473l-1.147.005c-38.175 0-71.493-20.793-89.244-51.676-8.665-15.075-13.624-32.553-13.624-51.192 0-56.808 46.054-102.864 102.87-102.864"/></g></mask></defs><rect x="64" y="64" width="256" height="256" rx="40" ry="40" fill="rgba(0,0,0,1)" filter="url(#a)"/><rect x="64" y="64" width="256" height="256" rx="40" ry="40" fill="#0D1117"/><rect x="64" y="64" width="256" height="256" rx="40" ry="40" fill="url(#b)" mask="url(#c)"/><rect x="64" y="64" width="256" height="256" rx="40" ry="40" fill="transparent" stroke="url(#b)" stroke-width="6" filter="url(#d)"/></svg>