<svg width="158" height="158" viewBox="0 0 158 158" fill="none" xmlns="http://www.w3.org/2000/svg">
    <g filter="url(#filter0_d_3_13)">
        <rect x="15" y="15" width="128" height="128" fill="#0D1117"/>
        <rect x="16" y="16" width="126" height="126" stroke="#C9D1D9" stroke-width="2"/>
        <path d="M130.4 45.7L82.1 17.9C81.3 17.4 80.2 17.2 79 17.2C77.8 17.2 76.7 17.5 75.9 17.9L27.9 45.8C26.2 46.8 25 49.3 25 51.2V106.9C25 108 25.2 109.3 26 110.4L132.8 48.4C132.2 47.2 131.3 46.3 130.4 45.7Z" fill="#0D1117"/>
        <path d="M25.7 110.3C26.2 111.1 26.9 111.8 27.6 112.2L75.8 140.1C76.6 140.6 77.7 140.8 78.9 140.8C80.1 140.8 81.2 140.5 82 140.1L130 112.2C131.7 111.2 132.9 108.7 132.9 106.8V51.1C132.9 50.2 132.8 49.2 132.3 48.3L25.7 110.3Z" fill="#0D1117"/>
        <path d="M100.3 91.1C96.1 98.5 88.1 103.5 79 103.5C65.5 103.5 54.5 92.5 54.5 79C54.5 65.5 65.5 54.5 79 54.5C88.1 54.5 96.1 59.5 100.3 67L113.3 59.5C106.5 47.6 93.7 39.5 79 39.5C57.2 39.5 39.5 57.2 39.5 79C39.5 100.8 57.2 118.5 79 118.5C93.6 118.5 106.4 110.5 113.2 98.7L100.3 91.1ZM112 81.2L112.9 76.9H108.7V72.2H113.8L115 66H119.9L118.7 72.1H122.5L123.7 66H128.5L127.3 72.1H129.7V76.8H126.4L125.5 81.1H129.7V85.8H124.6L123.4 91.8H118.5L119.7 85.8H115.9L114.7 91.8H109.9L111.1 85.8H108.7V81.1H112V81.2ZM116.8 81.2H120.6L121.5 76.9H117.7L116.8 81.2Z" fill="#7F5AF0"/>
    </g>
    <defs>
        <filter id="filter0_d_3_13" x="0" y="0" width="158" height="158" filterUnits="userSpaceOnUse" color-interpolation-filters="sRGB">
            <feFlood flood-opacity="0" result="BackgroundImageFix"/>
            <feColorMatrix in="SourceAlpha" type="matrix" values="0 0 0 0 0 0 0 0 0 0 0 0 0 0 0 0 0 0 127 0" result="hardAlpha"/>
            <feMorphology radius="5" operator="dilate" in="SourceAlpha" result="effect1_dropShadow_3_13"/>
            <feOffset/>
            <feGaussianBlur stdDeviation="5"/>
            <feComposite in2="hardAlpha" operator="out"/>
            <feColorMatrix type="matrix" values="0 0 0 0 0.498039 0 0 0 0 0.352941 0 0 0 0 0.941176 0 0 0 0.25 0"/>
            <feBlend mode="normal" in2="BackgroundImageFix" result="effect1_dropShadow_3_13"/>
            <feBlend mode="normal" in="SourceGraphic" in2="effect1_dropShadow_3_13" result="shape"/>
        </filter>
    </defs>
</svg>
