<svg xmlns="http://www.w3.org/2000/svg" width="320" height="320" viewBox="0 0 240 240" overflow="visible">
    <defs>
        <linearGradient id="gradient" x1="0%" y1="0%" x2="100%" y2="100%">
            <stop offset="0%" stop-color="#009BFF">
                <animate attributeName="stop-color" values="#009BFF;#FF3A76;#FFB200;#6A5CFF;#009BFF" dur="6s" repeatCount="indefinite" keyTimes="0;0.25;0.5;0.75;1" calcMode="linear"/>
            </stop>
            <stop offset="25%" stop-color="#FF3A76">
                <animate attributeName="stop-color" values="#FF3A76;#FFB200;#6A5CFF;#009BFF;#FF3A76" dur="6s" repeatCount="indefinite" keyTimes="0;0.25;0.5;0.75;1" calcMode="linear"/>
            </stop>
            <stop offset="50%" stop-color="#FFB200">
                <animate attributeName="stop-color" values="#FFB200;#6A5CFF;#009BFF;#FF3A76;#FFB200" dur="6s" repeatCount="indefinite" keyTimes="0;0.25;0.5;0.75;1" calcMode="linear"/>
            </stop>
            <stop offset="75%" stop-color="#6A5CFF">
                <animate attributeName="stop-color" values="#6A5CFF;#009BFF;#FF3A76;#FFB200;#6A5CFF" dur="6s" repeatCount="indefinite" keyTimes="0;0.25;0.5;0.75;1" calcMode="linear"/>
            </stop>
            <stop offset="100%" stop-color="#009BFF">
                <animate attributeName="stop-color" values="#009BFF;#FF3A76;#FFB200;#6A5CFF;#009BFF" dur="6s" repeatCount="indefinite" keyTimes="0;0.25;0.5;0.75;1" calcMode="linear"/>
            </stop>
        </linearGradient>

        <filter id="shadow3D" x="-60%" y="-60%" width="220%" height="220%">
            <feGaussianBlur in="SourceAlpha" stdDeviation="12" result="blur"/>
            <feOffset in="blur" dx="0" dy="0" result="offsetBlur"/>
            <feMerge>
                <feMergeNode in="offsetBlur"/>
                <feMergeNode in="SourceGraphic"/>
            </feMerge>
        </filter>

        <filter id="glow" x="-200%" y="-200%" width="400%" height="400%">
            <feGaussianBlur in="SourceGraphic" stdDeviation="6" result="blur1"/>
            <feGaussianBlur in="SourceGraphic" stdDeviation="12" result="blur2"/>
            <feGaussianBlur in="SourceGraphic" stdDeviation="18" result="blur3"/>
            <feMerge>
                <feMergeNode in="blur1"/>
                <feMergeNode in="blur2"/>
                <feMergeNode in="blur3"/>
                <feMergeNode in="SourceGraphic"/>
            </feMerge>
        </filter>

        <mask id="lightMask" maskUnits="userSpaceOnUse">
            <g filter="url(#maskFilter)">
                <svg width="154" height="154" x="43" y="43" viewBox="0 0 154 154" fill="none" xmlns="http://www.w3.org/2000/svg">
                    <g clip-path="url(#clip0_7_177)">
                        <g clip-path="url(#clip1_7_177)">
                            <path d="M84.9328 73.4646H97.3954V62.1889H84.9328V73.4646ZM70.0971 73.4646H82.559V62.1889H70.0971V73.4646ZM55.5575 73.4646H68.0199V62.1889H55.5575V73.4646ZM41.0181 73.4646H53.1837V62.1889H41.0181V73.4646ZM26.182 73.4646H38.6443V62.1889H26.182V73.4646ZM41.0181 59.8153H53.1837V48.5398H41.0181V59.8153ZM55.5575 59.8153H68.0199V48.5398H55.5575V59.8153ZM70.0971 59.8153H82.559V48.5398H70.0971V59.8153ZM70.0971 46.1661H82.559V34.8906H70.0971V46.1661ZM137.156 68.4205C137.156 68.4205 131.815 63.3758 120.836 65.1564C119.65 56.5514 110.451 51.5071 110.451 51.5071C110.451 51.5071 101.846 61.8924 108.077 73.4646C106.297 74.3549 103.33 75.5418 98.8788 75.5418H17.2803C15.7967 81.1797 15.7967 118.566 56.7444 118.566C86.1197 118.566 108.077 104.917 118.463 79.9922C133.892 81.1797 137.156 68.4205 137.156 68.4205Z" fill="white"/>
                        </g>
                    </g>
                    <defs>
                        <clipPath id="clip0_7_177">
                            <rect width="154" height="154" fill="white"/>
                        </clipPath>
                        <clipPath id="clip1_7_177">
                            <rect width="154" height="154" fill="white"/>
                        </clipPath>
                    </defs>
                </svg>

            </g>
        </mask>

        <filter id="maskFilter">
            <feColorMatrix in="SourceGraphic" type="saturate" values="0" result="gray"/>
            <feColorMatrix in="gray" type="luminanceToAlpha" result="lum"/>
            <feComponentTransfer in="lum" result="maskLight">
                <feFuncA type="discrete" tableValues="0 1"/>
            </feComponentTransfer>
            <feFlood flood-color="white" result="fill"/>
            <feComposite in="fill" in2="maskLight" operator="in"/>
        </filter>
    </defs>

    <rect x="38" y="38" width="164" height="164" rx="40" ry="40" fill="rgba(0,0,0,1)" filter="url(#shadow3D)"/>

    <rect x="40" y="40" width="160" height="160" rx="40" ry="40" fill="#0D1117"/>

    <rect x="40" y="40" width="160" height="160" rx="40" ry="40" fill="url(#gradient)" mask="url(#lightMask)"/>

    <rect x="40" y="40" width="160" height="160" rx="40" ry="40" fill="transparent" stroke="url(#gradient)" stroke-width="6" filter="url(#glow)"/>
</svg>