<svg width="158" height="158" viewBox="0 0 158 158" fill="none" xmlns="http://www.w3.org/2000/svg">
    <g filter="url(#filter0_d_4_145)">
        <rect x="15" y="15" width="128" height="128" fill="#0D1117"/>
        <rect x="16" y="16" width="126" height="126" stroke="#C9D1D9" stroke-width="2"/>
        <path fill-rule="evenodd" clip-rule="evenodd" d="M38.4921 110.02V102.371C38.4921 101.332 39.1365 100.577 40.1492 100.577H40.4254C41.4381 100.577 42.0825 101.427 42.0825 102.371V118.424C42.0825 122.296 40.2413 125.412 36.927 127.395C35.3619 128.339 33.7048 128.811 31.9556 128.811H31.219C27.4444 128.811 24.4063 126.923 22.473 123.523C21.5524 121.918 21.0921 120.218 21.0921 118.424V117.669C21.0921 113.797 22.9333 110.681 26.2476 108.698C27.8127 107.754 29.4698 107.281 31.219 107.281H31.9556C34.4413 107.376 36.6508 108.32 38.4921 110.02ZM24.5905 118.046C24.5905 120.879 25.9714 122.957 28.3651 124.373C29.3778 124.94 30.3905 125.223 31.4952 125.223C34.1651 125.223 36.1905 123.901 37.5714 121.54C38.2159 120.407 38.4921 119.274 38.4921 117.952C38.4921 115.497 37.3873 113.608 35.454 112.192C34.2571 111.342 32.9683 110.87 31.5873 110.87C28.6413 110.87 26.5238 112.381 25.2349 115.119C24.7746 116.063 24.5905 117.102 24.5905 118.046ZM54.2349 107.376H54.6952C58.746 107.376 61.8762 109.359 63.8095 113.042C64.6381 114.458 65.0064 116.063 65.0064 117.763V118.518C65.0064 122.39 63.1651 125.506 59.8508 127.489C58.2857 128.433 56.6286 128.906 54.8794 128.906H54.1429C50.3683 128.906 47.3302 127.017 45.3968 123.618C44.4762 122.012 44.0159 120.313 44.0159 118.518V117.763C44.0159 113.891 45.9492 110.775 49.1714 108.792C50.7365 107.754 52.4857 107.376 54.2349 107.376ZM47.6063 118.046C47.6063 120.785 48.8952 122.768 51.1968 124.184C52.3016 124.845 53.4064 125.128 54.6952 125.128C57.3651 125.128 59.2984 123.712 60.6794 121.446C61.3238 120.313 61.6 119.179 61.6 117.857C61.6 115.308 60.4032 113.325 58.3778 111.908C57.273 111.153 55.9841 110.775 54.6952 110.775C51.7492 110.775 49.6317 112.286 48.3429 115.025C47.7905 116.063 47.6063 117.102 47.6063 118.046ZM79.6444 111.247C79.0921 110.964 78.0794 110.87 77.527 110.87C74.581 110.775 72.4635 112.475 71.1746 115.119C70.7143 116.063 70.5302 117.008 70.5302 118.046C70.5302 121.162 72.0952 123.334 74.7651 124.656C75.7778 125.128 76.9746 125.223 78.0794 125.223C79 125.223 80.381 124.656 81.2095 124.184L81.3937 124.09H82.1302C82.9587 124.279 83.5111 124.751 83.5111 125.695V126.073C83.5111 128.245 79.5524 128.811 78.0794 128.906C72.8317 129.283 68.873 126.356 67.4 121.162C67.1238 120.313 67.0317 119.368 67.0317 118.424V117.669C67.0317 113.797 68.9651 110.681 72.1873 108.698C73.7524 107.754 75.4095 107.281 77.1587 107.281H77.8952C79.7365 107.281 81.4857 107.848 83.0508 108.887L83.1429 108.981L83.2349 109.076C83.419 109.359 83.5111 109.642 83.5111 110.02V110.398C83.5111 111.342 82.8667 111.814 82.0381 112.003H81.7619C81.3016 112.003 80.1048 111.436 79.6444 111.247ZM91.0603 113.703C92.4413 112.286 93.8222 110.87 95.2032 109.548C95.5714 109.17 97.0444 107.565 97.5968 107.565H98.3333C99.1619 107.754 99.7143 108.226 99.7143 109.17V109.548C99.7143 110.114 99.0698 110.87 98.6095 111.247L96.1238 113.797L91.8889 118.235C93.7302 120.124 95.5714 122.012 97.3206 123.901L98.7937 125.506C98.9778 125.695 99.254 125.884 99.346 126.167C99.5302 126.45 99.6222 126.734 99.6222 127.017V127.489C99.4381 128.339 98.8857 129 98.0571 129H97.781C97.2286 129 96.5841 128.339 96.1238 127.961C95.2952 127.206 94.4667 126.356 93.7302 125.506L91.0603 122.768V127.111C91.0603 128.15 90.4159 128.906 89.4032 128.906H89.127C88.1143 128.906 87.4698 128.056 87.4698 127.111V102.466C87.4698 101.427 88.1143 100.671 89.127 100.671H89.4032C90.4159 100.671 91.0603 101.427 91.0603 102.466V113.703ZM134.883 107.47H135.251C136.263 107.47 137 108.226 137 109.264C137 110.775 135.619 111.153 134.422 111.153C132.857 111.153 131.292 112.097 130.279 113.23C128.898 114.647 128.346 116.347 128.346 118.33V127.017C128.346 128.056 127.702 128.811 126.689 128.811H126.413C125.4 128.811 124.756 127.961 124.756 127.017V117.763C124.756 114.175 126.413 111.342 129.267 109.264C130.924 108.131 132.857 107.47 134.883 107.47ZM109.933 124.751C111.222 125.223 112.695 125.128 113.984 124.94C114.629 124.656 116.378 123.901 117.022 123.995H117.206C117.575 124.184 117.943 124.467 118.127 124.845C118.587 125.789 118.403 126.734 117.483 127.3L117.206 127.489C113.892 129.472 110.302 129.189 106.987 127.3C105.422 126.45 104.225 125.128 103.305 123.523L103.121 123.145C101.003 119.368 101.279 115.308 103.673 111.72C104.502 110.492 105.606 109.548 106.895 108.792L107.356 108.509C110.486 106.62 113.892 106.809 117.114 108.415C118.863 109.264 120.244 110.586 121.257 112.286L121.441 112.569C122.178 113.797 121.257 114.93 120.337 115.686C119.232 116.535 118.127 117.574 117.114 118.518C114.629 120.596 112.235 122.673 109.933 124.751ZM106.895 122.579L114.721 115.686C115.641 114.93 116.562 114.08 117.483 113.23C116.746 112.286 115.549 111.625 114.629 111.247C112.603 110.492 110.578 110.681 108.737 111.814C106.343 113.23 105.238 115.591 105.33 118.424C105.33 119.557 105.698 120.596 106.251 121.635C106.435 122.012 106.619 122.296 106.895 122.579ZM87.9302 50.3409H98.3333V61.2002H103.581C105.975 61.2002 108.46 60.728 110.762 59.9726C111.867 59.5949 113.156 59.0283 114.26 58.3673C112.787 56.3843 112.051 53.9292 111.867 51.474C111.59 48.169 112.235 43.8253 114.444 41.2757L115.549 39.9537L116.838 40.9924C120.152 43.7309 122.822 47.4136 123.375 51.7573C127.333 50.5297 131.937 50.813 135.435 52.8905L136.816 53.7403L136.079 55.2512C133.133 61.1058 126.965 62.9943 120.981 62.6166C111.959 85.5628 92.4413 96.4221 68.6889 96.4221C56.4444 96.4221 45.2127 91.7007 38.7683 80.5581L38.6762 80.3692L37.7556 78.3862C35.546 73.4759 34.9016 68.0935 35.3619 62.711L35.546 61.1058H44.3841V50.3409H54.7873V39.6704H75.5016V29H87.9302V50.3409Z" fill="#C9D1D9"/>
        <path d="M121.533 54.3069C122.27 48.7356 118.219 44.3919 115.641 42.3144C112.787 45.7139 112.327 54.779 116.838 58.5562C114.26 60.8225 109.013 62.9943 103.489 62.9943H37.019C36.4667 68.8489 37.4794 74.2313 39.781 78.8584L40.5175 80.2748C40.9778 81.1246 41.5302 81.8801 42.0825 82.7299C44.8444 82.9188 47.3302 83.0132 49.6317 82.9188C54.1429 82.8244 57.8254 82.2578 60.6794 81.3135C61.1397 81.1246 61.5079 81.4079 61.6921 81.7856C61.8762 82.2578 61.6 82.6355 61.2317 82.8244C60.8635 82.9188 60.4952 83.1076 60.0349 83.2021C57.8254 83.8631 55.4317 84.2408 52.3936 84.4297H51.8413C50.6444 84.5241 49.3556 84.5241 47.9746 84.5241C46.5016 84.5241 45.1206 84.5241 43.4635 84.4297C48.9873 90.8508 57.6413 94.6279 68.5048 94.6279C91.5206 94.6279 111.038 84.1464 119.6 60.728C125.768 61.389 131.66 59.7838 134.33 54.4013C130.187 51.9462 124.663 52.7016 121.533 54.3069Z" fill="#6746CA"/>
        <path d="M121.533 54.3069C122.27 48.7356 118.219 44.3919 115.641 42.3144C112.787 45.7139 112.327 54.779 116.838 58.5562C114.26 60.8225 109.013 62.9943 103.489 62.9943H40.8857C40.6095 71.9651 43.8317 78.7639 49.6317 82.8244C54.1429 82.7299 57.8254 82.1634 60.6794 81.2191C61.1397 81.0302 61.5079 81.3135 61.6921 81.6912C61.8762 82.1634 61.6 82.5411 61.2317 82.7299C60.8635 82.8244 60.4952 83.0132 60.0349 83.1076C57.8254 83.7686 55.2476 84.2408 52.2095 84.4297L52.1175 84.3352C59.9429 88.4901 71.2667 88.3957 84.3397 83.2965C98.8857 77.5364 112.511 66.5826 121.994 54.118C121.81 54.2125 121.717 54.3069 121.533 54.3069Z" fill="#7F5AF0"/>
        <path d="M37.1111 70.0765C37.4794 73.1926 38.4 76.1199 39.781 78.8584L40.5175 80.2748C40.9778 81.1246 41.5302 81.8801 42.0825 82.7299C44.8444 82.9188 47.3302 83.0132 49.6317 82.9188C54.1429 82.8244 57.8254 82.2578 60.6794 81.3135C61.1397 81.1246 61.5079 81.4079 61.6921 81.7856C61.8762 82.2578 61.6 82.6355 61.2317 82.8244C60.8635 82.9188 60.4952 83.1077 60.0349 83.2021C57.8254 83.8631 55.2476 84.3352 52.2095 84.5241H51.8413C50.6444 84.6185 49.3556 84.6185 48.0667 84.6185C46.5937 84.6185 45.1206 84.6185 43.5556 84.5241C49.0794 90.9452 57.8254 94.7224 68.6889 94.7224C88.3905 94.7224 105.514 87.0737 115.457 70.1709H37.1111V70.0765Z" fill="#6746CA"/>
        <path d="M41.5302 70.0765C42.727 75.5534 45.4889 79.8971 49.6317 82.8244C54.1429 82.7299 57.8254 82.1634 60.6794 81.2191C61.1397 81.0302 61.5079 81.3135 61.6921 81.6912C61.8762 82.1634 61.6 82.5411 61.2317 82.7299C60.8635 82.8244 60.4952 83.0132 60.0349 83.1077C57.8254 83.7687 55.2476 84.2408 52.1175 84.4297C59.9429 88.5845 71.2667 88.4901 84.2476 83.3909C92.073 80.2748 99.7143 75.6478 106.527 70.0765H41.5302Z" fill="#714CE0"/>
        <path fill-rule="evenodd" clip-rule="evenodd" d="M46.0413 52.0406H55.0635V61.2946H46.0413V52.0406ZM46.7778 52.8905H47.5143V60.5392H46.7778V52.8905ZM48.1587 52.8905H48.8952V60.5392H48.1587V52.8905ZM49.5397 52.8905H50.2762V60.5392H49.5397V52.8905ZM50.8286 52.8905H51.5651V60.5392H50.8286V52.8905ZM52.2095 52.8905H52.946V60.5392H52.2095V52.8905ZM53.5905 52.8905H54.327V60.5392H53.5905V52.8905ZM56.4444 41.4646H65.4667V50.6242H56.4444V41.4646ZM57.181 42.22H57.9175V49.8687H57.181V42.22ZM58.5619 42.22H59.2984V49.8687H58.5619V42.22ZM59.8508 42.22H60.5873V49.8687H59.8508V42.22ZM61.2317 42.22H61.9683V49.8687H61.2317V42.22ZM62.6127 42.22H63.3492V49.8687H62.6127V42.22ZM63.9937 42.22H64.7302V49.8687H63.9937V42.22Z" fill="#7F5AF0"/>
        <path fill-rule="evenodd" clip-rule="evenodd" d="M56.4444 52.0406H65.4667V61.2946H56.4444V52.0406ZM57.1809 52.8905H57.9175V60.5392H57.1809V52.8905ZM58.5619 52.8905H59.2984V60.5392H58.5619V52.8905ZM59.8508 52.8905H60.5873V60.5392H59.8508V52.8905ZM61.2317 52.8905H61.9683V60.5392H61.2317V52.8905ZM62.6127 52.8905H63.3492V60.5392H62.6127V52.8905ZM63.9936 52.8905H64.7302V60.5392H63.9936V52.8905Z" fill="#7F5AF0"/>
        <path fill-rule="evenodd" clip-rule="evenodd" d="M66.8476 52.0406H75.8698V61.2946H66.8476V52.0406ZM67.5841 52.8905H68.3206V60.5392H67.5841V52.8905ZM68.873 52.8905H69.6095V60.5392H68.873V52.8905ZM70.254 52.8905H70.9905V60.5392H70.254V52.8905ZM71.6349 52.8905H72.3714V60.5392H71.6349V52.8905ZM73.0159 52.8905H73.7524V60.5392H73.0159V52.8905ZM74.3048 52.8905H75.0413V60.5392H74.3048V52.8905Z" fill="#7F5AF0"/>
        <path fill-rule="evenodd" clip-rule="evenodd" d="M66.8476 41.4646H75.8698V50.6242H66.8476V41.4646ZM67.5841 42.22H68.3206V49.8687H67.5841V42.22ZM68.873 42.22H69.6095V49.8687H68.873V42.22ZM70.254 42.22H70.9905V49.8687H70.254V42.22ZM71.6349 42.22H72.3714V49.8687H71.6349V42.22ZM73.0159 42.22H73.7524V49.8687H73.0159V42.22ZM74.3048 42.22H75.0413V49.8687H74.3048V42.22ZM77.1587 52.0406H86.181V61.2946H77.1587V52.0406ZM77.9873 52.8905H78.7238V60.5392H77.9873V52.8905ZM79.2762 52.8905H80.0127V60.5392H79.2762V52.8905ZM80.6571 52.8905H81.3937V60.5392H80.6571V52.8905ZM82.0381 52.8905H82.7746V60.5392H82.0381V52.8905ZM83.327 52.8905H84.0635V60.5392H83.327V52.8905ZM84.7079 52.8905H85.4444V60.5392H84.7079V52.8905Z" fill="#7F5AF0"/>
        <path fill-rule="evenodd" clip-rule="evenodd" d="M77.1587 41.4646H86.181V50.6242H77.1587V41.4646ZM77.9873 42.22H78.7238V49.8687H77.9873V42.22ZM79.2762 42.22H80.0127V49.8687H79.2762V42.22ZM80.6571 42.22H81.3936V49.8687H80.6571V42.22ZM82.0381 42.22H82.7746V49.8687H82.0381V42.22ZM83.327 42.22H84.0635V49.8687H83.327V42.22ZM84.7079 42.22H85.4444V49.8687H84.7079V42.22Z" fill="#7F5AF0"/>
        <path fill-rule="evenodd" clip-rule="evenodd" d="M77.1587 30.7941H86.181V40.0482H77.1587V30.7941ZM77.9873 31.5496H78.7238V39.2927H77.9873V31.5496ZM79.2762 31.5496H80.0127V39.2927H79.2762V31.5496ZM80.6571 31.5496H81.3936V39.2927H80.6571V31.5496ZM82.0381 31.5496H82.7746V39.2927H82.0381V31.5496ZM83.327 31.5496H84.0635V39.2927H83.327V31.5496ZM84.7079 31.5496H85.4444V39.2927H84.7079V31.5496Z" fill="#7F5AF0"/>
        <path fill-rule="evenodd" clip-rule="evenodd" d="M87.5619 52.0406H96.5841V61.2946H87.5619V52.0406ZM88.2984 52.8905H89.0349V60.5392H88.2984V52.8905ZM89.6794 52.8905H90.4159V60.5392H89.6794V52.8905ZM91.0603 52.8905H91.7968V60.5392H91.0603V52.8905ZM92.3492 52.8905H93.0857V60.5392H92.3492V52.8905ZM93.7302 52.8905H94.4667V60.5392H93.7302V52.8905ZM95.1111 52.8905H95.8476V60.5392H95.1111V52.8905Z" fill="#7F5AF0"/>
        <path fill-rule="evenodd" clip-rule="evenodd" d="M64.8222 76.3088C66.2032 76.3088 67.3079 77.4419 67.3079 78.8584C67.3079 80.2748 66.2032 81.4079 64.8222 81.4079C63.4413 81.4079 62.3365 80.2748 62.3365 78.8584C62.4286 77.4419 63.5333 76.3088 64.8222 76.3088Z" fill="#C9D1D9"/>
        <path fill-rule="evenodd" clip-rule="evenodd" d="M64.8222 76.9698C65.0063 76.9698 65.2825 76.9698 65.4667 77.0642C65.2825 77.1586 65.0984 77.4419 65.0984 77.7252C65.0984 78.1029 65.4667 78.4806 65.8349 78.4806C66.1111 78.4806 66.3873 78.2918 66.4794 78.1029C66.5714 78.2918 66.5714 78.5751 66.5714 78.7639C66.5714 79.8026 65.7429 80.5581 64.8222 80.5581C63.8095 80.5581 63.073 79.7082 63.073 78.7639C63.073 77.8196 63.9016 76.9698 64.8222 76.9698ZM21 71.0208H136.356C133.87 70.3598 128.438 69.5099 129.267 66.1105C124.663 71.4929 113.708 69.8876 110.854 67.2436C107.724 71.8706 89.6794 70.0765 88.4825 66.4882C84.6159 71.2096 72.5556 71.2096 68.6889 66.4882C67.4 70.0765 49.3556 71.8706 46.3175 67.2436C43.5556 69.8876 32.5079 71.4929 27.9048 66.1105C28.9175 69.4155 23.4857 70.3598 21 71.0208Z" fill="#C9D1D9"/>
        <path d="M71.4508 94.6279C65.2825 91.6062 61.9683 87.5458 60.0349 83.1077C57.7333 83.7687 54.9714 84.2408 51.8413 84.4297C50.6444 84.5241 49.3556 84.5241 48.0667 84.5241C46.5016 84.5241 44.9365 84.5241 43.2794 84.4297C48.8952 90.1898 55.8921 94.6279 68.6889 94.7224C69.6095 94.6279 70.5302 94.6279 71.4508 94.6279Z" fill="#C9D1D9"/>
        <path d="M62.3365 87.1681C61.5079 85.9405 60.6794 84.5241 60.0349 83.1077C57.7333 83.7687 54.9714 84.2408 51.8413 84.4297C54.0508 85.6572 57.181 86.7904 62.3365 87.1681Z" fill="#C9D1D9"/>
    </g>
    <defs>
        <filter id="filter0_d_4_145" x="0" y="0" width="158" height="158" filterUnits="userSpaceOnUse" color-interpolation-filters="sRGB">
            <feFlood flood-opacity="0" result="BackgroundImageFix"/>
            <feColorMatrix in="SourceAlpha" type="matrix" values="0 0 0 0 0 0 0 0 0 0 0 0 0 0 0 0 0 0 127 0" result="hardAlpha"/>
            <feMorphology radius="5" operator="dilate" in="SourceAlpha" result="effect1_dropShadow_4_145"/>
            <feOffset/>
            <feGaussianBlur stdDeviation="5"/>
            <feComposite in2="hardAlpha" operator="out"/>
            <feColorMatrix type="matrix" values="0 0 0 0 0.498039 0 0 0 0 0.352941 0 0 0 0 0.941176 0 0 0 0.25 0"/>
            <feBlend mode="normal" in2="BackgroundImageFix" result="effect1_dropShadow_4_145"/>
            <feBlend mode="normal" in="SourceGraphic" in2="effect1_dropShadow_4_145" result="shape"/>
        </filter>
    </defs>
</svg>
