<svg xmlns="http://www.w3.org/2000/svg" width="320" height="320" viewBox="0 0 240 240" overflow="visible">
    <defs>
        <linearGradient id="gradient" x1="0%" y1="0%" x2="100%" y2="100%">
            <stop offset="0%" stop-color="#009BFF">
                <animate attributeName="stop-color" values="#009BFF;#FF3A76;#FFB200;#6A5CFF;#009BFF" dur="6s" repeatCount="indefinite" keyTimes="0;0.25;0.5;0.75;1" calcMode="linear"/>
            </stop>
            <stop offset="25%" stop-color="#FF3A76">
                <animate attributeName="stop-color" values="#FF3A76;#FFB200;#6A5CFF;#009BFF;#FF3A76" dur="6s" repeatCount="indefinite" keyTimes="0;0.25;0.5;0.75;1" calcMode="linear"/>
            </stop>
            <stop offset="50%" stop-color="#FFB200">
                <animate attributeName="stop-color" values="#FFB200;#6A5CFF;#009BFF;#FF3A76;#FFB200" dur="6s" repeatCount="indefinite" keyTimes="0;0.25;0.5;0.75;1" calcMode="linear"/>
            </stop>
            <stop offset="75%" stop-color="#6A5CFF">
                <animate attributeName="stop-color" values="#6A5CFF;#009BFF;#FF3A76;#FFB200;#6A5CFF" dur="6s" repeatCount="indefinite" keyTimes="0;0.25;0.5;0.75;1" calcMode="linear"/>
            </stop>
            <stop offset="100%" stop-color="#009BFF">
                <animate attributeName="stop-color" values="#009BFF;#FF3A76;#FFB200;#6A5CFF;#009BFF" dur="6s" repeatCount="indefinite" keyTimes="0;0.25;0.5;0.75;1" calcMode="linear"/>
            </stop>
        </linearGradient>

        <filter id="shadow3D" x="-60%" y="-60%" width="220%" height="220%">
            <feGaussianBlur in="SourceAlpha" stdDeviation="12" result="blur"/>
            <feOffset in="blur" dx="0" dy="0" result="offsetBlur"/>
            <feMerge>
                <feMergeNode in="offsetBlur"/>
                <feMergeNode in="SourceGraphic"/>
            </feMerge>
        </filter>

        <filter id="glow" x="-200%" y="-200%" width="400%" height="400%">
            <feGaussianBlur in="SourceGraphic" stdDeviation="6" result="blur1"/>
            <feGaussianBlur in="SourceGraphic" stdDeviation="12" result="blur2"/>
            <feGaussianBlur in="SourceGraphic" stdDeviation="18" result="blur3"/>
            <feMerge>
                <feMergeNode in="blur1"/>
                <feMergeNode in="blur2"/>
                <feMergeNode in="blur3"/>
                <feMergeNode in="SourceGraphic"/>
            </feMerge>
        </filter>

        <mask id="lightMask" maskUnits="userSpaceOnUse">
            <g filter="url(#maskFilter)">
                <svg width="154" height="154" x="43" y="43" viewBox="0 0 154 154" fill="none" xmlns="http://www.w3.org/2000/svg">
                    <g clip-path="url(#clip0_7_183)">
                        <g clip-path="url(#clip1_7_183)">
                            <mask id="mask0_7_183" style="mask-type:luminance" maskUnits="userSpaceOnUse" x="16" y="16" width="122" height="122">
                                <path d="M137.156 16.8438H16.8438V137.156H137.156V16.8438Z" fill="white"/>
                            </mask>
                            <g mask="url(#mask0_7_183)">
                                <path d="M134.885 71.6425L82.3575 19.1146C81.6387 18.395 80.7844 17.8242 79.8448 17.4347C78.9046 17.0452 77.8969 16.8448 76.8797 16.8448C75.8624 16.8448 74.8548 17.0452 73.9146 17.4347C72.9749 17.8242 72.1207 18.395 71.4019 19.1146L60.4985 30.018L74.3345 43.8539C77.5528 42.726 81.2374 43.4967 83.8013 46.0609C85.0218 47.2837 85.8742 48.8251 86.2605 50.5091C86.6467 52.1931 86.5516 53.9519 85.9855 55.5844L99.3216 68.9204C102.548 67.8075 106.27 68.5252 108.845 71.1083C109.702 71.9649 110.381 72.9816 110.844 74.1005C111.307 75.2194 111.545 76.4183 111.545 77.6292C111.545 78.8402 111.307 80.0391 110.843 81.158C110.379 82.2763 109.7 83.2929 108.843 84.149C107.987 85.0056 106.97 85.6842 105.852 86.1474C104.733 86.6112 103.534 86.8494 102.323 86.8488C101.112 86.8488 99.9123 86.61 98.794 86.1468C97.6751 85.683 96.6585 85.0038 95.8024 84.1472C93.0954 81.4401 92.4265 77.4548 93.795 74.1197L81.3577 61.6824V94.4116C82.2607 94.858 83.0854 95.4475 83.8013 96.1562C84.6573 97.0122 85.3365 98.0282 85.8003 99.1471C86.2635 100.265 86.5017 101.464 86.5017 102.675C86.5017 103.886 86.2635 105.085 85.8003 106.203C85.3365 107.322 84.6573 108.339 83.8013 109.195C82.9452 110.051 81.9286 110.73 80.8103 111.193C79.6914 111.657 78.4925 111.895 77.2821 111.895C76.0712 111.895 74.8723 111.657 73.754 111.193C72.6351 110.73 71.6184 110.051 70.7624 109.195C69.9052 108.339 69.2254 107.323 68.7616 106.205C68.2972 105.086 68.0584 103.886 68.0584 102.675C68.0584 101.464 68.2972 100.265 68.7616 99.1465C69.2254 98.0276 69.9052 97.0116 70.7624 96.1562C71.6533 95.2689 72.6423 94.5957 73.7816 94.1445V61.1109C72.6838 60.6598 71.6533 59.9945 70.7624 59.0997C69.4678 57.8067 68.5878 56.1574 68.234 54.3622C67.8809 52.567 68.0698 50.7071 68.7772 49.0198L55.1294 35.3794L19.1109 71.3604C18.3907 72.0798 17.8194 72.934 17.4296 73.8743C17.0398 74.8145 16.8392 75.8221 16.8392 76.84C16.8392 77.8578 17.0398 78.866 17.4296 79.8063C17.8194 80.7465 18.3907 81.6007 19.1109 82.3202L71.6425 134.844C72.3614 135.563 73.2156 136.134 74.1552 136.524C75.0955 136.913 76.1031 137.114 77.1203 137.114C78.1376 137.114 79.1452 136.913 80.0854 136.524C81.0251 136.134 81.8793 135.563 82.5981 134.844L134.885 82.6396C135.605 81.9202 136.177 81.066 136.567 80.1257C136.957 79.1855 137.157 78.1779 137.157 77.16C137.157 76.1422 136.957 75.134 136.567 74.1937C136.177 73.2535 135.605 72.3992 134.885 71.6798" fill="white"/>
                            </g>
                        </g>
                    </g>
                    <defs>
                        <clipPath id="clip0_7_183">
                            <rect width="154" height="154" fill="white"/>
                        </clipPath>
                        <clipPath id="clip1_7_183">
                            <rect width="154" height="154" fill="white"/>
                        </clipPath>
                    </defs>
                </svg>

            </g>
        </mask>

        <filter id="maskFilter">
            <feColorMatrix in="SourceGraphic" type="saturate" values="0" result="gray"/>
            <feColorMatrix in="gray" type="luminanceToAlpha" result="lum"/>
            <feComponentTransfer in="lum" result="maskLight">
                <feFuncA type="discrete" tableValues="0 1"/>
            </feComponentTransfer>
            <feFlood flood-color="white" result="fill"/>
            <feComposite in="fill" in2="maskLight" operator="in"/>
        </filter>
    </defs>

    <rect x="38" y="38" width="164" height="164" rx="40" ry="40" fill="rgba(0,0,0,1)" filter="url(#shadow3D)"/>

    <rect x="40" y="40" width="160" height="160" rx="40" ry="40" fill="#0D1117"/>

    <rect x="40" y="40" width="160" height="160" rx="40" ry="40" fill="url(#gradient)" mask="url(#lightMask)"/>

    <rect x="40" y="40" width="160" height="160" rx="40" ry="40" fill="transparent" stroke="url(#gradient)" stroke-width="6" filter="url(#glow)"/>
</svg>