<svg xmlns="http://www.w3.org/2000/svg" width="320" height="320" viewBox="0 0 240 240" overflow="visible">
    <defs>
        <linearGradient id="gradient" x1="0%" y1="0%" x2="100%" y2="100%">
            <stop offset="0%" stop-color="#009BFF">
                <animate attributeName="stop-color" values="#009BFF;#FF3A76;#FFB200;#6A5CFF;#009BFF" dur="6s" repeatCount="indefinite" keyTimes="0;0.25;0.5;0.75;1" calcMode="linear"/>
            </stop>
            <stop offset="25%" stop-color="#FF3A76">
                <animate attributeName="stop-color" values="#FF3A76;#FFB200;#6A5CFF;#009BFF;#FF3A76" dur="6s" repeatCount="indefinite" keyTimes="0;0.25;0.5;0.75;1" calcMode="linear"/>
            </stop>
            <stop offset="50%" stop-color="#FFB200">
                <animate attributeName="stop-color" values="#FFB200;#6A5CFF;#009BFF;#FF3A76;#FFB200" dur="6s" repeatCount="indefinite" keyTimes="0;0.25;0.5;0.75;1" calcMode="linear"/>
            </stop>
            <stop offset="75%" stop-color="#6A5CFF">
                <animate attributeName="stop-color" values="#6A5CFF;#009BFF;#FF3A76;#FFB200;#6A5CFF" dur="6s" repeatCount="indefinite" keyTimes="0;0.25;0.5;0.75;1" calcMode="linear"/>
            </stop>
            <stop offset="100%" stop-color="#009BFF">
                <animate attributeName="stop-color" values="#009BFF;#FF3A76;#FFB200;#6A5CFF;#009BFF" dur="6s" repeatCount="indefinite" keyTimes="0;0.25;0.5;0.75;1" calcMode="linear"/>
            </stop>
        </linearGradient>

        <filter id="shadow3D" x="-60%" y="-60%" width="220%" height="220%">
            <feGaussianBlur in="SourceAlpha" stdDeviation="12" result="blur"/>
            <feOffset in="blur" dx="0" dy="0" result="offsetBlur"/>
            <feMerge>
                <feMergeNode in="offsetBlur"/>
                <feMergeNode in="SourceGraphic"/>
            </feMerge>
        </filter>

        <filter id="glow" x="-200%" y="-200%" width="400%" height="400%">
            <feGaussianBlur in="SourceGraphic" stdDeviation="6" result="blur1"/>
            <feGaussianBlur in="SourceGraphic" stdDeviation="12" result="blur2"/>
            <feGaussianBlur in="SourceGraphic" stdDeviation="18" result="blur3"/>
            <feMerge>
                <feMergeNode in="blur1"/>
                <feMergeNode in="blur2"/>
                <feMergeNode in="blur3"/>
                <feMergeNode in="SourceGraphic"/>
            </feMerge>
        </filter>

        <mask id="lightMask" maskUnits="userSpaceOnUse">
            <g filter="url(#maskFilter)">
                <svg width="154" height="154" x="43" y="43" viewBox="0 0 154 154" fill="none" xmlns="http://www.w3.org/2000/svg">
                    <g clip-path="url(#clip0_7_230)">
                        <mask id="mask0_7_230" style="mask-type:luminance" maskUnits="userSpaceOnUse" x="0" y="0" width="154" height="154">
                            <path d="M154 0H0V154H154V0Z" fill="white"/>
                        </mask>
                        <g mask="url(#mask0_7_230)">
                            <mask id="mask1_7_230" style="mask-type:luminance" maskUnits="userSpaceOnUse" x="0" y="0" width="154" height="154">
                                <path d="M154 0H0V154H154V0Z" fill="white"/>
                            </mask>
                            <g mask="url(#mask1_7_230)">
                                <path fill-rule="evenodd" clip-rule="evenodd" d="M45.758 25.8672C56.7436 25.8672 65.6485 34.7724 65.6485 45.758C65.6485 56.7436 56.7436 65.6485 45.758 65.6485C34.7724 65.6485 25.8672 56.7436 25.8672 45.758C25.8672 34.7724 34.7724 25.8672 45.758 25.8672Z" stroke="white" stroke-width="4.42018" stroke-linecap="round" stroke-linejoin="round"/>
                                <path fill-rule="evenodd" clip-rule="evenodd" d="M74.4891 65.6485C81.8125 65.6485 87.7499 71.5859 87.7499 78.9094C87.7499 86.2328 81.8125 92.1696 74.4891 92.1696C67.1657 92.1696 61.2288 86.2328 61.2288 78.9094C61.2288 71.5859 67.1657 65.6485 74.4891 65.6485Z" stroke="white" stroke-width="4.42018" stroke-linecap="round" stroke-linejoin="round"/>
                                <path fill-rule="evenodd" clip-rule="evenodd" d="M74.4891 101.01C81.8125 101.01 87.7499 106.947 87.7499 114.271C87.7499 121.594 81.8125 127.531 74.4891 127.531C67.1657 127.531 61.2288 121.594 61.2288 114.271C61.2288 106.947 67.1657 101.01 74.4891 101.01Z" stroke="white" stroke-width="4.42018" stroke-linecap="round" stroke-linejoin="round"/>
                                <path fill-rule="evenodd" clip-rule="evenodd" d="M114.271 101.01C121.594 101.01 127.531 106.947 127.531 114.271C127.531 121.594 121.594 127.531 114.271 127.531C106.947 127.531 101.01 121.594 101.01 114.271C101.01 106.947 106.947 101.01 114.271 101.01Z" stroke="white" stroke-width="4.42018" stroke-linecap="round" stroke-linejoin="round"/>
                                <path d="M78.99 75.8306L72.2068 82.6048L68.912 79.3214" stroke="white" stroke-width="4.42018" stroke-linecap="round" stroke-linejoin="round"/>
                                <path fill-rule="evenodd" clip-rule="evenodd" d="M114.271 65.6485C121.594 65.6485 127.531 71.5859 127.531 78.9094C127.531 86.2328 121.594 92.1696 114.271 92.1696C106.947 92.1696 101.01 86.2328 101.01 78.9094C101.01 71.5859 106.947 65.6485 114.271 65.6485Z" stroke="white" stroke-width="4.42018" stroke-linecap="round" stroke-linejoin="round"/>
                                <path d="M118.771 75.8306L111.988 82.6048L108.694 79.3214" stroke="white" stroke-width="4.42018" stroke-linecap="round" stroke-linejoin="round"/>
                                <path d="M39.1277 38.7125C39.1277 36.9731 41.0441 35.9154 42.5158 36.8425L53.8164 43.9612C55.1984 44.8317 55.1911 46.8488 53.8031 47.7095L42.5024 54.7166C41.0302 55.6293 39.1277 54.5704 39.1277 52.8382V38.7125Z" stroke="white" stroke-width="4.42018" stroke-linecap="round" stroke-linejoin="round"/>
                                <path d="M43.548 65.6485V98.8C43.548 107.344 50.5698 114.27 59.0185 114.27H61.2288" stroke="white" stroke-width="4.42018" stroke-linecap="round" stroke-linejoin="round"/>
                                <path d="M61.1157 81.1189C62.3363 81.1189 63.3259 80.1299 63.3259 78.9088C63.3259 77.6882 62.3363 76.6992 61.1157 76.6992V81.1189ZM41.3377 65.7261C41.3377 74.2274 48.2294 81.1189 56.7306 81.1189V76.6992C50.6705 76.6992 45.7579 71.7863 45.7579 65.7261H41.3377ZM56.7306 81.1189H61.1157V76.6992H56.7306V81.1189Z" fill="white"/>
                                <path d="M87.8708 78.9094H101.009" stroke="white" stroke-width="4.42018" stroke-linecap="round" stroke-linejoin="round"/>
                                <path fill-rule="evenodd" clip-rule="evenodd" d="M70.0688 112.061C71.2888 112.061 72.2789 113.051 72.2789 114.271C72.2789 115.492 71.2888 116.481 70.0688 116.481C68.8494 116.481 67.8587 115.492 67.8587 114.271C67.8587 113.051 68.8494 112.061 70.0688 112.061Z" fill="white"/>
                                <path fill-rule="evenodd" clip-rule="evenodd" d="M78.9094 112.061C80.1287 112.061 81.1195 113.051 81.1195 114.271C81.1195 115.492 80.1287 116.481 78.9094 116.481C77.69 116.481 76.6992 115.492 76.6992 114.271C76.6992 113.051 77.69 112.061 78.9094 112.061Z" fill="white"/>
                                <path d="M98.8109 114.285L96.573 114.359" stroke="white" stroke-width="4.42018" stroke-linecap="round"/>
                            </g>
                        </g>
                    </g>
                    <defs>
                        <clipPath id="clip0_7_230">
                            <rect width="154" height="154" fill="white"/>
                        </clipPath>
                    </defs>
                </svg>
            </g>
        </mask>

        <filter id="maskFilter">
            <feColorMatrix in="SourceGraphic" type="saturate" values="0" result="gray"/>
        </filter>
    </defs>

    <rect x="38" y="38" width="164" height="164" rx="40" ry="40" fill="rgba(0,0,0,1)" filter="url(#shadow3D)"/>

    <rect x="40" y="40" width="160" height="160" rx="40" ry="40" fill="#0D1117"/>

    <rect x="40" y="40" width="160" height="160" rx="40" ry="40" fill="url(#gradient)" mask="url(#lightMask)"/>

    <rect x="40" y="40" width="160" height="160" rx="40" ry="40" fill="transparent" stroke="url(#gradient)" stroke-width="6" filter="url(#glow)"/>
</svg>