<svg xmlns="http://www.w3.org/2000/svg" width="320" height="320" viewBox="0 0 240 240" overflow="visible">
    <defs>
        <linearGradient id="gradient" x1="0%" y1="0%" x2="100%" y2="100%">
            <stop offset="0%" stop-color="#009BFF">
                <animate attributeName="stop-color" values="#009BFF;#FF3A76;#FFB200;#6A5CFF;#009BFF" dur="6s" repeatCount="indefinite" keyTimes="0;0.25;0.5;0.75;1" calcMode="linear"/>
            </stop>
            <stop offset="25%" stop-color="#FF3A76">
                <animate attributeName="stop-color" values="#FF3A76;#FFB200;#6A5CFF;#009BFF;#FF3A76" dur="6s" repeatCount="indefinite" keyTimes="0;0.25;0.5;0.75;1" calcMode="linear"/>
            </stop>
            <stop offset="50%" stop-color="#FFB200">
                <animate attributeName="stop-color" values="#FFB200;#6A5CFF;#009BFF;#FF3A76;#FFB200" dur="6s" repeatCount="indefinite" keyTimes="0;0.25;0.5;0.75;1" calcMode="linear"/>
            </stop>
            <stop offset="75%" stop-color="#6A5CFF">
                <animate attributeName="stop-color" values="#6A5CFF;#009BFF;#FF3A76;#FFB200;#6A5CFF" dur="6s" repeatCount="indefinite" keyTimes="0;0.25;0.5;0.75;1" calcMode="linear"/>
            </stop>
            <stop offset="100%" stop-color="#009BFF">
                <animate attributeName="stop-color" values="#009BFF;#FF3A76;#FFB200;#6A5CFF;#009BFF" dur="6s" repeatCount="indefinite" keyTimes="0;0.25;0.5;0.75;1" calcMode="linear"/>
            </stop>
        </linearGradient>

        <filter id="shadow3D" x="-60%" y="-60%" width="220%" height="220%">
            <feGaussianBlur in="SourceAlpha" stdDeviation="12" result="blur"/>
            <feOffset in="blur" dx="0" dy="0" result="offsetBlur"/>
            <feMerge>
                <feMergeNode in="offsetBlur"/>
                <feMergeNode in="SourceGraphic"/>
            </feMerge>
        </filter>

        <filter id="glow" x="-200%" y="-200%" width="400%" height="400%">
            <feGaussianBlur in="SourceGraphic" stdDeviation="6" result="blur1"/>
            <feGaussianBlur in="SourceGraphic" stdDeviation="12" result="blur2"/>
            <feGaussianBlur in="SourceGraphic" stdDeviation="18" result="blur3"/>
            <feMerge>
                <feMergeNode in="blur1"/>
                <feMergeNode in="blur2"/>
                <feMergeNode in="blur3"/>
                <feMergeNode in="SourceGraphic"/>
            </feMerge>
        </filter>

        <mask id="lightMask" maskUnits="userSpaceOnUse">
            <g filter="url(#maskFilter)">
                <svg width="154" height="154" x="43" y="43" viewBox="0 0 154 154" fill="none" xmlns="http://www.w3.org/2000/svg">
                    <g clip-path="url(#clip0_7_2)">
                        <g clip-path="url(#clip1_7_2)">
                            <path d="M117.906 0H36.0938C16.1597 0 0 16.1597 0 36.0938V117.906C0 137.84 16.1597 154 36.0938 154H117.906C137.84 154 154 137.84 154 117.906V36.0938C154 16.1597 137.84 0 117.906 0Z" fill="black"/>
                            <path d="M77.0006 18.0469C43.7812 18.0469 16.8438 44.9793 16.8438 78.2037C16.8438 104.783 34.0805 127.332 57.9826 135.286C60.9888 135.843 62.0927 133.981 62.0927 132.392C62.0927 130.958 62.0367 126.219 62.0109 121.193C45.2755 124.831 41.744 114.095 41.744 114.095C39.0075 107.141 35.0647 105.293 35.0647 105.293C29.6067 101.559 35.4761 101.636 35.4761 101.636C41.5169 102.06 44.6977 107.835 44.6977 107.835C50.0631 117.032 58.7706 114.373 62.2034 112.836C62.7436 108.947 64.3022 106.294 66.0227 104.792C52.6611 103.27 38.6151 98.1118 38.6151 75.0618C38.6151 68.4939 40.965 63.1274 44.8132 58.9147C44.1886 57.3996 42.1295 51.2811 45.396 42.995C45.396 42.995 50.4476 41.3782 61.9435 49.1613C66.7422 47.8284 71.8879 47.16 77.0006 47.1371C82.1127 47.16 87.2633 47.8284 92.0703 49.1613C103.552 41.3782 108.597 42.995 108.597 42.995C111.871 51.2811 109.812 57.3996 109.187 58.9147C113.044 63.1274 115.378 68.4939 115.378 75.0618C115.378 98.1672 101.305 103.255 87.9093 104.743C90.0671 106.611 91.9897 110.271 91.9897 115.884C91.9897 123.933 91.92 130.411 91.92 132.392C91.92 133.993 93.0028 135.869 96.0521 135.278C119.941 127.315 137.156 104.774 137.156 78.2037C137.156 44.9793 110.222 18.0469 77.0006 18.0469ZM39.3744 103.741C39.2419 104.04 38.7717 104.13 38.3434 103.925C37.907 103.729 37.662 103.321 37.8034 103.021C37.933 102.713 38.4041 102.628 38.8395 102.834C39.2768 103.03 39.5258 103.442 39.3744 103.741ZM42.3335 106.382C42.0466 106.648 41.4857 106.524 41.1052 106.104C40.7117 105.684 40.638 105.124 40.9289 104.854C41.2247 104.588 41.7687 104.712 42.1631 105.131C42.5566 105.556 42.6333 106.113 42.3335 106.382ZM44.3635 109.76C43.9949 110.016 43.3922 109.776 43.0197 109.241C42.651 108.706 42.651 108.065 43.0276 107.807C43.4012 107.55 43.9949 107.781 44.3725 108.313C44.74 108.856 44.74 109.498 44.3635 109.76ZM47.7967 113.672C47.467 114.036 46.7646 113.938 46.2506 113.442C45.7246 112.957 45.5782 112.269 45.9089 111.905C46.2427 111.541 46.9489 111.643 47.4669 112.135C47.9889 112.619 48.1483 113.313 47.7967 113.672ZM52.2337 114.993C52.0883 115.465 51.4119 115.679 50.7305 115.478C50.0501 115.272 49.6048 114.72 49.7423 114.244C49.8838 113.77 50.5631 113.547 51.2495 113.761C51.9289 113.966 52.3752 114.514 52.2337 114.993ZM57.2833 115.554C57.3002 116.049 56.7225 116.461 56.0072 116.47C55.288 116.486 54.7062 116.084 54.6982 115.596C54.6982 115.095 55.2631 114.688 55.9823 114.676C56.6976 114.662 57.2833 115.06 57.2833 115.554ZM62.2437 115.363C62.3297 115.847 61.8328 116.345 61.1224 116.477C60.4239 116.604 59.7774 116.305 59.6888 115.825C59.6021 115.329 60.1081 114.832 60.8053 114.704C61.517 114.58 62.1534 114.871 62.2437 115.363Z" fill="white"/>
                        </g>
                    </g>
                    <defs>
                        <clipPath id="clip0_7_2">
                            <rect width="154" height="154" fill="white"/>
                        </clipPath>
                        <clipPath id="clip1_7_2">
                            <rect width="154" height="154" fill="white"/>
                        </clipPath>
                    </defs>
                </svg>

            </g>
        </mask>

        <filter id="maskFilter">
            <feColorMatrix in="SourceGraphic" type="saturate" values="0" result="gray"/>
        </filter>
    </defs>

    <rect x="38" y="38" width="164" height="164" rx="40" ry="40" fill="rgba(0,0,0,1)" filter="url(#shadow3D)"/>

    <rect x="40" y="40" width="160" height="160" rx="40" ry="40" fill="#0D1117"/>

    <rect x="40" y="40" width="160" height="160" rx="40" ry="40" fill="url(#gradient)" mask="url(#lightMask)"/>

    <rect x="40" y="40" width="160" height="160" rx="40" ry="40" fill="transparent" stroke="url(#gradient)" stroke-width="6" filter="url(#glow)"/>
</svg>