<svg xmlns="http://www.w3.org/2000/svg" width="320" height="320" viewBox="0 0 240 240" overflow="visible">
    <defs>
        <linearGradient id="gradient" x1="0%" y1="0%" x2="100%" y2="100%">
            <stop offset="0%" stop-color="#009BFF">
                <animate attributeName="stop-color" values="#009BFF;#FF3A76;#FFB200;#6A5CFF;#009BFF" dur="6s" repeatCount="indefinite" keyTimes="0;0.25;0.5;0.75;1" calcMode="linear"/>
            </stop>
            <stop offset="25%" stop-color="#FF3A76">
                <animate attributeName="stop-color" values="#FF3A76;#FFB200;#6A5CFF;#009BFF;#FF3A76" dur="6s" repeatCount="indefinite" keyTimes="0;0.25;0.5;0.75;1" calcMode="linear"/>
            </stop>
            <stop offset="50%" stop-color="#FFB200">
                <animate attributeName="stop-color" values="#FFB200;#6A5CFF;#009BFF;#FF3A76;#FFB200" dur="6s" repeatCount="indefinite" keyTimes="0;0.25;0.5;0.75;1" calcMode="linear"/>
            </stop>
            <stop offset="75%" stop-color="#6A5CFF">
                <animate attributeName="stop-color" values="#6A5CFF;#009BFF;#FF3A76;#FFB200;#6A5CFF" dur="6s" repeatCount="indefinite" keyTimes="0;0.25;0.5;0.75;1" calcMode="linear"/>
            </stop>
            <stop offset="100%" stop-color="#009BFF">
                <animate attributeName="stop-color" values="#009BFF;#FF3A76;#FFB200;#6A5CFF;#009BFF" dur="6s" repeatCount="indefinite" keyTimes="0;0.25;0.5;0.75;1" calcMode="linear"/>
            </stop>
        </linearGradient>

        <filter id="shadow3D" x="-60%" y="-60%" width="220%" height="220%">
            <feGaussianBlur in="SourceAlpha" stdDeviation="12" result="blur"/>
            <feOffset in="blur" dx="0" dy="0" result="offsetBlur"/>
            <feMerge>
                <feMergeNode in="offsetBlur"/>
                <feMergeNode in="SourceGraphic"/>
            </feMerge>
        </filter>

        <filter id="glow" x="-200%" y="-200%" width="400%" height="400%">
            <feGaussianBlur in="SourceGraphic" stdDeviation="6" result="blur1"/>
            <feGaussianBlur in="SourceGraphic" stdDeviation="12" result="blur2"/>
            <feGaussianBlur in="SourceGraphic" stdDeviation="18" result="blur3"/>
            <feMerge>
                <feMergeNode in="blur1"/>
                <feMergeNode in="blur2"/>
                <feMergeNode in="blur3"/>
                <feMergeNode in="SourceGraphic"/>
            </feMerge>
        </filter>

        <mask id="lightMask" maskUnits="userSpaceOnUse">
            <g filter="url(#maskFilter)">
                <svg width="154" height="154" x="43" y="43" viewBox="0 0 154 154" fill="none" xmlns="http://www.w3.org/2000/svg">
                    <g clip-path="url(#clip0_7_255)">
                        <mask id="mask0_7_255" style="mask-type:luminance" maskUnits="userSpaceOnUse" x="0" y="0" width="154" height="154">
                            <path d="M154 0H0V154H154V0Z" fill="white"/>
                        </mask>
                        <g mask="url(#mask0_7_255)">
                            <mask id="mask1_7_255" style="mask-type:luminance" maskUnits="userSpaceOnUse" x="0" y="0" width="154" height="154">
                                <path d="M154 0H0V154H154V0Z" fill="white"/>
                            </mask>
                            <g mask="url(#mask1_7_255)">
                                <path d="M76.9994 132.344L99.5953 64.2523H54.4062L76.9994 132.342V132.344Z" fill="#A9A9A9"/>
                                <path d="M76.9994 132.344L54.4061 64.2523H22.7392L76.9994 132.342V132.344Z" fill="#D5D5D5"/>
                                <path d="M22.7395 64.2505L15.8708 84.9442C15.2434 86.8307 15.9274 88.8989 17.5685 90.0653L77 132.344L22.7395 64.2523V64.2505Z" fill="white"/>
                                <path d="M22.7392 64.2499H54.4061L40.7963 23.2381C40.0961 21.129 37.0456 21.129 36.3466 23.2381L22.7392 64.2517V64.2499Z" fill="#A9A9A9"/>
                                <path d="M77 132.344L99.5959 64.2523H131.264L77 132.342V132.344Z" fill="#D5D5D5"/>
                                <path d="M131.263 64.2505L138.13 84.9442C138.756 86.8307 138.07 88.8989 136.431 90.0653L77 132.344L131.263 64.2523V64.2505Z" fill="white"/>
                                <path d="M131.262 64.2499H99.5959L113.204 23.2387C113.905 21.1296 116.955 21.1296 117.654 23.2387L131.264 64.2517L131.262 64.2499Z" fill="#A9A9A9"/>
                            </g>
                        </g>
                    </g>
                    <defs>
                        <clipPath id="clip0_7_255">
                            <rect width="154" height="154" fill="white"/>
                        </clipPath>
                    </defs>
                </svg>
            </g>
        </mask>

        <filter id="maskFilter">
            <feColorMatrix in="SourceGraphic" type="saturate" values="0" result="gray"/>
        </filter>
    </defs>

    <rect x="38" y="38" width="164" height="164" rx="40" ry="40" fill="rgba(0,0,0,1)" filter="url(#shadow3D)"/>

    <rect x="40" y="40" width="160" height="160" rx="40" ry="40" fill="#0D1117"/>

    <rect x="40" y="40" width="160" height="160" rx="40" ry="40" fill="url(#gradient)" mask="url(#lightMask)"/>

    <rect x="40" y="40" width="160" height="160" rx="40" ry="40" fill="transparent" stroke="url(#gradient)" stroke-width="6" filter="url(#glow)"/>
</svg>