<svg xmlns="http://www.w3.org/2000/svg" viewBox="0 0 384 384" overflow="visible"><defs><filter id="a" x="-60%" y="-60%" width="220%" height="220%"><feGaussianBlur in="SourceAlpha" stdDeviation="12" result="blur"/><feOffset in="blur" result="offsetBlur"/><feMerge><feMergeNode in="offsetBlur"/><feMergeNode in="SourceGraphic"/></feMerge></filter><filter id="d" x="-200%" y="-200%" width="400%" height="400%"><feGaussianBlur in="SourceGraphic" stdDeviation="6" result="blur1"/><feGaussianBlur in="SourceGraphic" stdDeviation="12" result="blur2"/><feGaussianBlur in="SourceGraphic" stdDeviation="18" result="blur3"/><feMerge><feMergeNode in="blur1"/><feMergeNode in="blur2"/><feMergeNode in="blur3"/><feMergeNode in="SourceGraphic"/></feMerge></filter><linearGradient id="b" x1="0%" y1="0%" x2="100%" y2="100%"><stop offset="0%" stop-color="#009BFF"><animate attributeName="stop-color" values="#009BFF;#FF3A76;#FFB200;#6A5CFF;#009BFF" dur="6s" repeatCount="indefinite" keyTimes="0;0.25;0.5;0.75;1" calcMode="linear"/></stop><stop offset="25%" stop-color="#FF3A76"><animate attributeName="stop-color" values="#FF3A76;#FFB200;#6A5CFF;#009BFF;#FF3A76" dur="6s" repeatCount="indefinite" keyTimes="0;0.25;0.5;0.75;1" calcMode="linear"/></stop><stop offset="50%" stop-color="#FFB200"><animate attributeName="stop-color" values="#FFB200;#6A5CFF;#009BFF;#FF3A76;#FFB200" dur="6s" repeatCount="indefinite" keyTimes="0;0.25;0.5;0.75;1" calcMode="linear"/></stop><stop offset="75%" stop-color="#6A5CFF"><animate attributeName="stop-color" values="#6A5CFF;#009BFF;#FF3A76;#FFB200;#6A5CFF" dur="6s" repeatCount="indefinite" keyTimes="0;0.25;0.5;0.75;1" calcMode="linear"/></stop><stop offset="100%" stop-color="#009BFF"><animate attributeName="stop-color" values="#009BFF;#FF3A76;#FFB200;#6A5CFF;#009BFF" dur="6s" repeatCount="indefinite" keyTimes="0;0.25;0.5;0.75;1" calcMode="linear"/></stop></linearGradient><mask id="c" maskUnits="userSpaceOnUse"><g fill="#fff"><path d="M95.853 174.61c-.432 0-.54-.215-.324-.54l2.274-2.924c.216-.324.758-.54 1.191-.54h38.657c.432 0 .54.324.324.648l-1.841 2.817c-.216.324-.756.648-1.082.648zm-16.349 9.964c-.432 0-.542-.216-.324-.542l2.273-2.923c.216-.324.756-.542 1.19-.542h49.378c.432 0 .648.324.54.648l-.866 2.6c-.108.433-.54.649-.974.649zm26.204 9.96c-.433 0-.541-.323-.325-.647l1.515-2.71c.216-.323.65-.647 1.084-.647h21.656c.432 0 .65.324.65.756l-.217 2.599c0 .432-.433.758-.757.758zm112.396-21.871c-6.822 1.732-11.479 3.031-18.193 4.763-1.623.434-1.731.542-3.139-1.082-1.623-1.841-2.815-3.031-5.088-4.115-6.822-3.357-13.428-2.381-19.6 1.624-7.363 4.764-11.153 11.802-11.045 20.574.108 8.661 6.066 15.81 14.617 16.999 7.364.976 13.536-1.624 18.409-7.146.974-1.192 1.841-2.49 2.923-4.007h-20.896c-2.273 0-2.815-1.407-2.057-3.247 1.407-3.357 4.006-8.987 5.522-11.803.324-.65 1.084-1.733 2.707-1.733h39.415c-.216 2.923-.216 5.848-.65 8.771-1.192 7.796-4.115 14.942-8.88 21.222-7.795 10.287-17.974 16.677-30.859 18.409-10.612 1.408-20.466-.65-29.127-7.146-8.014-6.066-12.562-14.076-13.752-24.039-1.408-11.803 2.057-22.414 9.203-31.727 7.688-10.069 17.867-16.457 30.32-18.732 10.177-1.84 19.924-.648 28.693 5.306 5.739 3.789 9.853 8.987 12.56 15.268.65.973.217 1.515-1.081 1.84"/><path d="M253.944 232.542c-9.853-.216-18.84-3.031-26.42-9.53-6.389-5.522-10.396-12.56-11.695-20.897-1.948-12.237 1.407-23.064 8.771-32.701 7.904-10.395 17.433-15.81 30.32-18.083 11.044-1.95 21.44-.866 30.859 5.523 8.555 5.846 13.86 13.752 15.267 24.147 1.842 14.616-2.381 26.528-12.452 36.707-7.146 7.254-15.918 11.803-25.987 13.86-2.923.54-5.848.648-8.663.974m25.772-43.746c-.11-1.407-.11-2.49-.326-3.573-1.949-10.72-11.802-16.785-22.09-14.401-10.068 2.273-16.566 8.661-18.948 18.84-1.95 8.446 2.166 17.001 9.961 20.466 5.957 2.598 11.911 2.274 17.651-.65 8.554-4.44 13.21-11.37 13.752-20.682"/></g></mask></defs><rect x="64" y="64" width="256" height="256" rx="40" ry="40" fill="rgba(0,0,0,1)" filter="url(#a)"/><rect x="64" y="64" width="256" height="256" rx="40" ry="40" fill="#0D1117"/><rect x="64" y="64" width="256" height="256" rx="40" ry="40" fill="url(#b)" mask="url(#c)"/><rect x="64" y="64" width="256" height="256" rx="40" ry="40" fill="transparent" stroke="url(#b)" stroke-width="6" filter="url(#d)"/></svg>