<svg xmlns="http://www.w3.org/2000/svg" width="320" height="320" viewBox="0 0 240 240" overflow="visible"><defs><filter id="d" x="-60%" y="-60%" width="220%" height="220%"><feGaussianBlur in="SourceAlpha" stdDeviation="12" result="blur"/><feOffset in="blur" result="offsetBlur"/><feMerge><feMergeNode in="offsetBlur"/><feMergeNode in="SourceGraphic"/></feMerge></filter><filter id="g" x="-200%" y="-200%" width="400%" height="400%"><feGaussianBlur in="SourceGraphic" stdDeviation="6" result="blur1"/><feGaussianBlur in="SourceGraphic" stdDeviation="12" result="blur2"/><feGaussianBlur in="SourceGraphic" stdDeviation="18" result="blur3"/><feMerge><feMergeNode in="blur1"/><feMergeNode in="blur2"/><feMergeNode in="blur3"/><feMergeNode in="SourceGraphic"/></feMerge></filter><filter id="a"><feColorMatrix in="SourceGraphic" type="saturate" values="0" result="gray"/><feColorMatrix in="gray" type="luminanceToAlpha" result="lum"/><feComponentTransfer in="lum" result="maskLight"><feFuncA type="discrete" tableValues="0 1"/></feComponentTransfer><feFlood flood-color="#fff" result="fill"/><feComposite in="fill" in2="maskLight" operator="in"/></filter><linearGradient id="e" x1="0%" y1="0%" x2="100%" y2="100%"><stop offset="0%" stop-color="#009BFF"><animate attributeName="stop-color" values="#009BFF;#FF3A76;#FFB200;#6A5CFF;#009BFF" dur="6s" repeatCount="indefinite" keyTimes="0;0.25;0.5;0.75;1" calcMode="linear"/></stop><stop offset="25%" stop-color="#FF3A76"><animate attributeName="stop-color" values="#FF3A76;#FFB200;#6A5CFF;#009BFF;#FF3A76" dur="6s" repeatCount="indefinite" keyTimes="0;0.25;0.5;0.75;1" calcMode="linear"/></stop><stop offset="50%" stop-color="#FFB200"><animate attributeName="stop-color" values="#FFB200;#6A5CFF;#009BFF;#FF3A76;#FFB200" dur="6s" repeatCount="indefinite" keyTimes="0;0.25;0.5;0.75;1" calcMode="linear"/></stop><stop offset="75%" stop-color="#6A5CFF"><animate attributeName="stop-color" values="#6A5CFF;#009BFF;#FF3A76;#FFB200;#6A5CFF" dur="6s" repeatCount="indefinite" keyTimes="0;0.25;0.5;0.75;1" calcMode="linear"/></stop><stop offset="100%" stop-color="#009BFF"><animate attributeName="stop-color" values="#009BFF;#FF3A76;#FFB200;#6A5CFF;#009BFF" dur="6s" repeatCount="indefinite" keyTimes="0;0.25;0.5;0.75;1" calcMode="linear"/></stop></linearGradient><mask id="f" maskUnits="userSpaceOnUse"><g filter="url(#a)"><svg width="154" height="154" x="43" y="43" viewBox="0 0 154 154" fill="none" xmlns="http://www.w3.org/2000/svg"><g clip-path="url(#b)"><g clip-path="url(#c)" fill="#fff"><path d="M24.363 68.117c-.24 0-.3-.12-.18-.3l1.263-1.625c.12-.18.421-.3.662-.3h21.476c.24 0 .3.18.18.36l-1.023 1.565c-.12.18-.42.36-.601.36zm-9.083 5.535c-.24 0-.301-.12-.18-.301l1.263-1.624c.12-.18.42-.301.661-.301h27.432c.24 0 .36.18.3.36l-.481 1.445c-.06.24-.3.36-.541.36zm14.558 5.534c-.241 0-.301-.18-.181-.36l.842-1.505c.12-.18.361-.36.602-.36h12.031c.24 0 .361.18.361.42l-.12 1.444c0 .24-.241.421-.421.421zM92.28 67.035c-3.79.962-6.377 1.684-10.107 2.646-.902.241-.962.301-1.744-.601-.902-1.023-1.564-1.684-2.827-2.286-3.79-1.865-7.46-1.323-10.889.902-4.09 2.647-6.196 6.557-6.136 11.43.06 4.812 3.37 8.783 8.121 9.444 4.091.542 7.52-.902 10.227-3.97.541-.662 1.023-1.383 1.624-2.226H68.94c-1.263 0-1.564-.782-1.143-1.804.782-1.865 2.226-4.993 3.068-6.557.18-.361.602-.963 1.504-.963h21.897c-.12 1.624-.12 3.249-.361 4.873-.662 4.331-2.286 8.301-4.933 11.79-4.331 5.715-9.986 9.265-17.144 10.227-5.896.782-11.37-.361-16.182-3.97-4.452-3.37-6.979-7.82-7.64-13.355-.782-6.557 1.143-12.452 5.113-17.626 4.271-5.594 9.926-9.143 16.844-10.407 5.654-1.022 11.069-.36 15.941 2.948 3.188 2.105 5.474 4.993 6.978 8.482.361.541.12.842-.601 1.022"/><path d="M112.191 100.301c-5.474-.12-10.467-1.684-14.678-5.294-3.549-3.068-5.775-6.978-6.497-11.61-1.082-6.798.782-12.813 4.873-18.167 4.391-5.775 9.685-8.783 16.844-10.046 6.136-1.083 11.911-.481 17.144 3.068 4.753 3.248 7.7 7.64 8.482 13.415 1.023 8.12-1.323 14.738-6.918 20.393-3.97 4.03-8.843 6.557-14.437 7.7-1.624.3-3.249.36-4.813.541m14.318-24.303c-.061-.782-.061-1.384-.181-1.985-1.083-5.956-6.557-9.325-12.272-8.001-5.594 1.263-9.204 4.812-10.527 10.467-1.083 4.692 1.203 9.445 5.534 11.37 3.309 1.443 6.617 1.263 9.806-.361 4.752-2.467 7.339-6.317 7.64-11.49"/></g></g><defs><clipPath id="b"><path fill="#fff" d="M0 0h154v154H0z"/></clipPath><clipPath id="c"><path fill="#fff" d="M0 0h154v154H0z"/></clipPath></defs></svg></g></mask></defs><rect x="38" y="38" width="164" height="164" rx="40" ry="40" fill="rgba(0,0,0,1)" filter="url(#d)"/><rect x="40" y="40" width="160" height="160" rx="40" ry="40" fill="#0D1117"/><rect x="40" y="40" width="160" height="160" rx="40" ry="40" fill="url(#e)" mask="url(#f)"/><rect x="40" y="40" width="160" height="160" rx="40" ry="40" fill="transparent" stroke="url(#e)" stroke-width="6" filter="url(#g)"/></svg>