<svg width="158" height="158" viewBox="0 0 158 158" fill="none" xmlns="http://www.w3.org/2000/svg">
    <g filter="url(#filter0_d_1_8)">
        <rect width="128" height="128" transform="translate(15 15)" fill="#0D1117"/>
        <path fill-rule="evenodd" clip-rule="evenodd" d="M26.156 69.829C25.913 69.829 25.853 69.707 25.974 69.526L27.247 67.889C27.367 67.707 27.671 67.586 27.913 67.586H49.55C49.793 67.586 49.853 67.768 49.732 67.95L48.702 69.526C48.581 69.707 48.278 69.889 48.096 69.889L26.156 69.829ZM17.004 75.404C16.762 75.404 16.701 75.284 16.822 75.101L18.095 73.465C18.216 73.283 18.519 73.162 18.762 73.162H46.398C46.64 73.162 46.762 73.344 46.701 73.526L46.216 74.98C46.156 75.223 45.913 75.344 45.671 75.344L17.004 75.404ZM31.67 80.98C31.428 80.98 31.368 80.798 31.489 80.616L32.337 79.101C32.459 78.919 32.701 78.738 32.944 78.738H45.064C45.307 78.738 45.428 78.919 45.428 79.162L45.308 80.616C45.308 80.859 45.065 81.041 44.883 81.041L31.67 80.98ZM94.58 68.738C90.761 69.708 88.155 70.435 84.398 71.404C83.488 71.647 83.428 71.707 82.64 70.798C81.731 69.768 81.064 69.101 79.792 68.495C75.973 66.617 72.276 67.162 68.822 69.405C64.701 72.071 62.58 76.01 62.64 80.919C62.7 85.768 66.034 89.768 70.822 90.435C74.943 90.98 78.398 89.525 81.125 86.435C81.67 85.768 82.155 85.041 82.761 84.192H71.064C69.792 84.192 69.489 83.404 69.913 82.374C70.701 80.495 72.155 77.344 73.003 75.768C73.186 75.404 73.61 74.798 74.519 74.798H96.579C96.459 76.435 96.459 78.071 96.216 79.708C95.549 84.071 93.913 88.071 91.246 91.586C86.882 97.344 81.186 100.919 73.973 101.889C68.034 102.677 62.519 101.525 57.671 97.889C53.186 94.495 50.641 90.01 49.974 84.435C49.186 77.829 51.125 71.889 55.125 66.677C59.428 61.041 65.125 57.465 72.095 56.192C77.792 55.162 83.246 55.829 88.155 59.162C91.367 61.283 93.67 64.192 95.185 67.707C95.549 68.253 95.307 68.556 94.579 68.737L94.58 68.738Z" fill="#7F5AF0"/>
        <path d="M114.64 102.253C109.125 102.131 104.094 100.556 99.852 96.919C96.276 93.829 94.034 89.889 93.307 85.222C92.216 78.374 94.094 72.313 98.216 66.92C102.64 61.101 107.973 58.071 115.186 56.798C121.367 55.708 127.186 56.314 132.458 59.889C137.246 63.162 140.215 67.586 141.003 73.404C142.033 81.586 139.67 88.253 134.033 93.95C130.033 98.01 125.124 100.556 119.488 101.707C117.852 102.01 116.215 102.071 114.64 102.253ZM129.064 77.768C129.004 76.98 129.004 76.374 128.882 75.768C127.792 69.768 122.276 66.374 116.519 67.708C110.882 68.98 107.246 72.556 105.913 78.253C104.822 82.98 107.125 87.768 111.488 89.707C114.822 91.162 118.155 90.98 121.367 89.344C126.155 86.859 128.761 82.98 129.064 77.768Z" fill="#7F5AF0"/>
    </g>
    <defs>
        <filter id="filter0_d_1_8" x="0" y="0" width="158" height="158" filterUnits="userSpaceOnUse" color-interpolation-filters="sRGB">
            <feFlood flood-opacity="0" result="BackgroundImageFix"/>
            <feColorMatrix in="SourceAlpha" type="matrix" values="0 0 0 0 0 0 0 0 0 0 0 0 0 0 0 0 0 0 127 0" result="hardAlpha"/>
            <feMorphology radius="5" operator="dilate" in="SourceAlpha" result="effect1_dropShadow_1_8"/>
            <feOffset/>
            <feGaussianBlur stdDeviation="5"/>
            <feComposite in2="hardAlpha" operator="out"/>
            <feColorMatrix type="matrix" values="0 0 0 0 0.498039 0 0 0 0 0.352941 0 0 0 0 0.941176 0 0 0 0.25 0"/>
            <feBlend mode="normal" in2="BackgroundImageFix" result="effect1_dropShadow_1_8"/>
            <feBlend mode="normal" in="SourceGraphic" in2="effect1_dropShadow_1_8" result="shape"/>
        </filter>
    </defs>
</svg>
