<svg width="160" height="160" viewBox="0 0 160 160" fill="none" xmlns="http://www.w3.org/2000/svg">
    <g filter="url(#filter0_d_1_8)">
        <rect x="16" y="16" width="128" height="128" fill="#0D1117"/>
        <rect x="16" y="16" width="128" height="128" stroke="#C9D1D9" stroke-width="2"/>
        <path fill-rule="evenodd" clip-rule="evenodd" d="M27.156 70.829C26.913 70.829 26.853 70.707 26.974 70.526L28.247 68.889C28.367 68.707 28.671 68.586 28.913 68.586H50.55C50.793 68.586 50.853 68.768 50.732 68.95L49.702 70.526C49.581 70.707 49.278 70.889 49.096 70.889L27.156 70.829ZM18.004 76.404C17.762 76.404 17.701 76.284 17.822 76.101L19.095 74.465C19.216 74.283 19.519 74.162 19.762 74.162H47.398C47.64 74.162 47.762 74.344 47.701 74.526L47.216 75.98C47.156 76.223 46.913 76.344 46.671 76.344L18.004 76.404ZM32.67 81.98C32.428 81.98 32.368 81.798 32.489 81.616L33.337 80.101C33.459 79.919 33.701 79.738 33.944 79.738H46.064C46.307 79.738 46.428 79.919 46.428 80.162L46.308 81.616C46.308 81.859 46.065 82.041 45.883 82.041L32.67 81.98ZM95.58 69.738C91.761 70.708 89.155 71.435 85.398 72.404C84.488 72.647 84.428 72.707 83.64 71.798C82.731 70.768 82.064 70.101 80.792 69.495C76.973 67.617 73.276 68.162 69.822 70.405C65.701 73.071 63.58 77.01 63.64 81.919C63.7 86.768 67.034 90.768 71.822 91.435C75.943 91.98 79.398 90.525 82.125 87.435C82.67 86.768 83.155 86.041 83.761 85.192H72.064C70.792 85.192 70.489 84.404 70.913 83.374C71.701 81.495 73.155 78.344 74.003 76.768C74.186 76.404 74.61 75.798 75.519 75.798H97.579C97.459 77.435 97.459 79.071 97.216 80.708C96.549 85.071 94.913 89.071 92.246 92.586C87.882 98.344 82.186 101.919 74.973 102.889C69.034 103.677 63.519 102.525 58.671 98.889C54.186 95.495 51.641 91.01 50.974 85.435C50.186 78.829 52.125 72.889 56.125 67.677C60.428 62.041 66.125 58.465 73.095 57.192C78.792 56.162 84.246 56.829 89.155 60.162C92.367 62.283 94.67 65.192 96.185 68.707C96.549 69.253 96.307 69.556 95.579 69.737L95.58 69.738Z" fill="#7F5AF0"/>
        <path d="M115.64 103.253C110.125 103.131 105.094 101.556 100.852 97.919C97.276 94.829 95.034 90.889 94.307 86.222C93.216 79.374 95.094 73.313 99.216 67.92C103.64 62.101 108.973 59.071 116.186 57.798C122.367 56.708 128.186 57.314 133.458 60.889C138.246 64.162 141.215 68.586 142.003 74.404C143.033 82.586 140.67 89.253 135.033 94.95C131.033 99.01 126.124 101.556 120.488 102.707C118.852 103.01 117.215 103.071 115.64 103.253ZM130.064 78.768C130.004 77.98 130.004 77.374 129.882 76.768C128.792 70.768 123.276 67.374 117.519 68.708C111.882 69.98 108.246 73.556 106.913 79.253C105.822 83.98 108.125 88.768 112.488 90.707C115.822 92.162 119.155 91.98 122.367 90.344C127.155 87.859 129.761 83.98 130.064 78.768Z" fill="#7F5AF0"/>
    </g>
    <defs>
        <filter id="filter0_d_1_8" x="0" y="0" width="160" height="160" filterUnits="userSpaceOnUse" color-interpolation-filters="sRGB">
            <feFlood flood-opacity="0" result="BackgroundImageFix"/>
            <feColorMatrix in="SourceAlpha" type="matrix" values="0 0 0 0 0 0 0 0 0 0 0 0 0 0 0 0 0 0 127 0" result="hardAlpha"/>
            <feMorphology radius="5" operator="dilate" in="SourceAlpha" result="effect1_dropShadow_1_8"/>
            <feOffset/>
            <feGaussianBlur stdDeviation="5"/>
            <feComposite in2="hardAlpha" operator="out"/>
            <feColorMatrix type="matrix" values="0 0 0 0 0.498039 0 0 0 0 0.352941 0 0 0 0 0.941176 0 0 0 0.25 0"/>
            <feBlend mode="normal" in2="BackgroundImageFix" result="effect1_dropShadow_1_8"/>
            <feBlend mode="normal" in="SourceGraphic" in2="effect1_dropShadow_1_8" result="shape"/>
        </filter>
    </defs>
</svg>
