<svg xmlns="http://www.w3.org/2000/svg" width="320" height="320" viewBox="0 0 240 240" overflow="visible">
    <defs>
        <linearGradient id="gradient" x1="0%" y1="0%" x2="100%" y2="100%">
            <stop offset="0%" stop-color="#009BFF">
                <animate attributeName="stop-color" values="#009BFF;#FF3A76;#FFB200;#6A5CFF;#009BFF" dur="6s" repeatCount="indefinite" keyTimes="0;0.25;0.5;0.75;1" calcMode="linear"/>
            </stop>
            <stop offset="25%" stop-color="#FF3A76">
                <animate attributeName="stop-color" values="#FF3A76;#FFB200;#6A5CFF;#009BFF;#FF3A76" dur="6s" repeatCount="indefinite" keyTimes="0;0.25;0.5;0.75;1" calcMode="linear"/>
            </stop>
            <stop offset="50%" stop-color="#FFB200">
                <animate attributeName="stop-color" values="#FFB200;#6A5CFF;#009BFF;#FF3A76;#FFB200" dur="6s" repeatCount="indefinite" keyTimes="0;0.25;0.5;0.75;1" calcMode="linear"/>
            </stop>
            <stop offset="75%" stop-color="#6A5CFF">
                <animate attributeName="stop-color" values="#6A5CFF;#009BFF;#FF3A76;#FFB200;#6A5CFF" dur="6s" repeatCount="indefinite" keyTimes="0;0.25;0.5;0.75;1" calcMode="linear"/>
            </stop>
            <stop offset="100%" stop-color="#009BFF">
                <animate attributeName="stop-color" values="#009BFF;#FF3A76;#FFB200;#6A5CFF;#009BFF" dur="6s" repeatCount="indefinite" keyTimes="0;0.25;0.5;0.75;1" calcMode="linear"/>
            </stop>
        </linearGradient>

        <filter id="shadow3D" x="-60%" y="-60%" width="220%" height="220%">
            <feGaussianBlur in="SourceAlpha" stdDeviation="12" result="blur"/>
            <feOffset in="blur" dx="0" dy="0" result="offsetBlur"/>
            <feMerge>
                <feMergeNode in="offsetBlur"/>
                <feMergeNode in="SourceGraphic"/>
            </feMerge>
        </filter>

        <filter id="glow" x="-200%" y="-200%" width="400%" height="400%">
            <feGaussianBlur in="SourceGraphic" stdDeviation="6" result="blur1"/>
            <feGaussianBlur in="SourceGraphic" stdDeviation="12" result="blur2"/>
            <feGaussianBlur in="SourceGraphic" stdDeviation="18" result="blur3"/>
            <feMerge>
                <feMergeNode in="blur1"/>
                <feMergeNode in="blur2"/>
                <feMergeNode in="blur3"/>
                <feMergeNode in="SourceGraphic"/>
            </feMerge>
        </filter>

        <mask id="lightMask" maskUnits="userSpaceOnUse">
            <g filter="url(#maskFilter)">
                <svg width="154" height="154" x="43" y="43" viewBox="0 0 154 154" fill="none" xmlns="http://www.w3.org/2000/svg">
                    <g clip-path="url(#clip0_7_273)">
                        <g clip-path="url(#clip1_7_273)">
                            <path d="M24.3633 68.1173C24.1227 68.1173 24.0625 67.997 24.1828 67.8165L25.4461 66.1923C25.5664 66.0119 25.8672 65.8915 26.1078 65.8915H47.5836C47.8242 65.8915 47.8844 66.072 47.7641 66.2525L46.7414 67.8165C46.6211 67.997 46.3203 68.1775 46.1398 68.1775L24.3633 68.1173Z" fill="white"/>
                            <path d="M15.2797 73.6517C15.0391 73.6517 14.9789 73.5314 15.0992 73.3509L16.3625 71.7267C16.4828 71.5462 16.7836 71.4259 17.0242 71.4259H44.4555C44.6961 71.4259 44.8164 71.6064 44.7563 71.7869L44.275 73.2306C44.2148 73.4712 43.9742 73.5916 43.7336 73.5916L15.2797 73.6517Z" fill="white"/>
                            <path d="M29.8375 79.1861C29.5969 79.1861 29.5367 79.0056 29.657 78.8251L30.4992 77.3212C30.6195 77.1408 30.8602 76.9603 31.1008 76.9603H43.132C43.3727 76.9603 43.493 77.1408 43.493 77.3814L43.3727 78.8251C43.3727 79.0658 43.132 79.2462 42.9516 79.2462L29.8375 79.1861Z" fill="white"/>
                            <path d="M92.2797 67.0345C88.4898 67.997 85.9031 68.7189 82.1734 69.6814C81.2711 69.922 81.2109 69.9822 80.4289 69.0798C79.5266 68.0572 78.8648 67.3955 77.6016 66.7939C73.8117 64.929 70.1422 65.4705 66.7133 67.6962C62.6227 70.3431 60.5172 74.2533 60.5773 79.1259C60.6375 83.9384 63.9461 87.9087 68.6984 88.5705C72.7891 89.1119 76.218 87.6681 78.925 84.6001C79.4664 83.9384 79.9477 83.2166 80.5492 82.3744C78.3836 82.3744 75.6766 82.3744 68.9391 82.3744C67.6758 82.3744 67.375 81.5923 67.7961 80.5697C68.5781 78.7048 70.0219 75.5767 70.8641 74.0126C71.0445 73.6517 71.4656 73.0501 72.368 73.0501C75.4359 73.0501 86.7453 73.0501 94.2648 73.0501C94.1445 74.6744 94.1445 76.2986 93.9039 77.9228C93.2422 82.254 91.618 86.2244 88.9711 89.7134C84.6398 95.4283 78.9852 98.9775 71.8266 99.94C65.9313 100.722 60.457 99.579 55.6445 95.9697C51.193 92.6009 48.6664 88.1494 48.0047 82.615C47.2227 76.058 49.1477 70.1626 53.118 64.9892C57.3891 59.3949 63.0438 55.8456 69.9617 54.5824C75.6164 53.5597 81.0305 54.2214 85.9031 57.53C89.0914 59.6355 91.3773 62.5228 92.8813 66.0119C93.2422 66.5533 93.0016 66.854 92.2797 67.0345Z" fill="white"/>
                            <path d="M112.191 100.301C106.717 100.181 101.724 98.6166 97.5133 95.0072C93.9641 91.9392 91.7383 88.029 91.0164 83.397C89.9336 76.5994 91.7984 70.5837 95.8891 65.2298C100.28 59.455 105.574 56.4472 112.733 55.1839C118.869 54.1011 124.644 54.7027 129.877 58.2519C134.63 61.5001 137.577 65.8916 138.359 71.6666C139.382 79.7876 137.036 86.4048 131.441 92.0595C127.471 96.09 122.598 98.6165 117.004 99.7595C115.38 100.06 113.755 100.12 112.191 100.301ZM126.509 75.9978C126.448 75.2158 126.448 74.6142 126.328 74.0126C125.245 68.0572 119.771 64.6884 114.056 66.0119C108.462 67.2751 104.852 70.8244 103.529 76.479C102.446 81.1712 104.732 85.9236 109.063 87.8486C112.372 89.2923 115.68 89.1119 118.869 87.4876C123.621 85.0212 126.208 81.1712 126.509 75.9978Z" fill="white"/>
                        </g>
                    </g>
                    <defs>
                        <clipPath id="clip0_7_273">
                            <rect width="154" height="154" fill="white"/>
                        </clipPath>
                        <clipPath id="clip1_7_273">
                            <rect width="154" height="154" fill="white"/>
                        </clipPath>
                    </defs>
                </svg>
            </g>
        </mask>

        <filter id="maskFilter">
            <feColorMatrix in="SourceGraphic" type="saturate" values="0" result="gray"/>
            <feColorMatrix in="gray" type="luminanceToAlpha" result="lum"/>
            <feComponentTransfer in="lum" result="maskLight">
                <feFuncA type="discrete" tableValues="0 1"/>
            </feComponentTransfer>
            <feFlood flood-color="white" result="fill"/>
            <feComposite in="fill" in2="maskLight" operator="in"/>
        </filter>
    </defs>

    <rect x="38" y="38" width="164" height="164" rx="40" ry="40" fill="rgba(0,0,0,1)" filter="url(#shadow3D)"/>

    <rect x="40" y="40" width="160" height="160" rx="40" ry="40" fill="#0D1117"/>

    <rect x="40" y="40" width="160" height="160" rx="40" ry="40" fill="url(#gradient)" mask="url(#lightMask)"/>

    <rect x="40" y="40" width="160" height="160" rx="40" ry="40" fill="transparent" stroke="url(#gradient)" stroke-width="6" filter="url(#glow)"/>
</svg>