<svg xmlns="http://www.w3.org/2000/svg" width="320" height="320" viewBox="0 0 240 240" overflow="visible">
    <defs>
        <linearGradient id="gradient" x1="0%" y1="0%" x2="100%" y2="100%">
            <stop offset="0%" stop-color="#009BFF">
                <animate attributeName="stop-color" values="#009BFF;#FF3A76;#FFB200;#6A5CFF;#009BFF" dur="6s" repeatCount="indefinite" keyTimes="0;0.25;0.5;0.75;1" calcMode="linear"/>
            </stop>
            <stop offset="25%" stop-color="#FF3A76">
                <animate attributeName="stop-color" values="#FF3A76;#FFB200;#6A5CFF;#009BFF;#FF3A76" dur="6s" repeatCount="indefinite" keyTimes="0;0.25;0.5;0.75;1" calcMode="linear"/>
            </stop>
            <stop offset="50%" stop-color="#FFB200">
                <animate attributeName="stop-color" values="#FFB200;#6A5CFF;#009BFF;#FF3A76;#FFB200" dur="6s" repeatCount="indefinite" keyTimes="0;0.25;0.5;0.75;1" calcMode="linear"/>
            </stop>
            <stop offset="75%" stop-color="#6A5CFF">
                <animate attributeName="stop-color" values="#6A5CFF;#009BFF;#FF3A76;#FFB200;#6A5CFF" dur="6s" repeatCount="indefinite" keyTimes="0;0.25;0.5;0.75;1" calcMode="linear"/>
            </stop>
            <stop offset="100%" stop-color="#009BFF">
                <animate attributeName="stop-color" values="#009BFF;#FF3A76;#FFB200;#6A5CFF;#009BFF" dur="6s" repeatCount="indefinite" keyTimes="0;0.25;0.5;0.75;1" calcMode="linear"/>
            </stop>
        </linearGradient>

        <filter id="shadow3D" x="-60%" y="-60%" width="220%" height="220%">
            <feGaussianBlur in="SourceAlpha" stdDeviation="12" result="blur"/>
            <feOffset in="blur" dx="0" dy="0" result="offsetBlur"/>
            <feMerge>
                <feMergeNode in="offsetBlur"/>
                <feMergeNode in="SourceGraphic"/>
            </feMerge>
        </filter>

        <filter id="glow" x="-200%" y="-200%" width="400%" height="400%">
            <feGaussianBlur in="SourceGraphic" stdDeviation="6" result="blur1"/>
            <feGaussianBlur in="SourceGraphic" stdDeviation="12" result="blur2"/>
            <feGaussianBlur in="SourceGraphic" stdDeviation="18" result="blur3"/>
            <feMerge>
                <feMergeNode in="blur1"/>
                <feMergeNode in="blur2"/>
                <feMergeNode in="blur3"/>
                <feMergeNode in="SourceGraphic"/>
            </feMerge>
        </filter>

        <mask id="lightMask" maskUnits="userSpaceOnUse">
            <g filter="url(#maskFilter)">
                <svg width="154" height="154" x="43" y="43" viewBox="0 0 154 154" fill="none" xmlns="http://www.w3.org/2000/svg">
                    <g clip-path="url(#clip0_7_39)">
                        <g clip-path="url(#clip1_7_39)">
                            <path d="M117.906 0H36.0938C16.1597 0 0 16.1597 0 36.0938V117.906C0 137.84 16.1597 154 36.0938 154H117.906C137.84 154 154 137.84 154 117.906V36.0938C154 16.1597 137.84 0 117.906 0Z" fill="black"/>
                            <path d="M132.779 70.055C132.566 68.1318 132.352 65.7809 131.497 63.2164C130.856 60.6519 129.788 57.8739 128.292 54.8822C126.796 51.8904 124.873 48.8985 122.522 45.9067C121.667 44.8383 120.599 43.5561 119.317 42.4876C121.026 35.6493 117.18 29.8794 117.18 29.8794C110.769 29.452 106.495 31.8026 104.999 33.0849C104.785 33.0849 104.571 32.8712 104.144 32.6574C103.076 32.2301 102.007 31.8026 100.725 31.3753C99.4431 30.9479 98.3741 30.7342 97.0922 30.3068C95.8097 30.093 94.5271 29.8794 93.4593 29.6656C93.2452 29.6656 93.0316 29.6656 92.8181 29.6656C90.0395 20.6903 81.919 16.8438 81.919 16.8438C72.9443 22.6136 71.2346 30.5205 71.2346 30.5205C71.2346 30.5205 71.2346 30.7342 71.2346 30.9479C70.8069 31.1615 70.1656 31.1615 69.7385 31.3753C69.0973 31.5889 68.456 31.8026 67.6012 32.0164C66.9605 32.2301 66.3193 32.4438 65.4644 32.8712C64.1825 33.5123 62.6864 34.1533 61.4045 34.7944C60.122 35.4355 58.8398 36.2903 57.5577 37.1452C57.3439 37.1452 57.3439 36.9314 57.3439 36.9314C44.7357 32.2301 33.6234 37.9999 33.6234 37.9999C32.5549 51.2493 38.5384 59.7972 39.8207 61.2932C39.6069 62.148 39.1796 63.0028 38.9658 63.8577C38.1111 66.8492 37.2563 70.055 36.8289 73.2607C36.8289 73.6878 36.6151 74.1149 36.6151 74.5426C25.0754 80.3122 21.6562 92.0655 21.6562 92.0655C31.2727 103.178 42.5987 103.819 42.5987 103.819C44.0947 106.384 45.5906 108.734 47.5138 111.085C48.3686 111.939 49.2234 113.008 49.8645 113.863C46.4453 123.907 50.2919 132.241 50.2919 132.241C60.9768 132.669 68.0289 127.54 69.525 126.258C70.5934 126.685 71.6617 126.898 72.7301 127.326C75.9358 128.181 79.3551 128.609 82.7738 128.822C83.6286 128.822 84.484 128.822 85.3389 128.822H85.766H85.9795H86.4066H86.8343C91.9633 136.087 100.725 137.156 100.725 137.156C107.136 130.531 107.349 123.907 107.349 122.411C107.349 122.197 107.349 122.197 107.349 122.197V121.984C108.631 121.129 109.913 120.06 111.196 118.992C113.76 116.641 115.897 114.077 117.821 111.299C118.034 111.085 118.248 110.872 118.248 110.444C125.514 110.872 130.429 105.956 130.429 105.956C129.146 98.4764 124.872 94.8435 124.018 94.2029C124.018 94.2029 124.018 94.2029 123.805 94.2029C123.805 93.7752 123.805 93.3475 123.805 92.9203C123.805 92.0655 123.805 91.2107 123.805 90.57V89.5017V89.2875V89.074C123.805 88.8598 123.805 88.8598 123.805 88.8598V88.4327V87.792C123.805 87.5779 123.805 87.3643 123.805 87.1508C123.805 86.9372 123.805 86.7231 123.805 86.5095V85.8682V85.227C123.59 84.3727 123.59 83.5179 123.377 82.8767C122.522 79.6715 121.454 76.6794 119.744 73.9014C118.034 71.1233 116.111 68.7724 113.76 66.6357C111.409 64.4983 108.846 63.0028 106.068 61.7203C103.289 60.4384 100.511 59.7972 97.5193 59.3698C96.0232 59.1561 94.7413 59.1561 93.2452 59.1561H92.8181H92.6045H92.3904H92.1768H91.7497C91.5356 59.1561 91.322 59.1561 91.1084 59.1561C90.4672 59.1561 89.6124 59.3698 88.9717 59.3698C86.1937 59.7972 83.4151 60.8655 81.0648 62.3616C78.7139 63.8577 76.5771 65.5673 74.8675 67.4905C73.1578 69.4137 71.8753 71.7646 71.0205 74.1149C70.1656 76.4658 69.7385 78.8161 69.525 81.167C69.525 81.8083 69.525 82.2354 69.525 82.8767C69.525 83.0902 69.525 83.0902 69.525 83.3044V83.7315C69.525 83.945 69.525 84.3727 69.525 84.5863C69.7385 85.6547 69.9521 86.9372 70.1656 88.0056C70.8069 90.1423 71.8753 92.0655 72.9443 93.7752C74.2262 95.4848 75.7223 96.7673 77.2184 97.8351C78.7139 98.9041 80.4235 99.7589 82.1331 100.186C83.8428 100.614 85.3389 100.827 87.0479 100.827C87.2615 100.827 87.4756 100.827 87.6892 100.827H87.9027H88.1169C88.3304 100.827 88.544 100.827 88.544 100.827C88.544 100.827 88.544 100.827 88.7575 100.827H88.9717H89.1852C89.3988 100.827 89.6124 100.827 89.8265 100.827C90.0395 100.827 90.2536 100.827 90.4672 100.614C90.8943 100.614 91.1084 100.4 91.5356 100.4C92.1768 100.186 92.8181 99.9725 93.4593 99.5454C94.1 99.3312 94.5271 98.9041 95.1684 98.4764C95.3819 98.4764 95.3825 98.2634 95.5961 98.0493C96.2374 97.6222 96.2374 96.7673 95.8097 96.3396C95.3826 95.9125 94.7413 95.6984 94.3142 96.1261C94.1 96.1261 94.1 96.3396 93.8865 96.3396C93.4594 96.5532 93.0316 96.7673 92.3904 96.9803C91.9633 97.1945 91.322 97.1945 90.8943 97.408C90.6807 97.408 90.2536 97.408 90.0395 97.408C89.8265 97.408 89.8265 97.408 89.6124 97.408C89.3988 97.408 89.3988 97.408 89.1852 97.408C88.9717 97.408 88.9717 97.408 88.7575 97.408C88.544 97.408 88.3304 97.408 88.3304 97.408H88.1169H87.9027C87.6892 97.408 87.6892 97.408 87.4756 97.408C86.1937 97.1945 85.1247 96.9803 83.8428 96.3396C82.5602 95.9125 81.4919 95.0577 80.4229 94.2029C79.3551 93.3475 78.5003 92.0655 77.859 90.9972C77.2184 89.9288 76.5771 88.4327 76.3629 86.9372C76.1494 86.2959 76.1494 85.4411 76.1494 84.7999C76.1494 84.5863 76.1494 84.3728 76.1494 84.1592V83.945V83.7315C76.1494 83.3044 76.1494 82.8767 76.3629 82.449C77.0042 79.2438 78.5003 76.2523 81.0648 73.6878C81.706 73.0465 82.3467 72.6188 82.9879 71.9776C83.6286 71.5504 84.484 71.1233 85.1247 70.6956C85.9795 70.2685 86.8343 70.055 87.4756 69.8408C88.3304 69.6272 89.1852 69.4137 90.0395 69.4137C90.4672 69.4137 90.8943 69.4137 91.322 69.4137C91.5356 69.4137 91.5356 69.4137 91.5356 69.4137H91.9633H92.1768H92.6045C93.4594 69.4137 94.5271 69.6272 95.3819 69.8408C97.3057 70.2685 99.0148 70.9098 100.725 71.9776C104.144 73.9014 106.922 76.8935 108.846 80.3122C109.7 82.0218 110.342 83.945 110.769 85.8682C110.769 86.2959 110.982 86.9372 110.982 87.3643V87.792V88.2191C110.982 88.4327 110.982 88.4327 110.982 88.6468C110.982 88.8598 110.982 88.8598 110.982 89.074V89.5017V89.9288C110.982 90.1423 110.982 90.5694 110.982 90.7836C110.982 91.4249 110.982 91.852 110.769 92.4932C110.769 92.9204 110.555 93.5616 110.555 93.9887C110.555 94.4164 110.341 95.0577 110.127 95.4848C109.913 96.5532 109.486 97.6222 109.059 98.4764C108.204 100.4 107.136 102.323 105.853 104.247C103.289 107.666 99.8702 110.657 95.8097 112.367C93.8865 113.222 91.7497 113.863 89.6124 114.29C88.544 114.504 87.4756 114.504 86.4066 114.717H86.1937H85.9795H85.5518H85.1247H84.9111C84.2699 114.717 83.8428 114.717 83.2015 114.717C80.8512 114.504 78.5003 114.077 76.3629 113.435C74.2262 112.795 71.8753 111.939 69.9521 110.872C65.8921 108.734 62.2587 105.743 59.2672 102.109C57.7714 100.4 56.4891 98.4764 55.6344 96.3396C54.5658 94.2029 53.7111 92.0655 53.07 89.9288C52.4289 87.792 52.0015 85.4411 52.0015 83.3044V82.8767V82.6631V82.2354V80.9535V80.7393V80.3122V80.0986C52.0015 79.8851 52.0015 79.4574 52.0015 79.2438C52.0015 78.1755 52.2152 76.8935 52.2152 75.8245C52.4289 74.7562 52.6426 73.4736 52.8563 72.4059C53.07 71.3369 53.2837 70.055 53.711 68.986C54.3521 66.8492 55.207 64.7125 56.0618 62.5751C57.985 58.515 60.3355 54.8822 63.3277 52.104C63.9684 51.463 64.8232 50.6082 65.678 49.967C66.5328 49.326 67.3876 48.6849 68.2425 48.2575C69.0973 47.6164 69.9521 47.189 70.8069 46.7616C71.2346 46.5479 71.6617 46.3341 72.0894 46.1205C72.303 46.1205 72.5166 45.9067 72.7301 45.9067C72.9437 45.9067 73.1578 45.6931 73.3714 45.6931C74.2262 45.2657 75.2946 45.052 76.1494 44.6246C76.3629 44.6246 76.5771 44.4109 76.7907 44.4109C77.0042 44.4109 77.2184 44.1972 77.4313 44.1972C77.859 43.9835 78.5003 43.9835 78.9274 43.7698C79.141 43.7698 79.3551 43.5561 79.7822 43.5561C79.9958 43.5561 80.2099 43.5561 80.6371 43.3424C80.8512 43.3424 81.0648 43.3424 81.4919 43.1287H81.919H82.3467C82.5602 43.1287 82.7738 43.1287 83.2015 42.915C83.4151 42.915 83.8428 42.915 84.0563 42.7013C84.2699 42.7013 84.6976 42.7013 84.9111 42.7013C85.1247 42.7013 85.3389 42.7013 85.5518 42.7013H85.9795H86.1937H86.4066C86.6208 42.7013 87.0479 42.7013 87.2615 42.7013H87.6892H87.9027C88.1169 42.7013 88.3304 42.7013 88.544 42.7013C89.6124 42.7013 90.4672 42.7013 91.5356 42.7013C93.4593 42.7013 95.3819 42.915 97.3057 43.3424C100.939 43.9835 104.358 45.2657 107.564 46.7616C110.769 48.2575 113.547 50.1807 115.897 52.3177C116.111 52.5314 116.111 52.5314 116.325 52.7452C116.538 52.9589 116.538 52.9589 116.752 53.1725C116.966 53.3863 117.393 53.5999 117.607 54.0273C117.821 54.4547 118.248 54.4547 118.462 54.8822C118.676 55.3095 119.103 55.5233 119.317 55.7369C120.385 56.8054 121.24 57.8739 122.095 59.1561C123.805 61.2932 125.301 63.6435 126.368 65.7809C126.368 65.9944 126.583 65.9944 126.583 66.208C126.583 66.4221 126.796 66.4221 126.796 66.6357C127.01 66.8492 127.01 67.0628 127.223 67.4905C127.437 67.7041 127.437 67.9176 127.65 68.3453C127.865 68.5589 127.865 68.7724 128.078 69.2001C128.506 70.2685 128.933 71.1233 129.146 71.9776C129.574 73.4736 130.001 74.7562 130.215 75.8245C130.429 76.2523 130.856 76.6794 131.284 76.4658C131.711 76.4658 132.139 76.0387 132.139 75.6104C132.993 73.0465 132.993 71.5504 132.779 70.055Z" fill="url(#paint0_linear_7_39)"/>
                        </g>
                    </g>
                    <defs>
                        <linearGradient id="paint0_linear_7_39" x1="77.625" y1="169.67" x2="77.625" y2="30.489" gradientUnits="userSpaceOnUse">
                            <stop stop-color="#FFF100"/>
                            <stop offset="1" stop-color="#F05A28"/>
                        </linearGradient>
                        <clipPath id="clip0_7_39">
                            <rect width="154" height="154" fill="white"/>
                        </clipPath>
                        <clipPath id="clip1_7_39">
                            <rect width="154" height="154" fill="white"/>
                        </clipPath>
                    </defs>
                </svg>

            </g>
        </mask>

        <filter id="maskFilter">
            <feColorMatrix in="SourceGraphic" type="saturate" values="0" result="gray"/>
        </filter>
    </defs>

    <rect x="38" y="38" width="164" height="164" rx="40" ry="40" fill="rgba(0,0,0,1)" filter="url(#shadow3D)"/>

    <rect x="40" y="40" width="160" height="160" rx="40" ry="40" fill="#0D1117"/>

    <rect x="40" y="40" width="160" height="160" rx="40" ry="40" fill="transparent" stroke="url(#gradient)" stroke-width="6" filter="url(#glow)"/>

    <rect x="40" y="40" width="160" height="160" rx="40" ry="40" fill="url(#gradient)" mask="url(#lightMask)"/>
</svg>