<svg xmlns="http://www.w3.org/2000/svg" width="320" height="320" viewBox="0 0 240 240" overflow="visible">
    <defs>
        <linearGradient id="gradient" x1="0%" y1="0%" x2="100%" y2="100%">
            <stop offset="0%" stop-color="#009BFF">
                <animate attributeName="stop-color" values="#009BFF;#FF3A76;#FFB200;#6A5CFF;#009BFF" dur="6s" repeatCount="indefinite" keyTimes="0;0.25;0.5;0.75;1" calcMode="linear"/>
            </stop>
            <stop offset="25%" stop-color="#FF3A76">
                <animate attributeName="stop-color" values="#FF3A76;#FFB200;#6A5CFF;#009BFF;#FF3A76" dur="6s" repeatCount="indefinite" keyTimes="0;0.25;0.5;0.75;1" calcMode="linear"/>
            </stop>
            <stop offset="50%" stop-color="#FFB200">
                <animate attributeName="stop-color" values="#FFB200;#6A5CFF;#009BFF;#FF3A76;#FFB200" dur="6s" repeatCount="indefinite" keyTimes="0;0.25;0.5;0.75;1" calcMode="linear"/>
            </stop>
            <stop offset="75%" stop-color="#6A5CFF">
                <animate attributeName="stop-color" values="#6A5CFF;#009BFF;#FF3A76;#FFB200;#6A5CFF" dur="6s" repeatCount="indefinite" keyTimes="0;0.25;0.5;0.75;1" calcMode="linear"/>
            </stop>
            <stop offset="100%" stop-color="#009BFF">
                <animate attributeName="stop-color" values="#009BFF;#FF3A76;#FFB200;#6A5CFF;#009BFF" dur="6s" repeatCount="indefinite" keyTimes="0;0.25;0.5;0.75;1" calcMode="linear"/>
            </stop>
        </linearGradient>

        <filter id="shadow3D" x="-60%" y="-60%" width="220%" height="220%">
            <feGaussianBlur in="SourceAlpha" stdDeviation="12" result="blur"/>
            <feOffset in="blur" dx="0" dy="0" result="offsetBlur"/>
            <feMerge>
                <feMergeNode in="offsetBlur"/>
                <feMergeNode in="SourceGraphic"/>
            </feMerge>
        </filter>

        <filter id="glow" x="-200%" y="-200%" width="400%" height="400%">
            <feGaussianBlur in="SourceGraphic" stdDeviation="6" result="blur1"/>
            <feGaussianBlur in="SourceGraphic" stdDeviation="12" result="blur2"/>
            <feGaussianBlur in="SourceGraphic" stdDeviation="18" result="blur3"/>
            <feMerge>
                <feMergeNode in="blur1"/>
                <feMergeNode in="blur2"/>
                <feMergeNode in="blur3"/>
                <feMergeNode in="SourceGraphic"/>
            </feMerge>
        </filter>

        <mask id="lightMask" maskUnits="userSpaceOnUse">
            <g filter="url(#maskFilter)">
                <svg width="154" height="154" x="43" y="43" viewBox="0 0 154 154" fill="none" xmlns="http://www.w3.org/2000/svg">
                    <g clip-path="url(#clip0_7_295)">
                        <mask id="mask0_7_295" style="mask-type:luminance" maskUnits="userSpaceOnUse" x="0" y="0" width="154" height="154">
                            <path d="M154 0H0V154H154V0Z" fill="white"/>
                        </mask>
                        <g mask="url(#mask0_7_295)">
                            <mask id="mask1_7_295" style="mask-type:luminance" maskUnits="userSpaceOnUse" x="0" y="0" width="154" height="154">
                                <path d="M154 0H0V154H154V0Z" fill="white"/>
                            </mask>
                            <g mask="url(#mask1_7_295)">
                                <path d="M28.792 105.99L33.2087 108.541L82.4123 23.3204L77.9956 20.7704L28.792 105.99Z" fill="white"/>
                                <path d="M126.187 99.1826H27.7807V104.283H126.187V99.1826Z" fill="white"/>
                                <path d="M29.7278 102.047L78.9497 130.466L81.4997 126.05L32.2779 97.6306L29.7278 102.047Z" fill="white"/>
                                <path d="M72.4871 27.9799L121.709 56.399L124.259 51.9823L75.0371 23.5633L72.4871 27.9799Z" fill="white"/>
                                <path d="M29.7415 51.9628L32.2915 56.3795L81.5135 27.9604L78.9635 23.5437L29.7415 51.9628Z" fill="white"/>
                                <path d="M71.598 23.3211L120.801 108.541L125.218 105.991L76.0146 20.771L71.598 23.3211Z" fill="white"/>
                                <path d="M36.7825 48.5808H31.6825V105.419H36.7825V48.5808Z" fill="white"/>
                                <path d="M122.316 48.5808H117.216V105.419H122.316V48.5808Z" fill="white"/>
                                <path d="M75.854 124.449L78.0816 128.308L120.891 103.591L118.664 99.733L75.854 124.449Z" fill="white"/>
                                <path d="M129.075 107.078C126.126 112.209 119.551 113.96 114.42 111.011C109.289 108.061 107.538 101.487 110.488 96.3559C113.437 91.2245 120.012 89.4734 125.143 92.4229C130.304 95.403 132.056 101.947 129.075 107.078Z" fill="white"/>
                                <path d="M43.4803 57.6444C40.5308 62.7749 33.956 64.5266 28.8253 61.5771C23.6945 58.6275 21.9433 52.0527 24.8927 46.9219C27.8421 41.7911 34.4169 40.0399 39.5477 42.9893C44.6785 45.9695 46.4297 52.5136 43.4803 57.6444Z" fill="white"/>
                                <path d="M24.9233 107.078C21.9739 101.947 23.7251 95.403 28.8559 92.4229C33.9867 89.4734 40.5308 91.2245 43.511 96.3559C46.4604 101.487 44.7092 108.03 39.5784 111.011C34.4168 113.96 27.8728 112.209 24.9233 107.078Z" fill="white"/>
                                <path d="M110.518 57.6444C107.569 52.5136 109.32 45.9695 114.451 42.9893C119.582 40.0399 126.126 41.7911 129.106 46.9219C132.056 52.0527 130.304 58.5968 125.174 61.5771C120.043 64.5266 113.468 62.7749 110.518 57.6444Z" fill="white"/>
                                <path d="M76.9994 137.156C71.0698 137.156 66.2772 132.364 66.2772 126.434C66.2772 120.504 71.0698 115.711 76.9994 115.711C82.929 115.711 87.7217 120.504 87.7217 126.434C87.7217 132.333 82.929 137.156 76.9994 137.156Z" fill="white"/>
                                <path d="M76.9994 38.2886C71.0698 38.2886 66.2772 33.4958 66.2772 27.5662C66.2772 21.6366 71.0698 16.8438 76.9994 16.8438C82.929 16.8438 87.7217 21.6366 87.7217 27.5662C87.7217 33.4958 82.929 38.2886 76.9994 38.2886Z" fill="white"/>
                            </g>
                        </g>
                    </g>
                    <defs>
                        <clipPath id="clip0_7_295">
                            <rect width="154" height="154" fill="white"/>
                        </clipPath>
                    </defs>
                </svg>
            </g>
        </mask>

        <filter id="maskFilter">
            <feColorMatrix in="SourceGraphic" type="saturate" values="0" result="gray"/>
        </filter>
    </defs>

    <rect x="38" y="38" width="164" height="164" rx="40" ry="40" fill="rgba(0,0,0,1)" filter="url(#shadow3D)"/>

    <rect x="40" y="40" width="160" height="160" rx="40" ry="40" fill="#0D1117"/>

    <rect x="40" y="40" width="160" height="160" rx="40" ry="40" fill="transparent" stroke="url(#gradient)" stroke-width="6" filter="url(#glow)"/>

    <rect x="40" y="40" width="160" height="160" rx="40" ry="40" fill="url(#gradient)" mask="url(#lightMask)"/>
</svg>