<svg width="158" height="158" viewBox="0 0 158 158" fill="none" xmlns="http://www.w3.org/2000/svg">
    <g filter="url(#filter0_d_4_172)">
        <rect x="15" y="15" width="128" height="128" fill="#0D1117"/>
        <rect x="16" y="16" width="126" height="126" stroke="#C9D1D9" stroke-width="2"/>
        <path d="M50.7652 58.3134L45.9457 63.1682L50.8015 67.9877L55.62 63.132L50.7652 58.3134Z" fill="#C9D1D9"/>
        <path d="M28.2166 55L20 63.2789L28.3086 71.4955L36.4936 63.2175L28.2166 55Z" fill="#C9D1D9"/>
        <path d="M32.8185 58.2446L28.5792 58.2613L23.6035 63.2742L28.6154 68.2499L32.8557 68.2341L28.41 63.8227L50.3682 63.7409L48.4438 65.6784L50.5635 65.671L53.0513 63.1645L50.5449 60.6767L48.4252 60.685L50.3636 62.6086L28.4053 62.6894L32.8185 58.2446ZM127.371 60.4052C125.032 60.4052 122.864 60.8208 120.866 61.6491C118.869 62.4775 117.138 63.6238 115.673 65.089C114.208 66.5532 113.061 68.2927 112.233 70.3045C111.403 72.3173 110.99 74.5216 110.99 76.9183C110.99 79.316 111.403 81.5212 112.232 83.534C113.06 85.5458 114.208 87.2843 115.673 88.7495C117.138 90.2147 118.869 91.3619 120.866 92.1894C122.864 93.0168 125.031 93.4324 127.371 93.4324C128.672 93.4324 129.907 93.2836 131.076 92.9889C132.207 92.7074 133.302 92.2979 134.339 91.7682C135.311 91.2739 136.214 90.6544 137.025 89.9256C137.774 89.2553 138.438 88.4949 139 87.6618L136.381 85.7978C135.789 86.7154 135.146 87.4777 134.451 88.0839C133.786 88.6708 133.038 89.157 132.231 89.5267C131.446 89.8819 130.648 90.1329 129.834 90.2807C129.021 90.4288 128.197 90.5032 127.371 90.5029C125.358 90.5029 123.552 90.1338 121.954 89.3929C120.355 88.6538 119.002 87.6618 117.892 86.4179C116.783 85.1758 115.931 83.7338 115.339 82.0911C114.745 80.4316 114.445 78.6811 114.453 76.9183C114.453 75.1147 114.748 73.3892 115.339 71.7474C115.932 70.1046 116.783 68.6618 117.892 67.4188C119.002 66.1758 120.356 65.1847 121.954 64.4447C123.552 63.7056 125.357 63.3356 127.371 63.3356C128.198 63.3356 129.027 63.4536 129.857 63.6907C130.684 63.9278 131.461 64.2392 132.186 64.6232C132.911 65.0081 133.555 65.4515 134.117 65.9545C134.68 66.4584 135.123 66.9604 135.45 67.4634L138.245 65.3772C136.854 63.6015 135.183 62.3297 133.229 61.5589C131.277 60.7901 129.324 60.4052 127.371 60.4052ZM60.8728 61.2047V92.6337H64.069V78.0284H69.3962L78.0079 92.6337H81.9144L72.8583 77.7178C75.4614 77.4817 77.4538 76.6152 78.8297 75.1212C80.2056 73.6272 80.8936 71.7855 80.8936 69.5952C80.8936 66.7838 79.9686 64.6827 78.1194 63.291C76.2693 61.9001 73.7462 61.2047 70.5499 61.2047H60.8728ZM87.4181 61.2047V92.6337H90.6153V78.0284H96.5635C99.7588 78.0284 102.282 77.3255 104.131 75.9198C105.981 74.5151 106.905 72.4065 106.905 69.5952C106.905 66.7838 105.981 64.6827 104.132 63.291C102.282 61.9001 99.7588 61.2047 96.5635 61.2047H87.4181ZM64.069 64.1351H69.7513C71.1719 64.1351 72.3767 64.2746 73.3687 64.5553C74.3598 64.837 75.1519 65.2294 75.7441 65.7323C76.3353 66.2362 76.7649 66.82 77.0308 67.4857C77.2976 68.1514 77.4305 68.8551 77.4305 69.5952C77.4305 70.3649 77.2976 71.0817 77.0308 71.7474C76.756 72.4244 76.3132 73.0202 75.7441 73.4785C75.1519 73.9666 74.3598 74.3598 73.3687 74.6555C72.3767 74.9511 71.1719 75.0989 69.7513 75.0989H64.069V64.1351ZM90.6153 64.1351H95.764C97.1845 64.1351 98.3894 64.2746 99.3814 64.5553C100.372 64.837 101.165 65.2294 101.757 65.7323C102.348 66.2362 102.778 66.82 103.044 67.4857C103.312 68.1567 103.448 68.8729 103.444 69.5952C103.444 70.3649 103.31 71.0817 103.044 71.7474C102.769 72.4245 102.326 73.0203 101.757 73.4785C101.165 73.9666 100.372 74.3598 99.3814 74.6555C98.3894 74.9511 97.1845 75.0989 95.764 75.0989H90.6153V64.1351ZM41.0751 71.3253C39.5365 71.3253 38.1224 71.5996 36.8357 72.1472C35.5807 72.6729 34.4475 73.4514 33.5065 74.4342C32.5651 75.4244 31.8194 76.5836 31.3087 77.8508C30.776 79.1533 30.5092 80.559 30.5092 82.0688C30.5092 83.5777 30.7909 84.9843 31.3533 86.2858C31.8874 87.5479 32.6724 88.6882 33.6608 89.6374C34.6574 90.582 35.8253 91.3277 37.1016 91.8342C38.418 92.3669 39.8321 92.6337 41.341 92.6337C42.8225 92.6396 44.289 92.3373 45.6473 91.7459C47.0084 91.1546 48.1621 90.1468 49.1094 88.7272H49.1978V92.4562C49.1978 93.5811 49.0583 94.6382 48.7775 95.6301C48.5145 96.5861 48.0444 97.4726 47.4007 98.2267C46.7638 98.9658 45.9281 99.5516 44.8924 99.9811C43.8558 100.409 42.5988 100.623 41.1188 100.623C39.4323 100.623 37.9002 100.276 36.5243 99.5813C35.1483 98.8859 34.0308 97.9609 33.1727 96.8062L30.9973 99.1146C32.3295 100.535 33.8096 101.585 35.4375 102.266C37.0644 102.947 38.9145 103.287 40.9858 103.287C43.3231 103.287 45.2178 102.933 46.6681 102.223C48.1184 101.512 49.2498 100.623 50.0642 99.559C50.8628 98.525 51.4234 97.3277 51.7061 96.0522C51.9878 94.7785 52.1281 93.5811 52.1281 92.4562V71.858H49.1978V75.3211H49.1094C48.5172 74.5216 47.8823 73.8634 47.2008 73.3455C46.5658 72.855 45.8726 72.445 45.1369 72.1248C44.4678 71.837 43.7673 71.6282 43.0497 71.5029C42.3976 71.3889 41.7371 71.3289 41.0751 71.3253ZM41.4302 73.9889C42.6435 73.9889 43.7386 74.2046 44.7148 74.6331C45.691 75.0617 46.5203 75.6391 47.2008 76.3642C47.8844 77.0939 48.4131 77.9544 48.7552 78.8939C49.1151 79.8828 49.2955 80.9281 49.2879 81.9805C49.3158 83.1937 49.1318 84.2879 48.732 85.2641C48.3507 86.2143 47.7677 87.0704 47.0232 87.7733C46.2824 88.4694 45.4165 89.0189 44.4712 89.3929C43.504 89.7786 42.4715 89.9743 41.4302 89.9693C40.3351 89.9693 39.3208 89.7554 38.3892 89.3278C37.473 88.9104 36.6445 88.3226 35.9479 87.5958C35.2467 86.8625 34.6895 86.0041 34.3051 85.0652C33.902 84.0867 33.6981 83.0377 33.7055 81.9795C33.7055 80.8853 33.9063 79.8561 34.3051 78.8939C34.69 77.9558 35.2472 77.0981 35.9479 76.3652C36.6449 75.6387 37.4733 75.051 38.3892 74.6331C39.3208 74.2046 40.3351 73.9889 41.4293 73.9889H41.4302Z" fill="#7F5AF0"/>
    </g>
    <defs>
        <filter id="filter0_d_4_172" x="0" y="0" width="158" height="158" filterUnits="userSpaceOnUse" color-interpolation-filters="sRGB">
            <feFlood flood-opacity="0" result="BackgroundImageFix"/>
            <feColorMatrix in="SourceAlpha" type="matrix" values="0 0 0 0 0 0 0 0 0 0 0 0 0 0 0 0 0 0 127 0" result="hardAlpha"/>
            <feMorphology radius="5" operator="dilate" in="SourceAlpha" result="effect1_dropShadow_4_172"/>
            <feOffset/>
            <feGaussianBlur stdDeviation="5"/>
            <feComposite in2="hardAlpha" operator="out"/>
            <feColorMatrix type="matrix" values="0 0 0 0 0.498039 0 0 0 0 0.352941 0 0 0 0 0.941176 0 0 0 0.25 0"/>
            <feBlend mode="normal" in2="BackgroundImageFix" result="effect1_dropShadow_4_172"/>
            <feBlend mode="normal" in="SourceGraphic" in2="effect1_dropShadow_4_172" result="shape"/>
        </filter>
    </defs>
</svg>
