<svg xmlns="http://www.w3.org/2000/svg" width="320" height="320" viewBox="0 0 240 240" overflow="visible">
    <defs>
        <linearGradient id="gradient" x1="0%" y1="0%" x2="100%" y2="100%">
            <stop offset="0%" stop-color="#009BFF">
                <animate attributeName="stop-color" values="#009BFF;#FF3A76;#FFB200;#6A5CFF;#009BFF" dur="6s" repeatCount="indefinite" keyTimes="0;0.25;0.5;0.75;1" calcMode="linear"/>
            </stop>
            <stop offset="25%" stop-color="#FF3A76">
                <animate attributeName="stop-color" values="#FF3A76;#FFB200;#6A5CFF;#009BFF;#FF3A76" dur="6s" repeatCount="indefinite" keyTimes="0;0.25;0.5;0.75;1" calcMode="linear"/>
            </stop>
            <stop offset="50%" stop-color="#FFB200">
                <animate attributeName="stop-color" values="#FFB200;#6A5CFF;#009BFF;#FF3A76;#FFB200" dur="6s" repeatCount="indefinite" keyTimes="0;0.25;0.5;0.75;1" calcMode="linear"/>
            </stop>
            <stop offset="75%" stop-color="#6A5CFF">
                <animate attributeName="stop-color" values="#6A5CFF;#009BFF;#FF3A76;#FFB200;#6A5CFF" dur="6s" repeatCount="indefinite" keyTimes="0;0.25;0.5;0.75;1" calcMode="linear"/>
            </stop>
            <stop offset="100%" stop-color="#009BFF">
                <animate attributeName="stop-color" values="#009BFF;#FF3A76;#FFB200;#6A5CFF;#009BFF" dur="6s" repeatCount="indefinite" keyTimes="0;0.25;0.5;0.75;1" calcMode="linear"/>
            </stop>
        </linearGradient>

        <filter id="shadow3D" x="-60%" y="-60%" width="220%" height="220%">
            <feGaussianBlur in="SourceAlpha" stdDeviation="12" result="blur"/>
            <feOffset in="blur" dx="0" dy="0" result="offsetBlur"/>
            <feMerge>
                <feMergeNode in="offsetBlur"/>
                <feMergeNode in="SourceGraphic"/>
            </feMerge>
        </filter>

        <filter id="glow" x="-200%" y="-200%" width="400%" height="400%">
            <feGaussianBlur in="SourceGraphic" stdDeviation="6" result="blur1"/>
            <feGaussianBlur in="SourceGraphic" stdDeviation="12" result="blur2"/>
            <feGaussianBlur in="SourceGraphic" stdDeviation="18" result="blur3"/>
            <feMerge>
                <feMergeNode in="blur1"/>
                <feMergeNode in="blur2"/>
                <feMergeNode in="blur3"/>
                <feMergeNode in="SourceGraphic"/>
            </feMerge>
        </filter>

        <mask id="lightMask" maskUnits="userSpaceOnUse">
            <g filter="url(#maskFilter)">
                <svg width="154" height="154" x="43" y="43" viewBox="0 0 154 154" fill="none" xmlns="http://www.w3.org/2000/svg">
                    <g clip-path="url(#clip0_7_65)">
                        <g clip-path="url(#clip1_7_65)">
                            <path d="M117.906 0H36.0938C16.1597 0 0 16.1597 0 36.0938V117.906C0 137.84 16.1597 154 36.0938 154H117.906C137.84 154 154 137.84 154 117.906V36.0938C154 16.1597 137.84 0 117.906 0Z" fill="black"/>
                            <mask id="mask0_7_65" style="mask-type:luminance" maskUnits="userSpaceOnUse" x="39" y="16" width="75" height="122">
                                <path d="M113.719 16.8438H39.7031V137.156H113.719V16.8438Z" fill="white"/>
                            </mask>
                            <g mask="url(#mask0_7_65)">
                                <path d="M98.0535 83.4229C93.3733 83.4229 89.178 85.4965 86.305 88.7606L78.943 83.5486C79.7245 81.3974 80.1732 79.0868 80.1732 76.6685C80.1732 74.2924 79.7401 72.0203 78.9846 69.901L86.3296 64.7444C89.2027 67.9916 93.3872 70.0538 98.0535 70.0538C106.691 70.0538 113.719 63.0269 113.719 54.3879C113.719 45.7491 106.691 38.7219 98.0535 38.7219C89.4156 38.7219 82.3876 45.7491 82.3876 54.3879C82.3876 55.9341 82.621 57.4252 83.0403 58.8373L75.6898 63.9966C72.6194 60.1869 68.1979 57.5275 63.1611 56.7157V47.8568C70.2571 46.3664 75.6044 40.0614 75.6044 32.5277C75.6044 23.8889 68.5757 16.8617 59.9382 16.8617C51.3005 16.8617 44.2722 23.8889 44.2722 32.5277C44.2722 39.9605 49.4805 46.1877 56.4349 47.7846V56.7584C46.944 58.4244 39.7031 66.7073 39.7031 76.6685C39.7031 86.6785 47.0157 94.9915 56.5751 96.6007V106.077C49.5496 107.621 44.2722 113.886 44.2722 121.369C44.2722 130.008 51.3005 137.036 59.9382 137.036C68.5757 137.036 75.6044 130.008 75.6044 121.369C75.6044 113.886 70.3269 107.621 63.3012 106.077V96.6007C68.1396 95.7856 72.5172 93.2398 75.6182 89.4373L83.0295 94.6829C82.618 96.0822 82.3876 97.5584 82.3876 99.0894C82.3876 107.728 89.4156 114.755 98.0535 114.755C106.691 114.755 113.719 107.728 113.719 99.0894C113.719 90.4503 106.691 83.4229 98.0535 83.4229ZM98.0535 46.7923C102.242 46.7923 105.649 50.2005 105.649 54.3879C105.649 58.5753 102.242 61.9832 98.0535 61.9832C93.8648 61.9832 90.4582 58.5753 90.4582 54.3879C90.4582 50.2005 93.8648 46.7923 98.0535 46.7923ZM52.3426 32.5277C52.3426 28.3403 55.7496 24.9324 59.9382 24.9324C64.1266 24.9324 67.5338 28.3403 67.5338 32.5277C67.5338 36.7151 64.1266 40.123 59.9382 40.123C55.7496 40.123 52.3426 36.7151 52.3426 32.5277ZM67.5338 121.369C67.5338 125.557 64.1266 128.965 59.9382 128.965C55.7496 128.965 52.3426 125.557 52.3426 121.369C52.3426 117.183 55.7496 113.774 59.9382 113.774C64.1266 113.774 67.5338 117.183 67.5338 121.369ZM59.9376 87.2615C54.0958 87.2615 49.3435 82.5103 49.3435 76.6685C49.3435 70.8268 54.0958 66.0744 59.9376 66.0744C65.7791 66.0744 70.5314 70.8268 70.5314 76.6685C70.5314 82.5103 65.7791 87.2615 59.9376 87.2615ZM98.0535 106.685C93.8648 106.685 90.4582 103.276 90.4582 99.0894C90.4582 94.9019 93.8648 91.494 98.0535 91.494C102.242 91.494 105.649 94.9019 105.649 99.0894C105.649 103.276 102.242 106.685 98.0535 106.685Z" fill="white"/>
                            </g>
                        </g>
                    </g>
                    <defs>
                        <clipPath id="clip0_7_65">
                            <rect width="154" height="154" fill="white"/>
                        </clipPath>
                        <clipPath id="clip1_7_65">
                            <rect width="154" height="154" fill="white"/>
                        </clipPath>
                    </defs>
                </svg>

            </g>
        </mask>

        <filter id="maskFilter">
            <feColorMatrix in="SourceGraphic" type="saturate" values="0" result="gray"/>
            <feColorMatrix in="gray" type="luminanceToAlpha" result="lum"/>
            <feComponentTransfer in="lum" result="maskLight">
                <feFuncA type="discrete" tableValues="0 1"/>
            </feComponentTransfer>
            <feFlood flood-color="white" result="fill"/>
            <feComposite in="fill" in2="maskLight" operator="in"/>
        </filter>
    </defs>

    <rect x="38" y="38" width="164" height="164" rx="40" ry="40" fill="rgba(0,0,0,1)" filter="url(#shadow3D)"/>

    <rect x="40" y="40" width="160" height="160" rx="40" ry="40" fill="#0D1117"/>

    <rect x="40" y="40" width="160" height="160" rx="40" ry="40" fill="url(#gradient)" mask="url(#lightMask)"/>

    <rect x="40" y="40" width="160" height="160" rx="40" ry="40" fill="transparent" stroke="url(#gradient)" stroke-width="6" filter="url(#glow)"/>
</svg>