<svg xmlns="http://www.w3.org/2000/svg" width="320" height="320" viewBox="0 0 240 240" overflow="visible">
    <defs>
        <linearGradient id="gradient" x1="0%" y1="0%" x2="100%" y2="100%">
            <stop offset="0%" stop-color="#009BFF">
                <animate attributeName="stop-color" values="#009BFF;#FF3A76;#FFB200;#6A5CFF;#009BFF" dur="6s" repeatCount="indefinite" keyTimes="0;0.25;0.5;0.75;1" calcMode="linear"/>
            </stop>
            <stop offset="25%" stop-color="#FF3A76">
                <animate attributeName="stop-color" values="#FF3A76;#FFB200;#6A5CFF;#009BFF;#FF3A76" dur="6s" repeatCount="indefinite" keyTimes="0;0.25;0.5;0.75;1" calcMode="linear"/>
            </stop>
            <stop offset="50%" stop-color="#FFB200">
                <animate attributeName="stop-color" values="#FFB200;#6A5CFF;#009BFF;#FF3A76;#FFB200" dur="6s" repeatCount="indefinite" keyTimes="0;0.25;0.5;0.75;1" calcMode="linear"/>
            </stop>
            <stop offset="75%" stop-color="#6A5CFF">
                <animate attributeName="stop-color" values="#6A5CFF;#009BFF;#FF3A76;#FFB200;#6A5CFF" dur="6s" repeatCount="indefinite" keyTimes="0;0.25;0.5;0.75;1" calcMode="linear"/>
            </stop>
            <stop offset="100%" stop-color="#009BFF">
                <animate attributeName="stop-color" values="#009BFF;#FF3A76;#FFB200;#6A5CFF;#009BFF" dur="6s" repeatCount="indefinite" keyTimes="0;0.25;0.5;0.75;1" calcMode="linear"/>
            </stop>
        </linearGradient>

        <filter id="shadow3D" x="-60%" y="-60%" width="220%" height="220%">
            <feGaussianBlur in="SourceAlpha" stdDeviation="12" result="blur"/>
            <feOffset in="blur" dx="0" dy="0" result="offsetBlur"/>
            <feMerge>
                <feMergeNode in="offsetBlur"/>
                <feMergeNode in="SourceGraphic"/>
            </feMerge>
        </filter>

        <filter id="glow" x="-200%" y="-200%" width="400%" height="400%">
            <feGaussianBlur in="SourceGraphic" stdDeviation="6" result="blur1"/>
            <feGaussianBlur in="SourceGraphic" stdDeviation="12" result="blur2"/>
            <feGaussianBlur in="SourceGraphic" stdDeviation="18" result="blur3"/>
            <feMerge>
                <feMergeNode in="blur1"/>
                <feMergeNode in="blur2"/>
                <feMergeNode in="blur3"/>
                <feMergeNode in="SourceGraphic"/>
            </feMerge>
        </filter>

        <mask id="lightMask" maskUnits="userSpaceOnUse">
            <g filter="url(#maskFilter)">
                <svg width="154" height="154" x="43" y="43" viewBox="0 0 154 154" fill="none" xmlns="http://www.w3.org/2000/svg">
                    <g clip-path="url(#clip0_7_345)">
                        <g clip-path="url(#clip1_7_345)">
                            <path d="M117.906 0H36.0938C16.1597 0 0 16.1597 0 36.0938V117.906C0 137.84 16.1597 154 36.0938 154H117.906C137.84 154 154 137.84 154 117.906V36.0938C154 16.1597 137.84 0 117.906 0Z" fill="black"/>
                            <path d="M77.0439 18.0469C75.0726 18.1855 73.5789 19.8742 73.6818 21.8453V22.8103C73.7738 23.9037 73.938 24.9867 74.154 26.0596C74.4686 28.114 74.5817 30.1941 74.4927 32.2706C74.2972 32.9532 73.9074 33.5692 73.3738 34.0415L73.2968 35.489C71.2178 35.6635 69.1544 35.9817 67.1217 36.4437C58.5698 38.3737 50.7829 42.8087 44.7721 49.1993L43.5402 48.3267C42.8627 48.5321 42.1337 48.4551 41.5127 48.1214C39.8465 46.8882 38.3045 45.4957 36.9083 43.9636C36.207 43.1257 35.458 42.3287 34.6652 41.5768L33.9055 40.9711C33.2279 40.427 32.3964 40.1139 31.5289 40.0728C31.0112 40.0454 30.4943 40.1408 30.0207 40.3513C29.5469 40.5619 29.1298 40.8815 28.8032 41.2842C27.6432 42.9114 28.023 45.1648 29.6451 46.33L30.3534 46.8946C31.2652 47.5013 32.2113 48.0549 33.1869 48.5526C35.004 49.5638 36.7184 50.7496 38.3097 52.1457C38.7167 52.7262 38.9532 53.4089 38.9923 54.1168L40.1113 55.1434C34.0697 64.2084 31.5905 75.1881 33.1407 85.9723L31.7034 86.3832C31.3287 86.9787 30.8308 87.487 30.2354 87.8612C28.2301 88.3972 26.1775 88.7359 24.1065 88.8724C23.0074 88.8953 21.9105 88.9807 20.8213 89.1293L19.9128 89.3344H19.8101C19.1796 89.4223 18.5858 89.6827 18.0947 90.0882C17.6036 90.493 17.2346 91.026 17.0287 91.6288C16.8228 92.231 16.788 92.8788 16.9284 93.4997C17.0687 94.1205 17.3787 94.6901 17.8236 95.1455C18.2728 95.5979 18.839 95.9173 19.459 96.0665C20.079 96.2163 20.7285 96.1904 21.3347 95.9919H21.4014L22.3253 95.8897C23.3673 95.5817 24.394 95.2015 25.3949 94.7708C27.3198 94.0008 29.3165 93.41 31.3595 93.0256C32.0679 93.0665 32.7454 93.3078 33.3203 93.718L34.8602 93.4618C38.1967 103.815 45.2084 112.587 54.5712 118.116L53.9449 119.425C54.2324 120.025 54.3402 120.693 54.2529 121.354C53.4059 123.315 52.3691 125.194 51.1577 126.96C50.4931 127.836 49.8796 128.749 49.32 129.696L48.8837 130.62C48.5671 131.169 48.4085 131.795 48.4253 132.429C48.4421 133.062 48.6337 133.679 48.9789 134.21C49.324 134.742 49.8094 135.168 50.3815 135.441C50.9534 135.714 51.5898 135.824 52.2202 135.758C52.8521 135.687 53.4519 135.442 53.953 135.051C54.4541 134.659 54.8369 134.136 55.0588 133.54L55.4848 132.668C55.8749 131.641 56.2034 130.594 56.4704 129.537C57.3789 127.294 57.8717 124.886 59.1139 123.397C59.5199 123.016 60.0315 122.766 60.5822 122.679L61.3522 121.277C71.5011 125.179 82.7317 125.206 92.8999 121.354L93.5821 122.663C94.2805 122.766 94.9067 123.151 95.3278 123.716C96.2927 125.553 97.0729 127.478 97.6685 129.465C97.9398 130.528 98.2725 131.576 98.6641 132.601L99.09 133.473C99.3144 134.067 99.6982 134.588 100.199 134.976C100.7 135.365 101.3 135.608 101.931 135.678C102.561 135.747 103.199 135.641 103.773 135.371C104.347 135.101 104.835 134.677 105.183 134.146C105.528 133.612 105.718 132.994 105.732 132.359C105.747 131.724 105.585 131.097 105.265 130.548L104.819 129.624C104.259 128.681 103.646 127.771 102.981 126.898C101.801 125.194 100.784 123.377 99.9009 121.473C99.8185 121.125 99.807 120.763 99.8672 120.411C99.9274 120.058 100.057 119.721 100.25 119.419C100.031 118.972 99.8407 118.511 99.6801 118.039C109.022 112.469 116.004 103.666 119.304 93.2975L120.762 93.5538C121.285 93.0768 121.973 92.8253 122.677 92.8458C124.714 93.2356 126.711 93.872 128.641 94.5909C129.642 95.0529 130.668 95.4427 131.71 95.7718C131.957 95.8385 132.316 95.8945 132.593 95.9613H132.66C133.266 96.1574 133.914 96.1808 134.533 96.0298C135.151 95.8788 135.716 95.5588 136.163 95.1064C136.611 94.6535 136.924 94.085 137.068 93.4648C137.211 92.8446 137.18 92.1967 136.977 91.5933C136.769 90.9905 136.399 90.457 135.906 90.0527C135.412 89.6485 134.817 89.3892 134.185 89.3038L133.189 89.0679C132.1 88.9194 131.003 88.8333 129.904 88.8111C127.83 88.6775 125.777 88.3389 123.775 87.7999C123.159 87.4558 122.645 86.9426 122.296 86.3218L120.91 85.9109C122.388 75.1315 119.857 64.1849 113.796 55.1485L115.008 54.0296C114.956 53.3263 115.187 52.6282 115.644 52.0892C117.22 50.7342 118.93 49.5381 120.726 48.5167C121.702 48.0187 122.647 47.4651 123.559 46.8586L124.309 46.253C124.86 45.9105 125.304 45.4188 125.588 44.8348C125.872 44.2507 125.985 43.5982 125.914 42.9527C125.842 42.3072 125.589 41.6951 125.185 41.1873C124.78 40.6795 124.239 40.2966 123.626 40.0831C123.014 39.8698 122.352 39.8341 121.72 39.9804C121.089 40.1266 120.51 40.4487 120.053 40.9095L119.294 41.5152C118.501 42.2673 117.752 43.0642 117.051 43.902C115.696 45.4522 114.196 46.8638 112.569 48.1266C111.913 48.3939 111.195 48.4721 110.496 48.3524L109.197 49.2763C101.703 41.4228 91.6059 36.5464 80.7856 35.5711C80.7856 35.0578 80.7189 34.2879 80.7086 34.0466C80.1287 33.6462 79.7233 33.0354 79.5897 32.3424C79.5181 30.2695 79.6493 28.1945 79.9795 26.1469C80.2003 25.0689 80.3543 23.991 80.4518 22.8976V21.871C80.5546 19.8999 79.0658 18.2112 77.0896 18.0726L77.0439 18.0469ZM72.7626 44.5642L71.7363 62.4939H71.6593C71.6076 63.6026 70.9561 64.5471 69.9551 65.0812C68.9541 65.6148 67.7684 65.456 66.8751 64.8039L52.1689 54.3837C56.8497 49.7862 62.7219 46.5878 69.1231 45.1494C70.3245 44.8927 71.536 44.6977 72.7524 44.5642H72.7626ZM81.3246 44.5642C89.0499 45.5241 96.241 48.994 101.805 54.4402L87.238 64.7937C86.3399 65.512 85.1079 65.6557 84.0653 65.1631C83.0234 64.6704 82.3563 63.6231 82.3407 62.4735L81.3246 44.5642ZM46.8305 61.1284L60.279 73.1295V73.2065C61.1157 73.9356 61.4803 75.0702 61.2336 76.153C60.9876 77.2358 60.1559 78.093 59.0933 78.386V78.4371L41.836 83.4006C40.9821 75.626 42.7411 67.7877 46.8356 61.1236L46.8305 61.1284ZM107.159 61.1284C111.245 67.7756 113.052 75.5731 112.303 83.3393L95.0198 78.3601V78.2934C93.9418 78.001 93.1201 77.1438 92.8788 76.0604C92.6376 74.9775 92.9973 73.8532 93.8341 73.1145L107.18 61.1699L107.159 61.1284ZM74.2869 74.0638H79.79L83.1522 78.3343L81.9304 83.6731L76.9874 86.0493L72.0335 83.6731L70.8683 78.3343L74.2869 74.0638ZM91.9139 88.6312C92.1449 88.6059 92.4277 88.6059 92.6069 88.6312L110.404 91.6342C107.837 99.0256 102.77 105.34 96.1592 109.564L89.2809 92.9125C89.0914 92.4656 89.0126 91.9801 89.0505 91.4965C89.0878 91.0128 89.2412 90.5454 89.4975 90.1333C89.7537 89.7212 90.105 89.3765 90.5219 89.1287C90.9388 88.8809 91.4092 88.7365 91.8935 88.7082L91.9139 88.6312ZM62.0241 88.7082C63.0305 88.7239 63.9593 89.2424 64.5086 90.084C65.0578 90.9262 65.145 91.9831 64.7498 92.9071V92.9739L57.9128 109.492C51.3681 105.299 46.3993 99.0617 43.7558 91.7473L61.3979 88.7545C61.5934 88.7341 61.7931 88.7341 61.9934 88.7545L62.0241 88.7082ZM76.9308 95.8945C77.4915 95.877 78.0461 96.0154 78.5328 96.2945C79.0194 96.5736 79.4195 96.9827 79.6872 97.4754H79.754L88.4495 113.167L84.9743 114.194C78.5785 115.657 71.9006 115.313 65.684 113.198L74.4103 97.5067C74.939 96.5827 75.9142 96.0178 76.9771 95.9919L76.9308 95.8945Z" fill="white" stroke="white" stroke-width="0.0661719"/>
                        </g>
                    </g>
                    <defs>
                        <clipPath id="clip0_7_345">
                            <rect width="154" height="154" fill="white"/>
                        </clipPath>
                        <clipPath id="clip1_7_345">
                            <rect width="154" height="154" fill="white"/>
                        </clipPath>
                    </defs>
                </svg>
            </g>
        </mask>

        <filter id="maskFilter">
            <feColorMatrix in="SourceGraphic" type="saturate" values="0" result="gray"/>
            <feColorMatrix in="gray" type="luminanceToAlpha" result="lum"/>
            <feComponentTransfer in="lum" result="maskLight">
                <feFuncA type="discrete" tableValues="0 1"/>
            </feComponentTransfer>
            <feFlood flood-color="white" result="fill"/>
            <feComposite in="fill" in2="maskLight" operator="in"/>
        </filter>
    </defs>

    <rect x="38" y="38" width="164" height="164" rx="40" ry="40" fill="rgba(0,0,0,1)" filter="url(#shadow3D)"/>

    <rect x="40" y="40" width="160" height="160" rx="40" ry="40" fill="#0D1117"/>

    <rect x="40" y="40" width="160" height="160" rx="40" ry="40" fill="url(#gradient)" mask="url(#lightMask)"/>

    <rect x="40" y="40" width="160" height="160" rx="40" ry="40" fill="transparent" stroke="url(#gradient)" stroke-width="6" filter="url(#glow)"/>
</svg>