<svg xmlns="http://www.w3.org/2000/svg" width="320" height="320" viewBox="0 0 240 240" overflow="visible">
    <defs>
        <linearGradient id="gradient" x1="0%" y1="0%" x2="100%" y2="100%">
            <stop offset="0%" stop-color="#009BFF">
                <animate attributeName="stop-color" values="#009BFF;#FF3A76;#FFB200;#6A5CFF;#009BFF" dur="6s" repeatCount="indefinite" keyTimes="0;0.25;0.5;0.75;1" calcMode="linear"/>
            </stop>
            <stop offset="25%" stop-color="#FF3A76">
                <animate attributeName="stop-color" values="#FF3A76;#FFB200;#6A5CFF;#009BFF;#FF3A76" dur="6s" repeatCount="indefinite" keyTimes="0;0.25;0.5;0.75;1" calcMode="linear"/>
            </stop>
            <stop offset="50%" stop-color="#FFB200">
                <animate attributeName="stop-color" values="#FFB200;#6A5CFF;#009BFF;#FF3A76;#FFB200" dur="6s" repeatCount="indefinite" keyTimes="0;0.25;0.5;0.75;1" calcMode="linear"/>
            </stop>
            <stop offset="75%" stop-color="#6A5CFF">
                <animate attributeName="stop-color" values="#6A5CFF;#009BFF;#FF3A76;#FFB200;#6A5CFF" dur="6s" repeatCount="indefinite" keyTimes="0;0.25;0.5;0.75;1" calcMode="linear"/>
            </stop>
            <stop offset="100%" stop-color="#009BFF">
                <animate attributeName="stop-color" values="#009BFF;#FF3A76;#FFB200;#6A5CFF;#009BFF" dur="6s" repeatCount="indefinite" keyTimes="0;0.25;0.5;0.75;1" calcMode="linear"/>
            </stop>
        </linearGradient>

        <filter id="shadow3D" x="-60%" y="-60%" width="220%" height="220%">
            <feGaussianBlur in="SourceAlpha" stdDeviation="12" result="blur"/>
            <feOffset in="blur" dx="0" dy="0" result="offsetBlur"/>
            <feMerge>
                <feMergeNode in="offsetBlur"/>
                <feMergeNode in="SourceGraphic"/>
            </feMerge>
        </filter>

        <filter id="glow" x="-200%" y="-200%" width="400%" height="400%">
            <feGaussianBlur in="SourceGraphic" stdDeviation="6" result="blur1"/>
            <feGaussianBlur in="SourceGraphic" stdDeviation="12" result="blur2"/>
            <feGaussianBlur in="SourceGraphic" stdDeviation="18" result="blur3"/>
            <feMerge>
                <feMergeNode in="blur1"/>
                <feMergeNode in="blur2"/>
                <feMergeNode in="blur3"/>
                <feMergeNode in="SourceGraphic"/>
            </feMerge>
        </filter>

        <mask id="lightMask" maskUnits="userSpaceOnUse">
            <g filter="url(#maskFilter)">
                <svg width="154" height="154" x="43" y="43" viewBox="0 0 154 154" fill="none" xmlns="http://www.w3.org/2000/svg">
                    <g clip-path="url(#clip0_7_351)">
                        <g clip-path="url(#clip1_7_351)">
                            <path d="M117.906 0H36.0938C16.1597 0 0 16.1597 0 36.0938V117.906C0 137.84 16.1597 154 36.0938 154H117.906C137.84 154 154 137.84 154 117.906V36.0938C154 16.1597 137.84 0 117.906 0Z" fill="white"/>
                            <path d="M117.906 0H36.0938C16.1597 0 0 16.1597 0 36.0938V117.906C0 137.84 16.1597 154 36.0938 154H117.906C137.84 154 154 137.84 154 117.906V36.0938C154 16.1597 137.84 0 117.906 0Z" fill="black"/>
                            <path d="M111.118 130.951H128.725C130.054 130.951 131.132 129.874 131.132 128.545L131.141 91.3437C131.141 71.8993 126.951 56.9532 104.228 56.9532C95.5901 56.6325 87.4443 61.0851 83.0487 68.5204C83.0138 68.5793 82.9513 68.6154 82.8827 68.6154C82.7768 68.6154 82.6908 68.5294 82.6908 68.4235V61.1548C82.6908 59.8261 81.614 58.7487 80.2845 58.7487H63.5749C62.2461 58.7487 61.1687 59.8261 61.1687 61.1548V128.542C61.1687 129.871 62.2461 130.948 63.5749 130.948H81.1815C82.5103 130.948 83.5877 129.871 83.5877 128.542V95.2316C83.5877 85.8129 85.3744 76.6914 97.0513 76.6914C108.562 76.6914 108.711 87.469 108.711 95.8415V128.545C108.711 129.874 109.789 130.951 111.118 130.951Z" fill="white"/>
                            <path d="M22.8594 35.8697C22.8594 43.007 28.7351 48.8793 35.8724 48.8793C43.0083 48.8786 48.88 43.0029 48.88 35.867C48.8786 28.731 43.0063 22.8594 35.8697 22.8594C28.7324 22.8594 22.8594 28.7324 22.8594 35.8697Z" fill="white"/>
                            <path d="M27.0455 130.951H44.6756C46.0046 130.951 47.0818 129.874 47.0818 128.545V61.1548C47.0818 59.8261 46.0046 58.7487 44.6756 58.7487H27.0455C25.7166 58.7487 24.6393 59.8261 24.6393 61.1548V128.545C24.6393 129.874 25.7166 130.951 27.0455 130.951Z" fill="white"/>
                        </g>
                    </g>
                    <defs>
                        <clipPath id="clip0_7_351">
                            <rect width="154" height="154" fill="white"/>
                        </clipPath>
                        <clipPath id="clip1_7_351">
                            <rect width="154" height="154" fill="white"/>
                        </clipPath>
                    </defs>
                </svg>
            </g>
        </mask>

        <filter id="maskFilter">
            <feColorMatrix in="SourceGraphic" type="saturate" values="0" result="gray"/>
            <feColorMatrix in="gray" type="luminanceToAlpha" result="lum"/>
            <feComponentTransfer in="lum" result="maskLight">
                <feFuncA type="discrete" tableValues="0 1"/>
            </feComponentTransfer>
            <feFlood flood-color="white" result="fill"/>
            <feComposite in="fill" in2="maskLight" operator="in"/>
        </filter>
    </defs>

    <rect x="38" y="38" width="164" height="164" rx="40" ry="40" fill="rgba(0,0,0,1)" filter="url(#shadow3D)"/>

    <rect x="40" y="40" width="160" height="160" rx="40" ry="40" fill="#0D1117"/>

    <rect x="40" y="40" width="160" height="160" rx="40" ry="40" fill="url(#gradient)" mask="url(#lightMask)"/>

    <rect x="40" y="40" width="160" height="160" rx="40" ry="40" fill="transparent" stroke="url(#gradient)" stroke-width="6" filter="url(#glow)"/>
</svg>