<svg xmlns="http://www.w3.org/2000/svg" width="320" height="320" viewBox="0 0 240 240" overflow="visible">
    <defs>
        <linearGradient id="gradient" x1="0%" y1="0%" x2="100%" y2="100%">
            <stop offset="0%" stop-color="#009BFF">
                <animate attributeName="stop-color" values="#009BFF;#FF3A76;#FFB200;#6A5CFF;#009BFF" dur="6s" repeatCount="indefinite" keyTimes="0;0.25;0.5;0.75;1" calcMode="linear"/>
            </stop>
            <stop offset="25%" stop-color="#FF3A76">
                <animate attributeName="stop-color" values="#FF3A76;#FFB200;#6A5CFF;#009BFF;#FF3A76" dur="6s" repeatCount="indefinite" keyTimes="0;0.25;0.5;0.75;1" calcMode="linear"/>
            </stop>
            <stop offset="50%" stop-color="#FFB200">
                <animate attributeName="stop-color" values="#FFB200;#6A5CFF;#009BFF;#FF3A76;#FFB200" dur="6s" repeatCount="indefinite" keyTimes="0;0.25;0.5;0.75;1" calcMode="linear"/>
            </stop>
            <stop offset="75%" stop-color="#6A5CFF">
                <animate attributeName="stop-color" values="#6A5CFF;#009BFF;#FF3A76;#FFB200;#6A5CFF" dur="6s" repeatCount="indefinite" keyTimes="0;0.25;0.5;0.75;1" calcMode="linear"/>
            </stop>
            <stop offset="100%" stop-color="#009BFF">
                <animate attributeName="stop-color" values="#009BFF;#FF3A76;#FFB200;#6A5CFF;#009BFF" dur="6s" repeatCount="indefinite" keyTimes="0;0.25;0.5;0.75;1" calcMode="linear"/>
            </stop>
        </linearGradient>

        <filter id="shadow3D" x="-60%" y="-60%" width="220%" height="220%">
            <feGaussianBlur in="SourceAlpha" stdDeviation="12" result="blur"/>
            <feOffset in="blur" dx="0" dy="0" result="offsetBlur"/>
            <feMerge>
                <feMergeNode in="offsetBlur"/>
                <feMergeNode in="SourceGraphic"/>
            </feMerge>
        </filter>

        <filter id="glow" x="-200%" y="-200%" width="400%" height="400%">
            <feGaussianBlur in="SourceGraphic" stdDeviation="6" result="blur1"/>
            <feGaussianBlur in="SourceGraphic" stdDeviation="12" result="blur2"/>
            <feGaussianBlur in="SourceGraphic" stdDeviation="18" result="blur3"/>
            <feMerge>
                <feMergeNode in="blur1"/>
                <feMergeNode in="blur2"/>
                <feMergeNode in="blur3"/>
                <feMergeNode in="SourceGraphic"/>
            </feMerge>
        </filter>

        <mask id="lightMask" maskUnits="userSpaceOnUse">
            <g filter="url(#maskFilter)">
                <svg width="154" height="154" x="43" y="43" viewBox="0 0 154 154" fill="none" xmlns="http://www.w3.org/2000/svg">
                    <g clip-path="url(#clip0_7_75)">
                        <g clip-path="url(#clip1_7_75)">
                            <path d="M117.906 0H36.0938C16.1597 0 0 16.1597 0 36.0938V117.906C0 137.84 16.1597 154 36.0938 154H117.906C137.84 154 154 137.84 154 117.906V36.0938C154 16.1597 137.84 0 117.906 0Z" fill="black"/>
                            <path d="M51.7039 120.268L66.4606 128.461H88.7762L109.652 112.788L119.01 88.2083L97.414 62.2046L91.2955 47.5997L61.4219 48.6683L61.7817 56.8614L56.023 67.5477L47.0249 85.0026L45.2253 99.6073L51.7039 120.268Z" fill="#ECEFF1"/>
                            <path d="M112.531 68.9727C106.772 60.7795 102.093 55.7927 99.5736 45.4624C97.0543 35.132 100.294 37.9818 98.1341 29.0763C97.0543 24.4455 95.2544 21.2395 93.4551 18.746C91.2955 16.2525 88.7762 14.8276 87.3361 14.4714C84.0972 12.6903 76.5386 9.84054 67.1807 14.8276C57.4626 19.8147 58.5424 30.5012 60.3421 52.2305C60.3421 53.6554 59.9821 55.4365 59.2623 56.8614C57.8226 60.0673 55.3031 62.9168 53.1435 65.4109C50.6241 68.9727 48.1046 72.5352 46.305 76.4532C41.9859 84.6465 38.0268 94.9765 39.1066 98.8951C40.9062 98.5389 63.5815 132.736 63.5815 133.448C65.0211 133.092 71.1396 133.092 76.5386 133.092C84.0972 132.736 88.4159 132.38 94.5349 133.804C94.5349 132.736 94.1746 131.667 94.1746 130.599C94.1746 128.461 94.5349 126.68 94.8947 124.187C95.2544 122.405 95.6148 120.625 95.9745 118.487C92.3753 121.693 85.8965 125.256 79.778 126.324C74.379 127.392 65.3808 125.612 61.0616 120.268C61.4219 120.268 62.1414 120.268 62.5017 119.912C63.5815 119.556 64.6614 119.2 65.0211 118.487C66.1009 116.706 65.3808 114.925 64.6614 113.857C63.9413 112.788 58.5424 108.869 56.023 106.732C53.5035 104.595 52.0638 103.526 50.6241 102.101C50.6241 102.101 48.4646 99.964 47.7447 99.2512C47.0249 98.5389 46.6649 97.8267 46.305 97.47C45.5852 95.6893 45.2252 93.552 45.5852 90.7024C45.9451 86.7838 47.3848 83.5775 49.1844 80.0156C49.9042 78.5905 51.7039 75.7409 51.7039 75.7409C51.7039 75.7409 45.5852 90.7024 48.8245 95.3332C48.8245 95.3332 49.1844 90.7024 50.6241 86.0716C51.7039 82.8652 53.5035 78.2344 55.663 75.7409C57.8225 73.2474 63.2212 63.9858 63.5815 58.2862C63.5815 55.7927 63.9413 53.2992 63.9413 51.5181C62.5017 50.0932 87.6964 46.531 89.1359 50.4494C89.4957 51.8743 94.5349 64.698 97.414 71.4662C98.8536 74.6726 100.653 77.5222 101.733 81.084C102.813 85.0026 103.533 90.3457 103.533 95.6893C103.533 96.7577 103.533 98.5389 103.173 100.32C103.893 100.32 117.93 85.3587 101.374 72.8913C101.374 72.8913 111.451 77.5222 111.811 86.7838C112.171 94.2642 108.932 100.32 108.212 101.389C108.572 101.389 115.77 104.595 116.13 104.595C117.57 104.595 120.449 103.526 120.449 103.526C120.809 102.458 121.889 99.6073 121.889 98.5389C124.409 90.3457 118.289 77.166 112.531 68.9727Z" fill="#263238"/>
                            <path d="M66.8204 45.4624C69.4047 45.4624 71.4993 42.2726 71.4993 38.338C71.4993 34.4033 69.4047 31.2136 66.8204 31.2136C64.2366 31.2136 62.1414 34.4033 62.1414 38.338C62.1414 42.2726 64.2366 45.4624 66.8204 45.4624Z" fill="#ECEFF1"/>
                            <path d="M83.0168 46.1748C86.3964 46.1748 89.1359 42.5066 89.1359 37.9818C89.1359 33.4569 86.3964 29.7888 83.0168 29.7888C79.6379 29.7888 76.8983 33.4569 76.8983 37.9818C76.8983 42.5066 79.6379 46.1748 83.0168 46.1748Z" fill="#ECEFF1"/>
                            <path d="M69.4348 38.8255C69.1358 36.4833 67.7738 34.7247 66.3933 34.8973C65.0133 35.07 64.1362 37.1087 64.4358 39.4509C64.7347 41.793 66.0961 43.5517 67.4767 43.379C68.8573 43.2063 69.7337 41.1676 69.4348 38.8255Z" fill="#212121"/>
                            <path d="M82.6571 44.0375C84.6453 44.0375 86.2562 41.9642 86.2562 39.4067C86.2562 36.8491 84.6453 34.7758 82.6571 34.7758C80.6695 34.7758 79.0579 36.8491 79.0579 39.4067C79.0579 41.9642 80.6695 44.0375 82.6571 44.0375Z" fill="#212121"/>
                            <path d="M130.527 117.775C129.087 117.062 126.568 115.993 124.408 112.788C123.329 111.006 123.688 106.019 121.889 103.882C120.809 102.458 119.369 103.17 119.01 103.17C115.77 103.882 108.211 108.869 103.173 103.17C102.453 102.458 101.373 101.389 99.5736 101.389C97.7738 101.389 97.0543 102.101 96.3342 103.526C95.6141 104.951 95.6141 106.019 95.6141 109.582C95.6141 112.431 95.6141 115.637 95.2544 118.131C94.5343 124.187 93.4551 127.749 93.4551 131.311C93.4551 135.229 94.5343 137.723 95.9745 138.791C97.0543 139.86 98.8536 140.573 102.813 140.573C106.772 140.573 109.291 139.148 111.811 136.654C113.61 134.873 115.05 134.16 120.089 130.599C124.048 128.105 130.167 124.899 131.246 123.83C131.967 123.118 133.046 122.761 133.046 120.624C133.046 118.843 131.607 118.131 130.527 117.775Z" fill="#FFC107"/>
                            <path d="M58.1825 118.843C54.5832 113.144 54.2233 112.075 51.7038 108.513C49.5443 104.951 44.8653 98.1828 41.9859 98.1828C39.8264 98.1828 38.7466 99.2512 37.3069 100.676C35.8672 102.101 34.4275 105.307 31.9081 107.088C29.7485 108.869 23.6299 108.513 22.1901 110.65C20.7504 112.788 23.6299 115.994 23.6299 121.337C23.6299 123.474 21.8302 124.899 21.4703 126.324C21.1104 128.105 20.7504 129.174 21.4703 130.599C22.91 132.736 24.7096 133.448 36.947 135.942C43.4256 137.367 49.5443 140.929 53.5035 141.285C57.4626 141.641 64.301 141.285 64.301 131.667C64.6614 125.968 61.4219 124.543 58.1825 118.843Z" fill="#FFC107"/>
                            <path d="M65.0211 54.3678C62.8615 52.943 61.0616 51.5181 61.0616 49.3808C61.0616 47.2435 62.5017 46.531 64.6614 44.7499C65.0211 44.3937 68.98 40.8315 72.9395 40.8315C76.8983 40.8315 81.5773 43.3251 83.3772 44.0375C86.6166 44.7499 89.8554 45.4624 89.4957 47.9559C89.1359 51.5181 88.7762 52.2305 85.1764 54.0116C82.6571 54.724 77.9781 58.6424 74.7387 58.6424C73.2992 58.6424 71.1396 58.6424 69.7 58.2862C68.6202 57.93 66.8204 56.1489 65.0211 54.3678Z" fill="#FFC107"/>
                            <path d="M64.301 51.5181C65.0211 52.2305 66.1009 52.943 67.1807 53.2992C67.9002 53.6554 68.98 54.0116 68.98 54.0116C70.4201 54.0116 71.4999 54.0116 72.2194 54.0116C74.0193 54.0116 76.5386 53.2992 79.0579 51.8743C81.5773 50.8057 81.9376 50.0932 83.7369 49.3808C85.5368 48.3121 87.336 47.2435 86.6166 46.8873C85.8965 46.531 85.1764 46.8873 82.6571 48.3121C80.4975 49.737 78.6982 50.4494 76.5386 51.5181C75.4588 51.8743 74.0193 52.5867 72.9395 52.5867C71.8596 52.5867 70.7798 52.5867 69.7 52.5867C68.6202 52.5867 67.9002 52.2305 66.8204 51.8743C66.1009 51.5181 65.7406 51.1619 65.3808 51.1619C64.6613 50.8057 63.2212 49.3808 62.5017 49.0246C62.5017 49.0246 61.7817 49.0246 62.1414 49.3808C63.2212 50.4494 63.5815 50.8057 64.301 51.5181Z" fill="#634703"/>
                            <path d="M75.0991 43.6813C75.4588 44.3937 76.1789 44.3937 76.5386 44.7499C76.8983 45.1061 77.2581 45.1061 77.2581 45.1061C77.6184 44.7499 77.2581 44.0375 76.8983 44.0375C76.8983 43.3251 75.0991 43.3251 75.0991 43.6813Z" fill="#634703"/>
                            <path d="M69.3403 44.3937C69.3403 44.7499 70.0598 45.1061 70.0598 44.7499C70.4201 44.3937 70.7798 44.0375 71.1396 44.0375C71.8596 43.6813 71.4993 43.3251 70.4201 43.3251C69.7 43.6813 69.7 44.0375 69.3403 44.3937Z" fill="#634703"/>
                            <path d="M104.253 107.444C104.253 107.801 104.253 108.157 104.253 108.513C104.973 109.938 106.772 110.294 108.211 110.294C110.371 110.294 112.531 108.869 113.61 107.444C113.61 107.088 113.97 106.732 114.331 106.376C115.05 105.307 115.41 104.595 115.77 104.238C115.77 104.238 115.41 103.882 115.41 103.526C115.05 102.814 113.97 102.101 112.531 101.745C111.451 101.389 109.652 101.032 108.932 101.032C105.692 100.676 103.893 101.745 102.813 102.814C102.813 102.814 103.173 102.814 103.173 103.17C103.893 103.882 104.253 104.595 104.253 105.663C104.612 106.376 104.253 106.732 104.253 107.444Z" fill="#455A64"/>
                        </g>
                    </g>
                    <defs>
                        <clipPath id="clip0_7_75">
                            <rect width="154" height="154" fill="white"/>
                        </clipPath>
                        <clipPath id="clip1_7_75">
                            <rect width="154" height="154" fill="white"/>
                        </clipPath>
                    </defs>
                </svg>

            </g>
        </mask>

        <filter id="maskFilter">
            <feColorMatrix in="SourceGraphic" type="saturate" values="0" result="gray"/>
        </filter>
    </defs>

    <rect x="38" y="38" width="164" height="164" rx="40" ry="40" fill="rgba(0,0,0,1)" filter="url(#shadow3D)"/>

    <rect x="40" y="40" width="160" height="160" rx="40" ry="40" fill="#0D1117"/>

    <rect x="40" y="40" width="160" height="160" rx="40" ry="40" fill="transparent" stroke="url(#gradient)" stroke-width="6" filter="url(#glow)"/>

    <rect x="40" y="40" width="160" height="160" rx="40" ry="40" fill="url(#gradient)" mask="url(#lightMask)"/>
</svg>