<svg width="158" height="158" viewBox="0 0 158 158" fill="none" xmlns="http://www.w3.org/2000/svg">
    <g filter="url(#filter0_d_4_89)">
        <rect x="15" y="15" width="128" height="128" fill="#0D1117"/>
        <rect x="16" y="16" width="126" height="126" stroke="#C9D1D9" stroke-width="2"/>
        <path fill-rule="evenodd" clip-rule="evenodd" d="M102.259 115.139C102.428 114.814 102.59 114.527 102.728 114.23C102.815 114.04 102.949 114.002 103.138 114.007C104.271 114.039 105.404 114.074 106.538 114.085C107.501 114.095 108.466 114.077 109.43 114.066C110.516 114.053 111.602 113.996 112.687 114.027C114.132 114.069 115.54 114.352 116.847 114.995C118.408 115.764 119.589 116.935 120.394 118.478C120.9 119.456 121.216 120.522 121.325 121.618C121.497 123.226 121.384 124.797 120.874 126.335C120.242 128.241 119.042 129.7 117.375 130.793C116.092 131.634 114.685 132.131 113.177 132.415C111.581 132.716 109.98 132.619 108.379 132.624C106.623 132.631 104.868 132.593 103.112 132.573C102.805 132.57 102.761 132.512 102.842 132.219L102.917 131.949C103.088 131.411 103.18 131.387 103.726 131.297C104.113 131.236 104.483 131.095 104.813 130.884C104.997 130.762 105.073 130.444 105.145 130.199C105.207 129.985 105.21 129.75 105.212 129.524C105.237 126.099 105.263 122.675 105.277 119.252C105.281 118.386 105.259 117.521 105.212 116.656C105.178 116.051 104.855 115.637 104.135 115.494C103.575 115.383 103.011 115.297 102.448 115.198L102.259 115.139ZM118.335 123.432C118.259 122.75 118.222 122.062 118.1 121.39C117.808 119.777 117.102 118.372 115.862 117.271C113.857 115.492 111.443 115.218 108.913 115.43C108.337 115.478 108.213 115.675 108.204 116.267C108.19 117.107 108.176 117.947 108.175 118.787C108.171 121.451 108.171 124.115 108.175 126.779C108.176 127.537 108.184 128.295 108.206 129.051C108.23 129.825 108.511 130.48 109.269 130.78C110.464 131.253 111.721 131.309 112.975 131.116C114.978 130.809 116.379 129.642 117.319 127.893C118.063 126.505 118.273 124.99 118.335 123.432ZM123.204 132.503C123.18 132.088 123.35 131.745 123.56 131.43C123.617 131.345 123.813 131.349 123.948 131.322L125.094 131.095C125.499 131.009 125.712 130.737 125.769 130.34C125.807 130.078 125.843 129.813 125.846 129.548C125.873 127.451 125.893 125.354 125.905 123.257C125.915 121.157 125.907 119.057 125.907 116.957L125.898 116.556C125.857 115.881 125.531 115.531 124.861 115.432L123.408 115.211C123.229 115.187 123.164 115.101 123.229 114.942C123.341 114.671 123.448 114.39 123.606 114.146C123.665 114.056 123.864 114.021 123.998 114.024C124.692 114.034 125.386 114.086 126.08 114.085L132.121 114.049C133.285 114.048 134.409 114.251 135.453 114.808C136.602 115.42 137.245 116.367 137.429 117.657C137.621 119.012 137.21 120.154 136.22 121.061C135.813 121.435 135.286 121.679 134.814 121.983L134.66 122.079C135.098 122.24 135.515 122.379 135.921 122.545C137.109 123.032 138.054 123.793 138.554 125.008C138.949 125.967 138.949 126.967 138.715 127.961C138.351 129.517 137.326 130.552 135.993 131.335C134.742 132.07 133.388 132.498 131.946 132.57C130.616 132.637 129.28 132.612 127.947 132.627L127.175 132.631C125.89 132.601 124.606 132.569 123.321 132.535L123.204 132.503ZM128.741 126.414H128.754C128.754 127.072 128.745 127.73 128.757 128.388C128.765 128.814 128.75 129.252 128.842 129.662C128.98 130.275 129.26 130.828 129.948 131.004C130.868 131.246 131.829 131.288 132.766 131.128C133.943 130.923 134.882 130.333 135.397 129.212C135.779 128.379 135.836 127.496 135.705 126.594C135.531 125.406 134.9 124.544 133.851 123.979C133.163 123.608 132.429 123.381 131.647 123.351C130.771 123.318 129.894 123.316 129.018 123.289C128.772 123.282 128.738 123.407 128.739 123.609C128.744 124.543 128.741 125.478 128.741 126.414ZM130.606 121.939C131.085 121.915 131.627 121.908 132.166 121.854C133.198 121.751 133.925 121.232 134.304 120.245C134.497 119.744 134.489 119.228 134.494 118.707C134.509 117.35 133.717 116.238 132.428 115.778C131.433 115.423 130.407 115.417 129.375 115.445C128.957 115.456 128.77 115.639 128.764 116.06L128.702 121.549C128.699 121.767 128.793 121.861 129.005 121.868L130.606 121.939Z" fill="#7F5AF0"/>
        <path fill-rule="evenodd" clip-rule="evenodd" d="M25.543 131.448L25.47 132.392C24.79 132.392 24.163 132.387 23.536 132.394C22.355 132.406 21.174 132.425 19.992 132.442L19.878 132.449C19.709 132.429 19.402 132.429 19.394 132.379C19.344 132.098 19.36 131.803 19.373 131.512C19.374 131.479 19.489 131.437 19.556 131.421L20.475 131.216C21.048 131.067 21.25 130.82 21.277 130.228C21.308 129.561 21.339 128.893 21.342 128.226C21.351 126.584 21.341 124.944 21.348 123.302C21.349 122.918 21.216 122.632 20.858 122.476C20.4326 122.287 20.0042 122.105 19.573 121.93C19.369 121.848 19.104 121.803 19.128 121.529C19.152 121.25 19.409 121.177 19.651 121.122C20.653 120.893 21.656 120.67 22.655 120.426C22.977 120.347 23.285 120.214 23.67 120.08C23.69 120.288 23.727 120.486 23.723 120.684L23.664 121.625C23.663 121.731 23.718 121.873 23.797 121.932C23.845 121.969 24.006 121.902 24.086 121.84C24.94 121.19 25.844 120.629 26.875 120.302C28.472 119.795 29.843 120.265 30.803 121.642C31.141 122.127 31.142 122.127 31.611 121.788C32.416 121.203 33.258 120.687 34.2 120.347C36.268 119.6 38.255 120.548 38.974 122.631C39.236 123.387 39.336 124.168 39.334 124.966L39.315 130.264C39.314 130.701 39.459 130.95 39.875 131.086C40.342 131.239 40.826 131.344 41.352 131.482L41.23 132.393C40.632 132.393 40.082 132.389 39.532 132.394C38.188 132.406 36.844 132.413 35.501 132.444C35.267 132.45 35.206 132.392 35.194 132.173C35.155 131.472 35.149 131.473 35.809 131.315L36.031 131.258C36.676 131.082 36.891 130.884 36.896 130.23C36.911 128.352 36.95 126.469 36.855 124.595C36.756 122.651 35.213 121.616 33.329 122.114C32.7209 122.281 32.1483 122.556 31.639 122.928C31.464 123.053 31.431 123.197 31.445 123.416C31.498 124.244 31.531 125.073 31.538 125.902C31.55 127.353 31.532 128.804 31.538 130.256C31.54 130.844 31.741 131.069 32.322 131.205L33.185 131.404L33.345 131.44C33.357 131.716 33.368 131.992 33.355 132.268C33.347 132.441 33.213 132.456 33.063 132.453C32.224 132.432 31.384 132.404 30.545 132.406C29.524 132.408 28.504 132.437 27.484 132.455H27.244C27.244 132.162 27.23 131.882 27.254 131.603C27.259 131.536 27.377 131.442 27.458 131.421L28.464 131.208C28.891 131.103 29.095 130.884 29.119 130.45C29.233 128.44 29.315 126.429 29.126 124.42C29.0799 124.023 28.9698 123.637 28.8 123.275C28.285 122.137 27.126 121.662 25.789 122.004C25.154 122.166 24.581 122.457 24.039 122.824C23.9208 122.897 23.8237 122.999 23.7574 123.121C23.6911 123.243 23.6579 123.38 23.661 123.519C23.661 125.524 23.668 127.529 23.674 129.533L23.685 130.306C23.697 130.845 23.926 131.129 24.461 131.245C24.805 131.323 25.153 131.376 25.543 131.448Z" fill="#7F5AF0"/>
        <path fill-rule="evenodd" clip-rule="evenodd" d="M86.001 120.285C86.156 121.039 86.153 121.717 85.599 122.231C85.049 122.742 84.353 122.57 83.674 122.456C83.737 122.814 83.807 123.118 83.841 123.426C84.088 125.715 83.103 127.414 80.98 128.385C80.178 128.751 79.327 128.887 78.458 128.957C78.026 128.991 77.648 129.321 77.607 129.676C77.565 130.036 77.791 130.406 78.243 130.514C78.776 130.641 79.332 130.677 79.879 130.74C81.053 130.874 82.24 130.935 83.4 131.145C85.154 131.461 86.133 132.992 85.824 134.754C85.549 136.322 84.641 137.463 83.375 138.338C81.242 139.816 78.902 140.248 76.41 139.494C74.985 139.062 73.98 138.125 73.633 136.609C73.459 135.85 73.644 135.163 74.215 134.648C74.894 134.038 75.633 133.494 76.344 132.918L76.574 132.687L76.31 132.502C75.585 132.158 75.005 131.687 74.78 130.869C74.703 130.592 74.783 130.41 75.018 130.268C75.418 130.027 75.816 129.782 76.211 129.533C76.397 129.417 76.581 129.297 76.754 129.163C76.99 128.983 76.969 128.849 76.687 128.745C76.031 128.503 75.448 128.152 74.996 127.612C74.241 126.711 74.027 125.638 74.089 124.505C74.186 122.735 75.147 121.569 76.709 120.819C78.566 119.928 80.429 119.872 82.322 120.684C83.022 120.984 83.76 121.048 84.511 120.996C85.072 120.956 85.562 120.744 86.001 120.285ZM79.158 132.966C77.764 132.954 77.327 133.126 76.509 133.959C75.593 134.893 75.598 136.188 76.512 137.126C77.206 137.837 78.072 138.17 79.035 138.27C80.16 138.386 81.268 138.339 82.29 137.776C83.38 137.173 83.922 136.053 83.677 134.925C83.474 133.994 82.788 133.568 81.953 133.323C81.003 133.045 80.021 132.992 79.158 132.966ZM76.42 124.058C76.471 124.445 76.492 124.837 76.578 125.216C76.801 126.198 77.228 127.061 78.205 127.498C79.352 128.013 80.817 127.792 81.319 126.182C81.662 125.111 81.622 123.953 81.206 122.908C81.0297 122.43 80.7123 122.017 80.296 121.724C79.3 121.029 77.503 120.937 76.771 122.473C76.533 122.972 76.44 123.503 76.42 124.058Z" fill="#7F5AF0"/>
        <path fill-rule="evenodd" clip-rule="evenodd" d="M62.35 120.038C62.387 120.209 62.461 120.403 62.463 120.598C62.466 120.969 62.426 121.34 62.405 121.711V122.033L62.719 121.793C63.579 121.085 64.503 120.482 65.579 120.157C67.521 119.572 69.461 120.635 70.094 122.613C70.334 123.365 70.429 124.138 70.438 124.924C70.458 126.67 70.47 128.416 70.488 130.162C70.494 130.789 70.566 130.901 71.159 131.082C71.4964 131.183 71.8407 131.259 72.189 131.311C72.38 131.341 72.462 131.416 72.452 131.603L72.454 131.775C72.447 132.498 72.397 132.531 71.696 132.529C70.018 132.526 68.341 132.536 66.663 132.55C66.163 132.554 66.162 132.569 66.112 132.075L66.102 131.791C66.133 131.365 66.143 131.369 66.562 131.307C66.844 131.265 67.124 131.2 67.399 131.128C67.682 131.055 67.818 130.846 67.856 130.566C67.875 130.424 67.9 130.282 67.899 130.14C67.875 128.232 67.906 126.322 67.802 124.417C67.718 122.876 66.542 121.958 64.995 122.063C64.2493 122.115 63.5325 122.372 62.924 122.806C62.511 123.095 62.428 123.512 62.43 123.961C62.438 125.745 62.455 127.529 62.474 129.314C62.478 129.705 62.489 130.096 62.526 130.484C62.565 130.908 62.714 131.079 63.13 131.171C63.528 131.259 63.934 131.31 64.359 131.381L64.395 131.709C64.409 132.474 64.329 132.531 63.586 132.528C61.851 132.521 60.116 132.532 58.382 132.551C58.109 132.555 57.993 132.469 58 132.203L57.996 132.089C57.951 131.4 57.971 131.374 58.623 131.262L58.931 131.2C59.637 131.041 59.818 130.853 59.828 130.136C59.861 127.865 59.873 125.595 59.896 123.324C59.899 122.998 59.776 122.745 59.472 122.61C59.0454 122.423 58.6163 122.242 58.185 122.066C57.947 121.968 57.675 121.906 57.666 121.577C57.66 121.345 57.908 121.14 58.247 121.071C58.928 120.933 59.615 120.818 60.288 120.649C60.958 120.482 61.616 120.258 62.35 120.038Z" fill="#7F5AF0"/>
        <path fill-rule="evenodd" clip-rule="evenodd" d="M99.865 125.97C99.833 128.091 99.282 129.806 97.782 131.093C95.882 132.726 92.918 133.281 90.495 132.06C89.461 131.539 88.701 130.74 88.206 129.703C87.447 128.108 87.257 126.431 87.653 124.713C88.045 123.014 89.074 121.783 90.614 120.986C92.198 120.167 93.866 119.847 95.625 120.277C97.85 120.82 99.449 122.634 99.767 124.944C99.824 125.349 99.846 125.759 99.865 125.97ZM97.288 127.119L97.202 127.109C97.202 126.909 97.213 126.709 97.2 126.509C97.127 125.263 96.847 124.076 96.125 123.033C95.44 122.045 94.507 121.462 93.293 121.377C91.934 121.281 90.792 122.041 90.391 123.429C89.789 125.513 89.993 127.544 91.051 129.453C91.512 130.285 92.195 130.899 93.11 131.222C94.903 131.853 96.493 131.036 96.96 129.2C97.132 128.522 97.182 127.813 97.288 127.119Z" fill="#7F5AF0"/>
        <path fill-rule="evenodd" clip-rule="evenodd" d="M55.819 126.134C55.782 127.656 55.423 129.063 54.483 130.286C53.476 131.596 52.092 132.296 50.518 132.591C48.657 132.939 46.909 132.623 45.414 131.374C44.704 130.78 44.219 130.019 43.899 129.153C43.374 127.733 43.243 126.278 43.566 124.795C43.911 123.208 44.807 121.995 46.196 121.181C47.802 120.242 49.535 119.823 51.386 120.245C53.766 120.789 55.14 122.34 55.648 124.688C55.75 125.162 55.764 125.652 55.819 126.134ZM53.213 127.138L53.144 127.128V126.842C53.105 125.446 52.832 124.116 51.999 122.956C51.382 122.095 50.556 121.555 49.497 121.404C47.771 121.158 46.643 122.182 46.269 123.573C45.781 125.39 45.934 127.185 46.689 128.908C47.16 129.982 47.904 130.819 49.047 131.225C50.829 131.858 52.443 131.02 52.894 129.191C53.06 128.522 53.11 127.824 53.213 127.138Z" fill="#7F5AF0"/>
        <path fill-rule="evenodd" clip-rule="evenodd" d="M97.362 48.544C98.589 52.091 99.471 55.712 99.762 59.464C100.122 64.12 99.958 68.744 98.976 73.323L98.85 73.689C98.542 73.69 98.228 73.651 97.927 73.698C95.384 74.098 92.844 74.512 90.303 74.924C87.676 75.35 85.047 75.759 82.425 76.213C81.496 76.373 80.346 76.182 79.971 77.466L79.791 77.527L79.918 69.849L79.789 51.323L81.013 51.113C83.014 50.786 85.015 50.453 87.019 50.134C89.409 49.755 91.801 49.385 94.193 49.015C95.249 48.853 96.306 48.702 97.362 48.544Z" fill="#7F5AF0"/>
        <path fill-rule="evenodd" clip-rule="evenodd" d="M77.265 99.911C75.974 98.801 74.638 97.74 73.401 96.572C66.743 90.292 61.872 82.899 59.473 73.986C58.812 71.534 58.372 69.041 58.23 66.507C58.13 64.733 57.987 62.944 58.113 61.179C58.446 56.486 59.125 51.838 60.501 47.317L60.577 47.212C60.711 47.39 60.903 47.548 60.971 47.749C62.315 51.705 63.648 55.665 64.975 59.628C69.144 72.079 73.308 84.533 77.484 96.982C77.566 97.225 77.777 97.424 77.929 97.643L77.265 99.911Z" fill="#7F5AF0"/>
        <path fill-rule="evenodd" clip-rule="evenodd" d="M97.362 48.544C96.305 48.701 95.248 48.853 94.193 49.015C91.801 49.385 89.409 49.755 87.019 50.134C85.016 50.452 83.015 50.785 81.013 51.113L79.789 51.323L79.779 50.525C79.738 49.869 79.67 49.213 79.661 48.557L79.524 36.003C79.492 33.384 79.444 30.765 79.391 28.147C79.364 26.5198 79.317 24.893 79.25 23.267C79.21 22.394 79.069 21.525 79.013 20.652C78.98 20.15 79.024 19.644 79.035 19.14C79.659 20.349 80.27 21.567 80.911 22.767C81.924 24.664 83.539 26.062 84.994 27.587C90.74 33.618 94.819 40.626 97.362 48.544Z" fill="#7F5AF0"/>
        <path fill-rule="evenodd" clip-rule="evenodd" d="M79.792 77.527L79.972 77.466C80.347 76.182 81.497 76.373 82.426 76.213C85.048 75.759 87.677 75.35 90.304 74.924C92.845 74.513 95.385 74.099 97.928 73.698C98.229 73.651 98.543 73.69 98.851 73.689C98.376 75.385 98.002 77.118 97.399 78.767C96.714 80.637 95.886 82.463 95.007 84.253C93.6903 86.9223 92.0612 89.4259 90.154 91.711C88.688 93.473 87.054 95.104 85.417 96.713C84.511 97.602 83.445 98.327 82.451 99.127L82.193 98.951L81.266 98.159L80.307 96.055C79.6518 93.6015 79.2942 91.078 79.242 88.539L79.26 88.111L79.391 86.257C79.434 85.624 79.492 84.992 79.519 84.359C79.615 82.083 79.701 79.805 79.792 77.527Z" fill="#7F5AF0"/>
        <path fill-rule="evenodd" clip-rule="evenodd" d="M79.792 77.527C79.702 79.805 79.616 82.084 79.519 84.362C79.492 84.996 79.435 85.628 79.391 86.26L78.807 86.481C77.509 82.66 76.21 78.879 74.94 75.089C72.839 68.818 70.764 62.538 68.666 56.265C66.9718 51.2023 65.2658 46.1437 63.548 41.089C63.467 40.853 63.237 40.667 63.077 40.458L66.817 33.581C66.946 33.804 67.115 34.013 67.196 34.253C68.926 39.373 70.653 44.494 72.365 49.62C74.593 56.29 76.806 62.963 79.032 69.634C79.121 69.9 79.267 70.146 79.407 70.445L79.919 69.849L79.792 77.527Z" fill="#7F5AF0"/>
        <path fill-rule="evenodd" clip-rule="evenodd" d="M63.076 40.458C63.237 40.667 63.467 40.853 63.547 41.089C65.265 46.1436 66.971 51.2023 68.665 56.265C70.763 62.538 72.838 68.818 74.939 75.089C76.209 78.879 77.508 82.659 78.806 86.481L79.39 86.26L79.259 88.114L79.14 88.541C78.937 90.57 78.766 92.603 78.518 94.628C78.394 95.643 78.129 96.639 77.928 97.643C77.777 97.424 77.565 97.225 77.483 96.982C73.306 84.533 69.143 72.079 64.974 59.628C63.6476 55.6656 62.3129 51.7059 60.97 47.749C60.902 47.548 60.71 47.39 60.576 47.212L63.076 40.458Z" fill="#7F5AF0"/>
        <path fill-rule="evenodd" clip-rule="evenodd" d="M79.918 69.849L79.406 70.445C79.266 70.146 79.12 69.9 79.031 69.634C76.805 62.963 74.592 56.29 72.364 49.62C70.65 44.4946 68.927 39.3723 67.195 34.253C67.114 34.013 66.945 33.804 66.816 33.581L71.441 27.497C71.587 27.691 71.795 27.864 71.87 28.083C73.154 31.843 74.426 35.606 75.692 39.372C76.874 42.89 78.038 46.412 79.234 49.924C79.314 50.159 79.593 50.325 79.779 50.525L79.789 51.323L79.918 69.849Z" fill="#7F5AF0"/>
        <path fill-rule="evenodd" clip-rule="evenodd" d="M79.779 50.525C79.592 50.326 79.314 50.16 79.234 49.924C78.039 46.412 76.874 42.89 75.692 39.372C74.427 35.606 73.153 31.843 71.87 28.083C71.795 27.864 71.587 27.691 71.441 27.497C72.945 26.024 74.402 24.498 75.967 23.093C77.358 21.845 78.476 20.507 78.528 18.534L78.638 18.141L79.034 19.139C79.024 19.643 78.979 20.149 79.012 20.651C79.069 21.524 79.21 22.393 79.249 23.266C79.322 24.891 79.357 26.519 79.39 28.146C79.443 30.764 79.491 33.383 79.523 36.002L79.66 48.556C79.67 49.213 79.739 49.869 79.779 50.525Z" fill="#7F5AF0"/>
        <path fill-rule="evenodd" clip-rule="evenodd" d="M77.929 97.642C78.13 96.638 78.395 95.642 78.519 94.627C78.767 92.603 78.938 90.569 79.141 88.54L79.192 88.532L79.242 88.541C79.2942 91.08 79.6518 93.6035 80.307 96.057C80.172 96.235 79.983 96.392 79.911 96.592C79.356 98.158 78.832 99.737 78.274 101.302C78.198 101.516 77.984 101.683 77.835 101.87L77.264 99.91L77.929 97.642Z" fill="#7F5AF0"/>
        <path fill-rule="evenodd" clip-rule="evenodd" d="M77.835 101.871C77.984 101.683 78.198 101.517 78.274 101.303C78.832 99.738 79.356 98.159 79.911 96.593C79.982 96.393 80.172 96.236 80.307 96.058L81.266 98.162C81.077 98.43 80.815 98.673 80.71 98.972L78.874 104.364C78.798 104.581 78.541 104.733 78.367 104.916L77.835 101.871Z" fill="#7F5AF0"/>
        <path fill-rule="evenodd" clip-rule="evenodd" d="M78.367 104.915C78.54 104.732 78.798 104.58 78.874 104.363L80.71 98.971C80.814 98.672 81.077 98.429 81.266 98.161L82.194 98.952C81.746 99.395 81.497 99.907 81.647 100.554L81.365 101.477C81.237 101.635 81.051 101.773 80.988 101.954C80.347 103.79 79.736 105.636 79.09 107.471C79.008 107.703 78.781 107.886 78.622 108.092L78.367 104.915Z" fill="#7F5AF0"/>
        <path fill-rule="evenodd" clip-rule="evenodd" d="M78.621 108.091C78.781 107.885 79.008 107.702 79.089 107.47C79.735 105.635 80.347 103.789 80.987 101.953C81.05 101.772 81.236 101.635 81.364 101.476L80.975 105.712C80.871 105.832 80.721 105.937 80.671 106.076L79.377 109.784C79.286 110.037 79.112 110.263 78.976 110.5C78.855 110.342 78.639 110.189 78.629 110.025C78.591 109.383 78.618 108.736 78.621 108.091Z" fill="#7F5AF0"/>
        <path fill-rule="evenodd" clip-rule="evenodd" d="M78.977 110.501C79.113 110.264 79.287 110.038 79.378 109.785L80.672 106.077C80.722 105.937 80.873 105.833 80.976 105.713L80.986 108.493L80.055 110.88L78.977 110.501Z" fill="#7F5AF0"/>
        <path fill-rule="evenodd" clip-rule="evenodd" d="M80.055 110.88L80.986 108.493L81.178 111.317L80.055 110.88Z" fill="#7F5AF0"/>
        <path fill-rule="evenodd" clip-rule="evenodd" d="M81.646 100.554C81.497 99.908 81.745 99.396 82.193 98.952L82.451 99.128L81.646 100.554Z" fill="#7F5AF0"/>
        <path fill-rule="evenodd" clip-rule="evenodd" d="M79.242 88.542L79.192 88.533L79.141 88.541L79.26 88.114L79.242 88.542Z" fill="#7F5AF0"/>
    </g>
    <defs>
        <filter id="filter0_d_4_89" x="0" y="0" width="158" height="158" filterUnits="userSpaceOnUse" color-interpolation-filters="sRGB">
            <feFlood flood-opacity="0" result="BackgroundImageFix"/>
            <feColorMatrix in="SourceAlpha" type="matrix" values="0 0 0 0 0 0 0 0 0 0 0 0 0 0 0 0 0 0 127 0" result="hardAlpha"/>
            <feMorphology radius="5" operator="dilate" in="SourceAlpha" result="effect1_dropShadow_4_89"/>
            <feOffset/>
            <feGaussianBlur stdDeviation="5"/>
            <feComposite in2="hardAlpha" operator="out"/>
            <feColorMatrix type="matrix" values="0 0 0 0 0.498039 0 0 0 0 0.352941 0 0 0 0 0.941176 0 0 0 0.25 0"/>
            <feBlend mode="normal" in2="BackgroundImageFix" result="effect1_dropShadow_4_89"/>
            <feBlend mode="normal" in="SourceGraphic" in2="effect1_dropShadow_4_89" result="shape"/>
        </filter>
    </defs>
</svg>
