<svg xmlns="http://www.w3.org/2000/svg" width="320" height="320" viewBox="0 0 240 240" overflow="visible">
    <defs>
        <linearGradient id="gradient" x1="0%" y1="0%" x2="100%" y2="100%">
            <stop offset="0%" stop-color="#009BFF">
                <animate attributeName="stop-color" values="#009BFF;#FF3A76;#FFB200;#6A5CFF;#009BFF" dur="6s" repeatCount="indefinite" keyTimes="0;0.25;0.5;0.75;1" calcMode="linear"/>
            </stop>
            <stop offset="25%" stop-color="#FF3A76">
                <animate attributeName="stop-color" values="#FF3A76;#FFB200;#6A5CFF;#009BFF;#FF3A76" dur="6s" repeatCount="indefinite" keyTimes="0;0.25;0.5;0.75;1" calcMode="linear"/>
            </stop>
            <stop offset="50%" stop-color="#FFB200">
                <animate attributeName="stop-color" values="#FFB200;#6A5CFF;#009BFF;#FF3A76;#FFB200" dur="6s" repeatCount="indefinite" keyTimes="0;0.25;0.5;0.75;1" calcMode="linear"/>
            </stop>
            <stop offset="75%" stop-color="#6A5CFF">
                <animate attributeName="stop-color" values="#6A5CFF;#009BFF;#FF3A76;#FFB200;#6A5CFF" dur="6s" repeatCount="indefinite" keyTimes="0;0.25;0.5;0.75;1" calcMode="linear"/>
            </stop>
            <stop offset="100%" stop-color="#009BFF">
                <animate attributeName="stop-color" values="#009BFF;#FF3A76;#FFB200;#6A5CFF;#009BFF" dur="6s" repeatCount="indefinite" keyTimes="0;0.25;0.5;0.75;1" calcMode="linear"/>
            </stop>
        </linearGradient>

        <filter id="shadow3D" x="-60%" y="-60%" width="220%" height="220%">
            <feGaussianBlur in="SourceAlpha" stdDeviation="12" result="blur"/>
            <feOffset in="blur" dx="0" dy="0" result="offsetBlur"/>
            <feMerge>
                <feMergeNode in="offsetBlur"/>
                <feMergeNode in="SourceGraphic"/>
            </feMerge>
        </filter>

        <filter id="glow" x="-200%" y="-200%" width="400%" height="400%">
            <feGaussianBlur in="SourceGraphic" stdDeviation="6" result="blur1"/>
            <feGaussianBlur in="SourceGraphic" stdDeviation="12" result="blur2"/>
            <feGaussianBlur in="SourceGraphic" stdDeviation="18" result="blur3"/>
            <feMerge>
                <feMergeNode in="blur1"/>
                <feMergeNode in="blur2"/>
                <feMergeNode in="blur3"/>
                <feMergeNode in="SourceGraphic"/>
            </feMerge>
        </filter>

        <mask id="lightMask" maskUnits="userSpaceOnUse">
            <g filter="url(#maskFilter)">
                <svg width="154" height="154" x="43" y="43" viewBox="0 0 154 154" fill="none" xmlns="http://www.w3.org/2000/svg">
                    <g clip-path="url(#clip0_7_93)">
                        <g clip-path="url(#clip1_7_93)">
                            <path d="M117.906 0H36.0938C16.1597 0 0 16.1597 0 36.0938V117.906C0 137.84 16.1597 154 36.0938 154H117.906C137.84 154 154 137.84 154 117.906V36.0938C154 16.1597 137.84 0 117.906 0Z" fill="black"/>
                            <path d="M102.971 64.7227C96.6326 36.7613 83.4223 29.3176 80.0523 24.0556C78.6627 21.7376 77.4313 19.3281 76.3678 16.8438C76.1897 19.3277 75.8624 20.8927 73.751 22.7764C69.5117 26.5562 51.5068 41.2283 49.9915 72.9984C48.5798 102.621 71.7682 120.886 74.8314 122.774C77.1871 123.933 80.0559 122.799 81.4558 121.735C92.6334 114.063 107.906 93.6115 102.983 64.7227" fill="#10AA50"/>
                            <path d="M77.3279 107.001C76.7443 114.332 76.3263 118.593 74.844 122.783C74.844 122.783 75.8167 129.762 76.5001 137.156H78.9178C79.4947 131.95 80.3748 126.781 81.555 121.677C78.4251 120.137 77.4482 113.434 77.3279 107.001Z" fill="#B8C4C2"/>
                            <path d="M81.5508 121.681C78.3878 120.22 77.4728 113.376 77.3321 107.001C78.1141 96.4834 78.3421 85.9326 78.0154 75.3914C77.8494 69.8607 78.0936 24.1633 76.6529 17.473C77.6389 19.739 78.774 21.9367 80.0523 24.0516C83.4223 29.3176 96.6368 36.7613 102.971 64.7227C107.906 93.5622 92.7164 113.96 81.5508 121.681Z" fill="#12924F"/>
                        </g>
                    </g>
                    <defs>
                        <clipPath id="clip0_7_93">
                            <rect width="154" height="154" fill="white"/>
                        </clipPath>
                        <clipPath id="clip1_7_93">
                            <rect width="154" height="154" fill="white"/>
                        </clipPath>
                    </defs>
                </svg>

            </g>
        </mask>

        <filter id="maskFilter">
            <feColorMatrix in="SourceGraphic" type="saturate" values="0" result="gray"/>
        </filter>
    </defs>

    <rect x="38" y="38" width="164" height="164" rx="40" ry="40" fill="rgba(0,0,0,1)" filter="url(#shadow3D)"/>

    <rect x="40" y="40" width="160" height="160" rx="40" ry="40" fill="#0D1117"/>

    <rect x="40" y="40" width="160" height="160" rx="40" ry="40" fill="transparent" stroke="url(#gradient)" stroke-width="6" filter="url(#glow)"/>

    <rect x="40" y="40" width="160" height="160" rx="40" ry="40" fill="url(#gradient)" mask="url(#lightMask)"/>
</svg>