<svg xmlns="http://www.w3.org/2000/svg" width="320" height="320" viewBox="0 0 240 240" overflow="visible">
    <defs>
        <linearGradient id="gradient" x1="0%" y1="0%" x2="100%" y2="100%">
            <stop offset="0%" stop-color="#009BFF">
                <animate attributeName="stop-color" values="#009BFF;#FF3A76;#FFB200;#6A5CFF;#009BFF" dur="6s" repeatCount="indefinite" keyTimes="0;0.25;0.5;0.75;1" calcMode="linear"/>
            </stop>
            <stop offset="25%" stop-color="#FF3A76">
                <animate attributeName="stop-color" values="#FF3A76;#FFB200;#6A5CFF;#009BFF;#FF3A76" dur="6s" repeatCount="indefinite" keyTimes="0;0.25;0.5;0.75;1" calcMode="linear"/>
            </stop>
            <stop offset="50%" stop-color="#FFB200">
                <animate attributeName="stop-color" values="#FFB200;#6A5CFF;#009BFF;#FF3A76;#FFB200" dur="6s" repeatCount="indefinite" keyTimes="0;0.25;0.5;0.75;1" calcMode="linear"/>
            </stop>
            <stop offset="75%" stop-color="#6A5CFF">
                <animate attributeName="stop-color" values="#6A5CFF;#009BFF;#FF3A76;#FFB200;#6A5CFF" dur="6s" repeatCount="indefinite" keyTimes="0;0.25;0.5;0.75;1" calcMode="linear"/>
            </stop>
            <stop offset="100%" stop-color="#009BFF">
                <animate attributeName="stop-color" values="#009BFF;#FF3A76;#FFB200;#6A5CFF;#009BFF" dur="6s" repeatCount="indefinite" keyTimes="0;0.25;0.5;0.75;1" calcMode="linear"/>
            </stop>
        </linearGradient>

        <filter id="shadow3D" x="-60%" y="-60%" width="220%" height="220%">
            <feGaussianBlur in="SourceAlpha" stdDeviation="12" result="blur"/>
            <feOffset in="blur" dx="0" dy="0" result="offsetBlur"/>
            <feMerge>
                <feMergeNode in="offsetBlur"/>
                <feMergeNode in="SourceGraphic"/>
            </feMerge>
        </filter>

        <filter id="glow" x="-200%" y="-200%" width="400%" height="400%">
            <feGaussianBlur in="SourceGraphic" stdDeviation="6" result="blur1"/>
            <feGaussianBlur in="SourceGraphic" stdDeviation="12" result="blur2"/>
            <feGaussianBlur in="SourceGraphic" stdDeviation="18" result="blur3"/>
            <feMerge>
                <feMergeNode in="blur1"/>
                <feMergeNode in="blur2"/>
                <feMergeNode in="blur3"/>
                <feMergeNode in="SourceGraphic"/>
            </feMerge>
        </filter>

        <mask id="lightMask" maskUnits="userSpaceOnUse">
            <g filter="url(#maskFilter)">
                <svg width="154" height="154" x="43" y="43" viewBox="0 0 154 154" fill="none" xmlns="http://www.w3.org/2000/svg">
                    <g clip-path="url(#clip0_7_407)">
                        <mask id="mask0_7_407" style="mask-type:luminance" maskUnits="userSpaceOnUse" x="0" y="0" width="154" height="154">
                            <path d="M154 0H0V154H154V0Z" fill="white"/>
                        </mask>
                        <g mask="url(#mask0_7_407)">
                            <mask id="mask1_7_407" style="mask-type:luminance" maskUnits="userSpaceOnUse" x="0" y="0" width="154" height="154">
                                <path d="M154 0H0V154H154V0Z" fill="white"/>
                            </mask>
                            <g mask="url(#mask1_7_407)">
                                <path d="M122.406 89.4451C110.182 91.9657 109.294 87.8251 109.294 87.8251C122.207 68.6641 127.609 44.3432 122.947 38.392C110.242 22.1498 88.2426 29.8352 87.8744 30.034L87.7559 30.0551C85.0694 29.516 82.3377 29.2314 79.5969 29.205C74.0644 29.1204 69.8685 30.6557 66.6796 33.071C66.6796 33.071 27.4359 16.9049 29.2632 53.4033C29.6523 61.1693 40.3874 112.197 53.2035 96.7583C57.9239 91.082 62.4494 86.3146 62.4494 86.3146C64.6914 87.8077 67.3858 88.5692 70.2072 88.2943L70.4267 88.1085C70.3624 88.8394 70.3924 89.5757 70.5158 90.2993C67.2168 93.9875 68.1895 94.6348 61.591 95.9925C54.9165 97.3671 58.8417 99.8161 61.3967 100.459C64.5013 101.238 71.6834 102.337 76.5392 95.5444L76.3443 96.318C77.6389 97.3545 78.5436 103.056 78.3914 108.225C78.2392 113.394 78.1375 116.938 79.153 119.713C80.1678 122.488 81.1833 128.722 89.8542 126.903C97.1 125.351 100.851 121.32 101.38 114.612C101.752 109.841 102.59 110.543 102.649 106.279L103.326 104.257C104.1 97.7858 103.453 95.7008 107.915 96.6735L109.002 96.771C112.289 96.9189 116.591 96.2422 119.111 95.0703C124.546 92.5498 127.769 88.3364 122.41 89.4451H122.406Z" fill="#C9C9C9"/>
                                <path d="M87.8702 29.2336C86.5167 29.6566 109.713 20.753 122.901 37.6001C127.554 43.5513 122.161 67.8725 109.247 87.0329M77.059 92.5107C76.7209 104.549 77.1438 116.671 78.3198 119.581C79.4953 122.491 82.0206 128.252 90.6958 126.399C97.9416 124.847 100.581 121.839 101.723 115.203L104.4 93.9827L77.059 92.5107ZM66.6627 32.1648C66.6627 32.1648 27.3937 16.1088 29.2209 52.6071C29.61 60.3728 40.3451 111.4 53.1612 95.9619C57.8393 90.3234 62.0692 85.9122 62.0692 85.9122L66.6627 32.1648Z" stroke="white" stroke-width="3.02827" stroke-linecap="round" stroke-linejoin="round"/>
                                <path d="M109.252 87.0244C109.252 87.0244 110.098 91.1698 122.364 88.6402C127.723 87.5322 124.496 91.7449 119.065 94.266C114.607 96.3384 104.608 96.8672 104.443 94.0122C104.02 86.631 109.705 88.873 109.294 87.0244C108.922 85.3581 106.376 83.7255 104.701 79.6481C103.233 76.0946 84.5671 48.8131 109.878 52.8609C110.808 52.6706 103.279 28.7514 79.5927 28.4046C55.9063 28.0578 56.655 57.5263 56.655 57.5263" stroke="white" stroke-width="3.02827" stroke-linecap="round" stroke-linejoin="bevel"/>
                                <path d="M70.4309 89.554C67.132 93.2422 68.1047 93.8895 61.5068 95.2472C54.8319 96.6218 58.7571 99.0707 61.3118 99.7138C64.4165 100.492 71.5986 101.592 76.4544 94.7942C77.9348 92.7218 76.446 89.4229 74.4157 88.5855C73.4345 88.1794 72.1231 87.6717 70.44 89.5582L70.4309 89.554Z" stroke="white" stroke-width="3.02827" stroke-linejoin="round"/>
                                <path d="M70.2156 89.4902C69.8769 87.3204 70.926 84.7445 72.0467 81.7247C73.7305 77.1991 77.6136 72.673 74.5089 58.3046C72.1953 47.6034 56.6592 56.0755 56.6592 57.5263C56.6592 58.9771 57.3613 64.8863 56.4054 71.7592C55.1492 80.7351 62.1155 88.3232 70.135 87.549" stroke="white" stroke-width="3.02827" stroke-linecap="round" stroke-linejoin="round"/>
                                <path d="M66.519 57.3106C66.4468 57.8055 67.4279 59.1294 68.7014 59.307C69.9744 59.4847 71.0614 58.4526 71.1336 57.9535C71.2051 57.4544 70.224 56.913 68.9511 56.7353C67.6776 56.5577 66.5821 56.8199 66.519 57.3106Z" fill="white" stroke="white" stroke-width="1.01063"/>
                                <path d="M105.28 56.2997C105.347 56.7946 104.37 58.1185 103.098 58.2962C101.824 58.4738 100.729 57.4417 100.665 56.9426C100.602 56.4435 101.575 55.9021 102.848 55.7245C104.121 55.5468 105.216 55.8091 105.28 56.2997Z" fill="white" stroke="white" stroke-width="0.503508"/>
                                <path d="M109.831 52.8693C110.043 56.7607 108.993 59.4043 108.858 63.5455C108.664 69.5599 111.726 76.446 107.111 83.3405" stroke="white" stroke-width="3.02827" stroke-linecap="round" stroke-linejoin="round"/>
                            </g>
                        </g>
                    </g>
                    <defs>
                        <clipPath id="clip0_7_407">
                            <rect width="154" height="154" fill="white"/>
                        </clipPath>
                    </defs>
                </svg>
            </g>
        </mask>

        <filter id="maskFilter">
            <feColorMatrix in="SourceGraphic" type="saturate" values="0" result="gray"/>
        </filter>
    </defs>

    <rect x="38" y="38" width="164" height="164" rx="40" ry="40" fill="rgba(0,0,0,1)" filter="url(#shadow3D)"/>

    <rect x="40" y="40" width="160" height="160" rx="40" ry="40" fill="#0D1117"/>

    <rect x="40" y="40" width="160" height="160" rx="40" ry="40" fill="transparent" stroke="url(#gradient)" stroke-width="6" filter="url(#glow)"/>

    <rect x="40" y="40" width="160" height="160" rx="40" ry="40" fill="url(#gradient)" mask="url(#lightMask)"/>
</svg>