<svg width="158" height="158" viewBox="0 0 158 158" fill="none" xmlns="http://www.w3.org/2000/svg">
    <g filter="url(#filter0_d_3_81)">
        <rect x="15" y="15" width="128" height="128" fill="#0D1117"/>
        <rect x="16" y="16" width="126" height="126" stroke="#C9D1D9" stroke-width="2"/>
        <path d="M100.988 91.075C101.62 85.813 101.431 85.041 105.35 85.893L106.345 85.981C109.359 86.118 113.302 85.496 115.617 84.42C120.603 82.107 123.559 78.243 118.643 79.258C107.428 81.571 106.657 77.775 106.657 77.775C118.5 60.204 123.451 37.9 119.178 32.44C107.524 17.548 87.35 24.59 87.012 24.773L86.904 24.794C84.688 24.333 82.209 24.059 79.423 24.014C74.348 23.931 70.497 25.345 67.576 27.56C67.576 27.56 31.587 12.733 33.261 46.206C33.617 53.327 43.468 100.088 55.217 85.964C59.511 80.8 63.661 76.433 63.661 76.433C65.722 77.802 68.189 78.5 70.777 78.249L70.977 78.079C70.915 78.72 70.942 79.347 71.058 80.089C68.031 83.472 68.921 84.066 62.869 85.311C56.747 86.573 60.344 88.819 62.691 89.406C65.539 90.119 72.124 91.128 76.575 84.897L76.398 85.608C77.586 86.558 77.505 92.435 77.673 96.634C77.841 100.833 78.123 104.751 78.979 107.063C79.835 109.373 80.845 115.324 88.798 113.62C95.444 112.194 100.525 110.144 100.988 91.075Z" fill="#7F5AF0"/>
        <path d="M86.208 117.77C82.69 117.77 80.4 116.41 79.008 115.096C76.908 113.115 76.075 110.562 75.578 109.037L75.363 108.4C74.361 105.695 74.022 101.801 73.821 96.787C73.7914 96.0032 73.7664 95.2191 73.746 94.435C73.729 93.834 73.708 93.08 73.678 92.289C72.4106 92.8934 71.0654 93.3188 69.681 93.553C67.201 93.977 64.535 93.839 61.755 93.144C59.794 92.654 57.756 91.638 56.595 90.068C53.21 93.033 49.981 92.63 48.222 92.044C45.119 91.009 42.342 88.102 39.731 83.154C37.872 79.631 36.073 75.039 34.384 69.508C31.444 59.875 29.576 49.729 29.41 46.399C28.888 35.972 31.694 28.516 37.75 24.239C47.305 17.49 61.78 21.458 67.057 23.26C70.602 21.123 74.773 20.082 79.487 20.158C82.019 20.199 84.429 20.422 86.668 20.82C89.003 20.086 93.617 19.032 98.898 19.097C108.628 19.213 116.691 23.005 122.214 30.063C126.155 35.099 124.207 45.673 122.694 51.529C120.567 59.764 116.838 68.525 112.258 76.151C113.502 76.16 115.303 76.01 117.865 75.482C122.919 74.438 124.396 77.148 124.797 78.361C126.404 83.228 119.419 86.905 117.24 87.916C114.448 89.213 109.897 90.002 106.169 89.831L106.006 89.82L105.027 89.734L104.93 90.55L104.837 91.349C104.587 101.013 103.206 107.133 100.365 111.178C97.388 115.417 93.249 116.606 89.604 117.387C88.4887 117.634 87.3504 117.763 86.208 117.77ZM78.806 82.596C81.077 84.413 81.276 87.832 81.453 94.222C81.475 95.019 81.496 95.774 81.524 96.479C81.61 98.613 81.811 103.611 82.593 105.723C82.704 106.021 82.803 106.325 82.907 106.645C83.779 109.317 84.217 110.656 87.988 109.848C91.155 109.17 92.782 108.561 94.056 106.747C95.908 104.109 96.944 98.806 97.134 90.98L100.986 91.074L97.16 90.615L97.272 89.66C97.639 86.512 97.903 84.236 100.008 82.732C101.696 81.525 103.621 81.642 105.154 81.918C103.47 80.647 103.004 79.153 102.88 78.541L102.559 76.959L103.461 75.619C108.661 67.903 112.95 58.42 115.228 49.601C117.568 40.539 116.854 35.726 116.141 34.816C106.695 22.745 90.312 27.728 88.602 28.295L88.312 28.451L86.862 28.722L86.119 28.568C84.072 28.143 81.798 27.908 79.359 27.868C75.528 27.804 72.438 28.709 69.904 30.632L68.146 31.965L66.105 31.124C61.747 29.342 48.943 25.759 42.187 30.544C38.437 33.2 36.729 38.405 37.109 46.014C37.234 48.526 38.942 58.035 41.756 67.259C45.647 80.005 49.183 84.238 50.659 84.731C50.916 84.818 51.585 84.298 52.25 83.5C56.576 78.297 60.69 73.96 60.863 73.777L63.094 71.43L65.791 73.222C66.878 73.945 68.077 74.354 69.309 74.431L75.742 68.945L74.81 78.455C74.789 78.669 74.779 78.959 74.863 79.499L75.143 81.302L73.93 82.66L73.79 82.817L77.324 84.449L78.806 82.596Z" fill="#0D1117"/>
        <path d="M118.646 79.258C107.43 81.571 106.659 77.774 106.659 77.774C118.501 60.203 123.451 37.898 119.179 32.439C107.524 17.547 87.35 24.59 87.013 24.773L86.904 24.792C84.688 24.333 82.209 24.059 79.422 24.014C74.347 23.931 70.497 25.344 67.576 27.559C67.576 27.559 31.586 12.733 33.26 46.206C33.616 53.327 43.467 100.088 55.216 85.964C59.51 80.8 63.659 76.433 63.659 76.433C65.72 77.802 68.187 78.5 70.774 78.249L70.975 78.079C70.913 78.72 70.941 79.347 71.055 80.089C68.029 83.472 68.917 84.066 62.867 85.311C56.744 86.573 60.341 88.819 62.69 89.406C65.537 90.119 72.123 91.128 76.573 84.897L76.395 85.608C77.581 86.558 78.414 91.787 78.274 96.527C78.134 101.267 78.041 104.521 78.976 107.063C79.911 109.604 80.842 115.324 88.796 113.62C95.442 112.195 98.886 108.504 99.366 102.348C99.706 97.971 100.475 98.618 100.524 94.704L101.142 92.851C101.853 86.917 101.255 85.003 105.35 85.894L106.345 85.981C109.359 86.119 113.303 85.496 115.618 84.42C120.604 82.106 123.561 78.243 118.646 79.258Z" fill="#7F5AF0"/>
        <path d="M86.61 115.394C79.979 115.395 77.879 110.144 77.019 107.997C75.762 104.851 75.49 92.639 75.77 82.624C75.7887 82.2896 75.937 81.9757 76.1835 81.7491C76.4301 81.5224 76.7553 81.4008 77.09 81.4102C77.4248 81.4196 77.7427 81.5592 77.9761 81.7993C78.2095 82.0394 78.3401 82.3611 78.34 82.696C78.017 94.247 78.476 104.714 79.406 107.042C80.859 110.674 83.062 113.851 89.293 112.517C95.208 111.248 97.423 109.005 98.409 103.287C99.167 98.898 100.663 86.413 100.847 83.949C100.872 83.6091 101.032 83.2932 101.29 83.0708C101.548 82.8484 101.884 82.7377 102.224 82.763C102.564 82.7883 102.88 82.9476 103.102 83.2059C103.325 83.4641 103.435 83.8001 103.41 84.14C103.218 86.704 101.728 99.166 100.941 103.724C99.776 110.479 96.765 113.543 89.831 115.03C88.7731 115.264 87.6935 115.386 86.61 115.394ZM50.659 89.749C50.0795 89.7484 49.504 89.6535 48.955 89.468C44.648 88.031 40.546 81.017 36.762 68.619C33.882 59.181 32.057 49.331 31.897 46.13C31.422 36.64 33.867 29.925 39.162 26.173C49.638 18.75 67.262 25.819 68.007 26.123C68.3196 26.2538 68.5679 26.5029 68.6978 26.8159C68.8277 27.129 68.8286 27.4807 68.7005 27.7944C68.5723 28.1081 68.3253 28.3585 68.0134 28.4911C67.7015 28.6236 67.3498 28.6275 67.035 28.502V28.503C66.865 28.433 49.965 21.663 40.643 28.274C36.115 31.485 34.036 37.449 34.463 46.003C34.598 48.699 36.303 58.314 39.22 67.87C42.598 78.937 46.443 85.922 49.768 87.03C50.289 87.205 51.877 87.734 54.149 85.004C58.421 79.864 62.346 75.762 62.385 75.721C62.624 75.4894 62.9435 75.3595 63.2762 75.3586C63.609 75.3576 63.9292 75.4857 64.1695 75.7159C64.4098 75.9461 64.5515 76.2605 64.5649 76.593C64.5782 76.9256 64.4621 77.2503 64.241 77.499C64.202 77.539 60.337 81.58 56.125 86.647C54.13 89.045 52.217 89.749 50.659 89.749ZM106.579 78.92C106.346 78.9203 106.117 78.8571 105.917 78.737C105.716 78.617 105.553 78.4446 105.443 78.2386C105.334 78.0325 105.283 77.8005 105.295 77.5675C105.307 77.3344 105.383 77.1092 105.514 76.916C117.485 59.152 121.687 37.689 118.088 33.091C113.558 27.303 107.161 24.279 99.076 24.106C93.089 23.976 88.33 25.505 87.553 25.772L87.358 25.851C86.576 26.097 85.976 25.668 85.75 25.167C85.6212 24.88 85.6018 24.5557 85.6953 24.2554C85.7889 23.955 85.989 23.6992 86.258 23.536L86.604 23.394L86.587 23.399L86.605 23.393C87.926 22.91 92.757 21.46 98.742 21.529C107.689 21.623 115.079 25.074 120.113 31.506C122.495 34.55 122.5 41.563 120.128 50.746C117.71 60.108 113.16 70.171 107.646 78.353C107.528 78.5279 107.37 78.6712 107.183 78.7701C106.997 78.869 106.79 78.9205 106.579 78.92ZM107.19 87.143C105.146 87.143 103.314 86.856 102.217 86.198C101.089 85.523 100.874 84.604 100.846 84.117C100.538 78.713 103.52 77.772 105.041 77.343C104.829 77.023 104.527 76.646 104.216 76.257C103.329 75.149 102.115 73.631 101.179 71.361C101.033 71.007 100.573 70.182 100.041 69.228C97.158 64.059 91.16 53.302 95.013 47.793C96.797 45.244 100.347 44.241 105.579 44.801C104.04 40.112 96.71 25.443 79.32 25.158C74.089 25.07 69.799 26.679 66.576 29.933C59.359 37.222 59.621 50.41 59.624 50.541C59.6284 50.7097 59.5995 50.8776 59.539 51.0351C59.4786 51.1926 59.3876 51.3367 59.2715 51.4591C59.1553 51.5815 59.0162 51.6798 58.862 51.7484C58.7078 51.817 58.5417 51.8546 58.373 51.859C58.2043 51.8634 58.0364 51.8345 57.8789 51.774C57.7214 51.7136 57.5773 51.6226 57.4549 51.5065C57.3325 51.3903 57.2342 51.2512 57.1656 51.097C57.097 50.9428 57.0594 50.7767 57.055 50.608C57.039 50.023 56.769 36.184 64.75 28.124C68.485 24.352 73.401 22.49 79.362 22.587C90.49 22.77 97.651 28.426 101.7 33.14C106.112 38.276 108.276 43.942 108.454 45.832C108.587 47.238 107.578 47.52 107.374 47.561L106.911 47.572C101.776 46.75 98.482 47.32 97.12 49.267C94.189 53.455 99.863 63.63 102.286 67.976C102.905 69.084 103.351 69.885 103.555 70.38C104.351 72.31 105.389 73.607 106.223 74.649C106.956 75.566 107.592 76.36 107.82 77.294C107.925 77.479 109.423 79.693 118.308 77.859C120.535 77.4 121.87 77.793 122.278 79.027C123.081 81.456 118.576 84.288 116.082 85.447C113.844 86.486 110.277 87.143 107.19 87.143ZM103.409 83.905C103.69 84.19 105.1 84.68 108.021 84.555C110.617 84.443 113.356 83.878 115 83.116C117.102 82.14 118.504 81.049 119.231 80.304L118.827 80.378C113.146 81.551 109.128 81.395 106.885 79.913C106.734 79.8136 106.589 79.7057 106.45 79.59C106.207 79.686 105.982 79.749 105.822 79.794C104.549 80.151 103.233 80.52 103.409 83.905ZM66.712 91.084C65.301 91.084 63.816 90.893 62.299 90.512C60.728 90.119 58.078 88.936 58.119 86.993C58.164 84.812 61.335 84.158 62.53 83.912C66.842 83.024 67.123 82.668 68.471 80.957C68.864 80.458 69.353 79.837 70.019 79.092C71.009 77.985 72.091 77.423 73.235 77.423C74.031 77.423 74.685 77.694 75.116 77.872C76.492 78.442 77.64 79.82 78.112 81.47C78.538 82.958 78.335 84.39 77.54 85.502C74.932 89.155 71.188 91.084 66.712 91.084ZM60.895 87.104C61.283 87.403 62.059 87.803 62.922 88.02C64.236 88.348 65.51 88.515 66.712 88.515C70.374 88.515 73.313 86.998 75.449 84.009C75.894 83.385 75.761 82.594 75.642 82.177C75.392 81.305 74.772 80.512 74.133 80.246C73.786 80.102 73.499 79.992 73.235 79.992C73.093 79.992 72.662 79.992 71.935 80.805C71.321 81.491 70.88 82.051 70.489 82.546C68.811 84.677 68.042 85.4 63.048 86.429C61.83 86.681 61.205 86.935 60.895 87.104ZM70.777 81.176C70.4702 81.1755 70.1738 81.0654 69.941 80.8655C69.7083 80.6657 69.5548 80.3892 69.508 80.086C69.4751 79.8726 69.4538 79.6577 69.444 79.442C66.17 79.38 63.012 77.976 60.615 75.474C57.584 72.311 56.204 67.929 56.83 63.452C57.51 58.59 57.256 54.298 57.119 51.992C57.0847 51.5177 57.0637 51.0425 57.056 50.567C57.058 50.161 57.066 49.082 60.671 47.255C61.953 46.605 64.524 45.471 67.332 45.18C71.986 44.7 75.053 46.772 75.971 51.016C78.449 62.476 76.167 67.545 74.501 71.246C74.19 71.934 73.897 72.586 73.663 73.216L73.456 73.773C72.576 76.133 71.815 78.172 72.049 79.696C72.1004 80.0329 72.0161 80.3764 71.8146 80.6513C71.6131 80.9261 71.3108 81.1098 70.974 81.162L70.777 81.176ZM59.634 50.922L59.685 51.84C59.827 54.235 60.091 58.693 59.375 63.809C58.859 67.501 59.987 71.106 62.47 73.697C64.432 75.745 67.016 76.875 69.671 76.875H69.726C70.024 75.622 70.517 74.3 71.048 72.875L71.254 72.322C71.519 71.61 71.829 70.921 72.157 70.192C73.761 66.628 75.757 62.192 73.458 51.559C73.002 49.454 71.898 48.235 70.083 47.833C66.355 47.009 60.8 49.813 59.634 50.922ZM67.39 50.377C67.326 50.831 68.223 52.044 69.391 52.206C70.558 52.369 71.557 51.421 71.62 50.967C71.683 50.512 70.787 50.012 69.618 49.849C68.451 49.686 67.452 49.922 67.39 50.377ZM69.66 52.654L69.332 52.631C68.607 52.53 67.874 52.073 67.373 51.408C67.197 51.175 66.909 50.721 66.966 50.317C67.048 49.724 67.77 49.37 68.899 49.37C69.152 49.37 69.414 49.389 69.679 49.425C70.295 49.511 70.868 49.689 71.291 49.925C72.024 50.335 72.078 50.791 72.045 51.028C71.954 51.681 70.912 52.654 69.66 52.654ZM67.816 50.453C67.853 50.733 68.546 51.658 69.45 51.783L69.659 51.798C70.493 51.798 71.117 51.141 71.19 50.926C71.113 50.78 70.577 50.415 69.559 50.275C69.3401 50.2435 69.1192 50.2275 68.898 50.227C68.246 50.226 67.897 50.373 67.816 50.453ZM102.937 49.45C103 49.905 102.105 51.118 100.936 51.28C99.768 51.442 98.769 50.495 98.705 50.04C98.643 49.586 99.539 49.085 100.707 48.923C101.875 48.759 102.873 48.997 102.937 49.45ZM100.667 51.512C99.542 51.512 98.573 50.637 98.493 50.07C98.401 49.389 99.522 48.871 100.678 48.711C100.932 48.675 101.184 48.657 101.427 48.657C102.424 48.657 103.084 48.95 103.15 49.421C103.193 49.727 102.959 50.198 102.555 50.622C102.289 50.902 101.729 51.387 100.967 51.492L100.667 51.512ZM101.426 49.085C101.203 49.085 100.971 49.102 100.736 49.134C99.574 49.295 98.883 49.762 98.916 50.012C98.955 50.286 99.696 51.084 100.666 51.084L100.905 51.067C101.539 50.978 102.015 50.565 102.242 50.326C102.598 49.951 102.74 49.599 102.723 49.478C102.702 49.321 102.274 49.085 101.426 49.085ZM104.62 75.538C104.387 75.5379 104.159 75.4745 103.959 75.3547C103.76 75.2349 103.597 75.0632 103.487 74.8579C103.377 74.6525 103.326 74.4212 103.337 74.1888C103.349 73.9563 103.423 73.7314 103.553 73.538C106.289 69.451 105.788 65.282 105.304 61.252C105.097 59.534 104.884 57.759 104.94 56.054C104.996 54.301 105.218 52.855 105.434 51.455C105.689 49.798 105.93 48.231 105.83 46.373C105.823 46.0391 105.946 45.7154 106.173 45.4704C106.4 45.2255 106.713 45.0785 107.047 45.0606C107.38 45.0426 107.708 45.1552 107.96 45.3744C108.212 45.5936 108.369 45.9022 108.397 46.235C108.511 48.359 108.238 50.131 107.974 51.846C107.77 53.169 107.559 54.537 107.508 56.136C107.459 57.645 107.652 59.248 107.856 60.944C108.372 65.231 108.955 70.09 105.689 74.967C105.441 75.337 105.034 75.538 104.62 75.538Z" fill="#C9D1D9"/>
        <path d="M17.835 118.184C19.2708 117.951 20.7235 117.838 22.178 117.846C24.413 117.846 26.052 118.366 27.092 119.302C28.054 120.134 28.626 121.408 28.626 122.969C28.626 124.555 28.157 125.803 27.273 126.713C26.077 127.987 24.127 128.637 21.917 128.637C21.241 128.637 20.617 128.611 20.098 128.481V135.502H17.835V118.184ZM20.098 126.634C20.592 126.764 21.216 126.816 21.97 126.816C24.699 126.816 26.364 125.49 26.364 123.072C26.364 120.758 24.726 119.64 22.23 119.64C21.242 119.64 20.488 119.718 20.098 119.822V126.634ZM42.328 129.104C42.328 133.758 39.103 135.787 36.061 135.787C32.655 135.787 30.029 133.291 30.029 129.312C30.029 125.1 32.785 122.63 36.269 122.63C39.884 122.629 42.328 125.256 42.328 129.104ZM32.344 129.234C32.344 131.99 33.93 134.07 36.166 134.07C38.35 134.07 39.987 132.016 39.987 129.182C39.987 127.05 38.922 124.346 36.217 124.346C33.512 124.346 32.344 126.842 32.344 129.234ZM44.901 133.16C45.577 133.602 46.773 134.07 47.917 134.07C49.581 134.07 50.361 133.238 50.361 132.198C50.361 131.106 49.712 130.508 48.021 129.884C45.759 129.078 44.693 127.83 44.693 126.322C44.693 124.294 46.331 122.63 49.035 122.63C50.309 122.63 51.428 122.994 52.13 123.41L51.558 125.074C50.7842 124.597 49.8929 124.345 48.984 124.346C47.632 124.346 46.878 125.126 46.878 126.062C46.878 127.102 47.633 127.57 49.271 128.194C51.455 129.026 52.573 130.118 52.573 131.99C52.573 134.2 50.857 135.76 47.867 135.76C46.489 135.76 45.215 135.422 44.331 134.902L44.901 133.16ZM58.266 119.301V122.915H61.541V124.657H58.266V131.443C58.266 133.003 58.707 133.887 59.982 133.887C60.4289 133.893 60.8748 133.841 61.308 133.731L61.412 135.447C60.971 135.629 60.268 135.759 59.385 135.759C58.319 135.759 57.46 135.421 56.914 134.797C56.265 134.121 56.03 133.003 56.03 131.521V124.657H54.08V122.915H56.03V119.899L58.266 119.301ZM74.802 122.916C74.749 123.826 74.698 124.84 74.698 126.374V133.68C74.698 136.566 74.126 138.334 72.904 139.427C71.682 140.571 69.914 140.935 68.328 140.935C66.82 140.935 65.156 140.571 64.141 139.895L64.713 138.153C65.545 138.673 66.845 139.141 68.405 139.141C70.745 139.141 72.461 137.919 72.461 134.747V133.343H72.409C71.707 134.513 70.355 135.449 68.405 135.449C65.285 135.449 63.049 132.797 63.049 129.312C63.049 125.048 65.831 122.63 68.717 122.63C70.902 122.63 72.098 123.774 72.644 124.814H72.696L72.8 122.916H74.802ZM72.436 127.882C72.436 127.492 72.41 127.154 72.306 126.842C71.89 125.516 70.772 124.424 69.108 124.424C66.923 124.424 65.364 126.27 65.364 129.182C65.364 131.652 66.612 133.706 69.082 133.706C70.486 133.706 71.76 132.822 72.254 131.366C72.384 130.976 72.437 130.534 72.437 130.144L72.436 127.882ZM78.337 126.842C78.337 125.36 78.311 124.086 78.233 122.916H80.236L80.313 125.386H80.417C80.989 123.696 82.367 122.63 83.901 122.63C84.161 122.63 84.342 122.656 84.55 122.708V124.866C84.2942 124.81 84.0328 124.784 83.771 124.788C82.159 124.788 81.014 126.01 80.703 127.726C80.6388 128.078 80.604 128.434 80.599 128.792V135.5H78.337V126.842ZM87.854 129.624C87.906 132.718 89.881 133.992 92.169 133.992C93.808 133.992 94.795 133.706 95.653 133.342L96.043 134.98C95.237 135.344 93.859 135.76 91.857 135.76C87.983 135.76 85.669 133.212 85.669 129.416C85.669 125.62 87.905 122.629 91.571 122.629C95.679 122.629 96.771 126.243 96.771 128.557C96.771 129.025 96.719 129.389 96.693 129.623L87.854 129.624ZM94.562 127.986C94.587 126.53 93.963 124.268 91.39 124.268C89.076 124.268 88.062 126.4 87.879 127.986H94.562Z" fill="#7F5AF0"/>
        <path d="M99.371 132.744C100.597 133.48 101.997 133.875 103.427 133.888C105.741 133.888 107.093 132.666 107.093 130.898C107.093 129.26 106.157 128.324 103.791 127.414C100.931 126.4 99.163 124.918 99.163 122.448C99.163 119.718 101.425 117.69 104.831 117.69C106.625 117.69 107.925 118.106 108.705 118.548L108.081 120.394C107.058 119.844 105.914 119.558 104.753 119.562C102.361 119.562 101.451 120.992 101.451 122.188C101.451 123.826 102.516 124.632 104.935 125.568C107.899 126.713 109.407 128.142 109.407 130.716C109.407 133.42 107.405 135.76 103.271 135.76C101.581 135.76 99.735 135.266 98.798 134.642L99.371 132.744ZM126.957 138.074C124.697 137.481 122.459 136.804 120.249 136.046C119.885 135.916 119.521 135.786 119.183 135.786C115.023 135.63 111.461 132.562 111.461 126.92C111.461 121.304 114.893 117.69 119.625 117.69C124.383 117.69 127.478 121.382 127.478 126.556C127.478 131.054 125.398 133.94 122.486 134.954V135.058C124.228 135.5 126.126 135.916 127.608 136.176L126.957 138.074ZM125.085 126.66C125.085 123.15 123.266 119.535 119.547 119.535C115.725 119.535 113.853 123.071 113.879 126.868C113.853 130.586 115.907 133.94 119.443 133.94C123.058 133.94 125.085 130.664 125.085 126.66ZM130.414 117.976H132.677V133.602H140.165V135.5H130.414V117.976Z" fill="#7F5AF0"/>
    </g>
    <defs>
        <filter id="filter0_d_3_81" x="0" y="0" width="158" height="158" filterUnits="userSpaceOnUse" color-interpolation-filters="sRGB">
            <feFlood flood-opacity="0" result="BackgroundImageFix"/>
            <feColorMatrix in="SourceAlpha" type="matrix" values="0 0 0 0 0 0 0 0 0 0 0 0 0 0 0 0 0 0 127 0" result="hardAlpha"/>
            <feMorphology radius="5" operator="dilate" in="SourceAlpha" result="effect1_dropShadow_3_81"/>
            <feOffset/>
            <feGaussianBlur stdDeviation="5"/>
            <feComposite in2="hardAlpha" operator="out"/>
            <feColorMatrix type="matrix" values="0 0 0 0 0.498039 0 0 0 0 0.352941 0 0 0 0 0.941176 0 0 0 0.25 0"/>
            <feBlend mode="normal" in2="BackgroundImageFix" result="effect1_dropShadow_3_81"/>
            <feBlend mode="normal" in="SourceGraphic" in2="effect1_dropShadow_3_81" result="shape"/>
        </filter>
    </defs>
</svg>
