<svg xmlns="http://www.w3.org/2000/svg" width="320" height="320" viewBox="0 0 240 240" overflow="visible">
    <defs>
        <linearGradient id="gradient" x1="0%" y1="0%" x2="100%" y2="100%">
            <stop offset="0%" stop-color="#009BFF">
                <animate attributeName="stop-color" values="#009BFF;#FF3A76;#FFB200;#6A5CFF;#009BFF" dur="6s" repeatCount="indefinite" keyTimes="0;0.25;0.5;0.75;1" calcMode="linear"/>
            </stop>
            <stop offset="25%" stop-color="#FF3A76">
                <animate attributeName="stop-color" values="#FF3A76;#FFB200;#6A5CFF;#009BFF;#FF3A76" dur="6s" repeatCount="indefinite" keyTimes="0;0.25;0.5;0.75;1" calcMode="linear"/>
            </stop>
            <stop offset="50%" stop-color="#FFB200">
                <animate attributeName="stop-color" values="#FFB200;#6A5CFF;#009BFF;#FF3A76;#FFB200" dur="6s" repeatCount="indefinite" keyTimes="0;0.25;0.5;0.75;1" calcMode="linear"/>
            </stop>
            <stop offset="75%" stop-color="#6A5CFF">
                <animate attributeName="stop-color" values="#6A5CFF;#009BFF;#FF3A76;#FFB200;#6A5CFF" dur="6s" repeatCount="indefinite" keyTimes="0;0.25;0.5;0.75;1" calcMode="linear"/>
            </stop>
            <stop offset="100%" stop-color="#009BFF">
                <animate attributeName="stop-color" values="#009BFF;#FF3A76;#FFB200;#6A5CFF;#009BFF" dur="6s" repeatCount="indefinite" keyTimes="0;0.25;0.5;0.75;1" calcMode="linear"/>
            </stop>
        </linearGradient>

        <filter id="shadow3D" x="-60%" y="-60%" width="220%" height="220%">
            <feGaussianBlur in="SourceAlpha" stdDeviation="12" result="blur"/>
            <feOffset in="blur" dx="0" dy="0" result="offsetBlur"/>
            <feMerge>
                <feMergeNode in="offsetBlur"/>
                <feMergeNode in="SourceGraphic"/>
            </feMerge>
        </filter>

        <filter id="glow" x="-200%" y="-200%" width="400%" height="400%">
            <feGaussianBlur in="SourceGraphic" stdDeviation="6" result="blur1"/>
            <feGaussianBlur in="SourceGraphic" stdDeviation="12" result="blur2"/>
            <feGaussianBlur in="SourceGraphic" stdDeviation="18" result="blur3"/>
            <feMerge>
                <feMergeNode in="blur1"/>
                <feMergeNode in="blur2"/>
                <feMergeNode in="blur3"/>
                <feMergeNode in="SourceGraphic"/>
            </feMerge>
        </filter>

        <mask id="lightMask" maskUnits="userSpaceOnUse">
            <g filter="url(#maskFilter)">
                <svg width="154" height="154" x="43" y="43" viewBox="0 0 154 154" fill="none" xmlns="http://www.w3.org/2000/svg">
                    <g clip-path="url(#clip0_7_114)">
                        <g clip-path="url(#clip1_7_114)">
                            <path d="M117.906 0H36.0938C16.1597 0 0 16.1597 0 36.0938V117.906C0 137.84 16.1597 154 36.0938 154H117.906C137.84 154 154 137.84 154 117.906V36.0938C154 16.1597 137.84 0 117.906 0Z" fill="black"/>
                            <path d="M118.395 67.6337H88.4026C87.6795 67.6337 86.9865 67.3467 86.4752 66.8354C85.9639 66.3247 85.6763 65.6317 85.6763 64.9092V33.6669C85.6763 31.3533 83.7995 29.4766 81.4859 29.4766H70.7792C68.4638 29.4766 66.5882 31.3533 66.5882 33.6669V64.7203C66.5882 66.3313 65.2852 67.6409 63.673 67.6475L53.8443 67.6944C52.2187 67.7035 50.898 66.3848 50.9011 64.7618L50.9621 33.6739C50.9674 31.3568 49.0897 29.4766 46.7715 29.4766H36.0738C33.7584 29.4766 31.8828 31.3533 31.8828 33.6669V121.15C31.8828 123.205 33.5486 124.87 35.6032 124.87H118.395C120.451 124.87 122.117 123.205 122.117 121.15V71.3543C122.117 69.2988 120.451 67.6337 118.395 67.6337ZM104.33 100.48C104.33 103.173 102.146 105.358 99.4509 105.358H90.9899C88.2949 105.358 86.1101 103.173 86.1101 100.48V92.0234C86.1101 89.3296 88.2949 87.146 90.9899 87.146H99.4509C102.146 87.146 104.33 89.3296 104.33 92.0234V100.48Z" fill="white"/>
                        </g>
                    </g>
                    <defs>
                        <clipPath id="clip0_7_114">
                            <rect width="154" height="154" fill="white"/>
                        </clipPath>
                        <clipPath id="clip1_7_114">
                            <rect width="154" height="154" fill="white"/>
                        </clipPath>
                    </defs>
                </svg>

            </g>
        </mask>

        <filter id="maskFilter">
            <feColorMatrix in="SourceGraphic" type="saturate" values="0" result="gray"/>
        </filter>
    </defs>

    <rect x="38" y="38" width="164" height="164" rx="40" ry="40" fill="rgba(0,0,0,1)" filter="url(#shadow3D)"/>

    <rect x="40" y="40" width="160" height="160" rx="40" ry="40" fill="#0D1117"/>

    <rect x="40" y="40" width="160" height="160" rx="40" ry="40" fill="transparent" stroke="url(#gradient)" stroke-width="6" filter="url(#glow)"/>

    <rect x="40" y="40" width="160" height="160" rx="40" ry="40" fill="url(#gradient)" mask="url(#lightMask)"/>
</svg>