<svg width="158" height="158" viewBox="0 0 158 158" fill="none" xmlns="http://www.w3.org/2000/svg">
    <g filter="url(#filter0_d_4_167)">
        <rect x="15" y="15" width="128" height="128" fill="#0D1117"/>
        <rect x="16" y="16" width="126" height="126" stroke="#C9D1D9" stroke-width="2"/>
        <path d="M79 72.4342C83.6418 72.4342 87.4047 68.6712 87.4047 64.0294C87.4047 59.3876 83.6418 55.6247 79 55.6247C74.3582 55.6247 70.5953 59.3876 70.5953 64.0294C70.5953 68.6712 74.3582 72.4342 79 72.4342Z" fill="#7F5AF0"/>
        <path d="M79 94.9371C85.5972 101.354 92.1041 105.149 97.3458 105.149C99.0629 105.149 100.69 104.788 102.045 103.974C106.745 101.263 108.462 94.4853 106.835 84.8153C106.564 83.0982 106.202 81.3811 105.75 79.5737C107.558 79.0314 109.185 78.4892 110.811 77.947C119.939 74.4224 125 69.5422 125 64.2102C125 58.7878 119.939 53.9077 110.811 50.4735C109.185 49.8409 107.558 49.2986 105.75 48.8468C106.202 47.0393 106.564 45.3222 106.835 43.6051C108.371 33.7544 106.654 26.8861 101.955 24.1749C100.599 23.3615 98.9725 23 97.2554 23C92.1041 23 85.5069 26.7957 78.9096 33.2122C72.4028 26.7957 65.8959 23 60.6542 23C58.9371 23 57.3104 23.3615 55.9548 24.1749C51.2554 26.8861 49.5383 33.664 51.165 43.334C51.4361 45.0511 51.7976 46.7682 52.2495 48.5756C50.442 49.1179 48.8153 49.6601 47.1886 50.2024C38.0609 53.7269 33 58.6071 33 63.9391C33 69.3615 38.0609 74.2416 47.1886 77.6758C48.8153 78.3084 50.442 78.8507 52.2495 79.3026C51.7976 81.11 51.4361 82.8271 51.165 84.5442C49.6287 94.2141 51.3458 101.083 55.9548 103.703C57.3104 104.517 58.9371 104.878 60.6542 104.878C65.8959 105.059 72.4028 101.263 79 94.9371ZM73.9391 82.7367C75.5658 82.8271 77.2829 82.8271 79 82.8271C80.7171 82.8271 82.4342 82.8271 84.0609 82.7367C82.4342 84.9057 80.7171 86.8939 79 88.7917C77.2829 86.8939 75.5658 84.9057 73.9391 82.7367ZM62.7328 73.4283C63.6365 74.9646 64.4499 76.4106 65.444 77.8566C62.6424 77.4951 60.0216 77.0432 57.4912 76.501C58.3045 74.0609 59.2082 71.5305 60.2927 69C61.0157 70.446 61.8291 71.9823 62.7328 73.4283ZM57.4912 51.6483C60.0216 51.1061 62.6424 50.6542 65.444 50.2927C64.5403 51.7387 63.6365 53.1847 62.7328 54.721C61.8291 56.2574 61.0157 57.7033 60.2927 59.2397C59.1179 56.6189 58.2141 54.0884 57.4912 51.6483ZM62.4617 64.0295C63.6365 61.5894 64.9018 59.1493 66.3477 56.7092C67.7033 54.3595 69.2397 52.0098 70.776 49.6601C73.4872 49.4794 76.1984 49.389 79 49.389C81.8919 49.389 84.6031 49.4794 87.224 49.6601C88.8507 52.0098 90.2967 54.3595 91.6523 56.7092C93.0982 59.1493 94.3635 61.5894 95.5383 64.0295C94.3635 66.4695 93.0982 68.9096 91.6523 71.3497C90.2967 73.6994 88.7603 76.0491 87.224 78.3988C84.5128 78.5796 81.8016 78.6699 79 78.6699C76.1081 78.6699 73.3969 78.5796 70.776 78.3988C69.1493 76.0491 67.7033 73.6994 66.3477 71.3497C64.9018 68.9096 63.6365 66.4695 62.4617 64.0295ZM97.7976 59.1493L95.3576 54.6306C94.4538 53.0943 93.6405 51.6483 92.6464 50.2024C95.4479 50.5639 98.0688 51.0157 100.599 51.558C99.7859 54.0884 98.8821 56.6189 97.7976 59.1493ZM97.7976 68.9096C98.8821 71.4401 99.7859 73.9705 100.599 76.4106C98.0688 76.9528 95.4479 77.4047 92.6464 77.7662C93.5501 76.3202 94.4538 74.8743 95.3576 73.3379C96.1709 71.9823 96.9843 70.446 97.7976 68.9096ZM99.8762 100.269C99.1532 100.721 98.2495 100.902 97.2554 100.902C92.8271 100.902 87.3143 97.2868 81.8919 91.8644C84.5128 89.0629 87.0432 85.8998 89.5737 82.3752C93.8212 82.0138 97.888 81.3811 101.684 80.4774C102.136 82.1041 102.407 83.7308 102.678 85.3576C103.943 93.0393 102.949 98.5521 99.8762 100.269ZM104.576 52.6424C114.697 55.5344 120.752 59.9627 120.752 64.0295C120.752 67.554 116.595 71.0786 109.275 73.8802C107.829 74.4224 106.202 74.9646 104.576 75.4165C103.401 71.7112 101.955 67.9155 100.147 64.0295C101.955 60.1434 103.491 56.3477 104.576 52.6424ZM97.3458 27.1572C98.3399 27.1572 99.1532 27.3379 99.9666 27.7898C102.949 29.5069 104.033 34.9293 102.768 42.7014C102.497 44.2377 102.136 45.8644 101.774 47.5815C97.9784 46.7682 93.9116 46.1356 89.664 45.6837C87.224 42.1591 84.6031 38.9961 81.9823 36.1945C87.4047 30.8625 92.9175 27.1572 97.3458 27.1572ZM84.0609 45.3222C82.4342 45.2318 80.7171 45.2318 79 45.2318C77.2829 45.2318 75.5658 45.2318 73.9391 45.3222C75.5658 43.1532 77.2829 41.165 79 39.2672C80.7171 41.165 82.4342 43.2436 84.0609 45.3222ZM58.1238 27.7898C58.8468 27.3379 59.7505 27.1572 60.7446 27.1572C65.1729 27.1572 70.6857 30.7721 76.1081 36.1945C73.4872 38.9961 70.9568 42.1591 68.4263 45.6837C64.1788 46.0452 60.112 46.6778 56.3163 47.5815C55.8644 45.9548 55.5933 44.3281 55.3222 42.7014C54.057 35.0196 55.0511 29.5972 58.1238 27.7898ZM53.4244 75.4165C43.3026 72.5246 37.2475 68.0963 37.2475 64.0295C37.2475 60.5049 41.4047 56.9804 48.7249 54.1788C50.1709 53.6365 51.7976 53.0943 53.4244 52.6424C54.5992 56.3477 56.0452 60.1434 57.8526 64.0295C56.0452 67.9155 54.5088 71.8016 53.4244 75.4165ZM55.3222 85.3576C55.5933 83.8212 55.9548 82.1945 56.3163 80.4774C60.112 81.2908 64.1788 81.9234 68.4263 82.3752C70.8664 85.8998 73.4872 89.0629 76.1081 91.8644C70.6857 97.1965 65.1729 100.902 60.7446 100.902C59.7505 100.902 58.9371 100.721 58.1238 100.269C55.0511 98.5521 54.057 93.0393 55.3222 85.3576ZM51.5265 122.591C53.5147 120.151 53.6051 117.44 52.5206 114.729C51.4361 112.018 49.1768 110.752 46.3752 110.662C43.0314 110.572 39.5972 110.662 36.2534 110.662H35.6208V134.069H38.332V125.212H42.5796C43.1218 125.212 43.5737 125.393 43.8448 125.845L49.2672 134.25C49.3576 134.43 49.6287 134.701 49.8094 134.701H53.334C51.165 131.358 49.0864 128.194 46.9175 124.941C48.8153 124.67 50.442 124.037 51.5265 122.591ZM38.332 122.411V113.464H39.3261C41.4047 113.464 43.5737 113.373 45.6523 113.554C48.0923 113.644 49.8094 115.542 49.8094 117.982C49.8094 120.422 47.8212 122.32 45.3811 122.411C43.2122 122.501 41.0432 122.411 38.332 122.411ZM73.3065 123.585C71.8605 117.259 66.0766 115.633 61.6483 117.621C58.2141 119.157 56.6778 122.139 56.5874 125.845C56.4971 128.646 57.3104 131.177 59.4794 133.075C61.9194 135.244 64.9018 135.515 67.9745 134.972C69.6915 134.611 71.2279 133.798 72.4027 132.532C71.9509 131.9 71.499 131.267 71.0471 130.725C68.5167 132.894 65.7151 133.617 62.6424 132.171C60.6542 131.177 59.6601 128.737 59.4794 126.929H73.4872V125.754C73.5776 124.941 73.4872 124.218 73.3065 123.585ZM59.6601 125.031C59.389 122.32 62.1002 119.428 65.0825 119.428C68.5167 119.338 70.6857 121.417 70.776 125.031H59.6601ZM87.4047 117.169C86.0491 116.898 84.6031 116.807 83.2475 116.898C81.0786 117.079 79.1807 118.073 77.6444 119.699C78.0963 120.332 78.4578 120.965 79 121.688C79.1807 121.507 79.3615 121.326 79.5422 121.236C80.9882 119.88 82.7053 119.157 84.7839 119.338C86.4106 119.428 87.947 119.971 88.3988 121.597C88.7603 122.862 88.6699 124.218 88.7603 125.574C88.4892 125.574 88.3988 125.483 88.3085 125.393C86.1395 123.585 83.6994 123.224 81.0786 123.857C78.6385 124.489 77.1022 126.387 76.9214 128.827C76.7407 131.629 78.0059 133.707 80.446 134.701C81.9823 135.334 83.6994 135.334 85.3261 134.972C86.5914 134.701 87.1336 133.978 88.9411 132.984V134.159H91.4715C91.4715 130.544 91.5619 126.116 91.4715 121.959C91.4715 119.338 89.9352 117.711 87.4047 117.169ZM88.6699 128.556C88.5796 128.827 88.6699 129.098 88.6699 129.369C88.6699 131.267 88.2181 131.9 86.4106 132.623C85.1454 133.075 83.7898 133.255 82.4342 132.804C80.8978 132.352 79.8134 130.996 79.8134 129.46C79.723 127.923 80.7171 126.387 82.2534 125.935C84.332 125.212 86.2299 125.664 87.947 126.929C88.4892 127.381 88.8507 127.833 88.6699 128.556ZM102.768 119.609C105.118 118.886 107.287 119.338 108.914 121.326L109.185 121.507C109.817 120.965 110.36 120.422 111.083 119.79C110.811 119.519 110.721 119.338 110.54 119.067C107.919 116.265 102.768 115.904 99.6051 118.163C95.1768 121.417 95.2672 127.743 97.4361 131.086C99.5147 134.25 102.497 135.334 106.022 134.882C108.1 134.611 109.817 133.617 111.173 131.9C110.54 131.358 109.908 130.815 109.275 130.183C109.094 130.363 109.004 130.454 108.914 130.635C106.473 133.346 102.407 133.075 100.238 130.183C98.9725 128.466 98.7014 126.477 99.0629 124.489C99.2436 122.23 100.418 120.422 102.768 119.609ZM121.566 131.9C121.385 131.99 121.295 132.081 121.295 132.081C120.572 132.623 119.849 132.713 119.035 132.442C118.222 132.081 118.132 131.358 118.041 130.635V120.332C118.041 120.151 118.041 120.513 118.132 119.609H121.566V116.898H117.951V112.379H115.24V117.259H112.89C112.709 117.259 112.438 117.44 112.438 117.621C112.348 118.253 112.438 118.705 112.438 119.609H115.33V131.177C115.33 132.623 115.692 133.888 116.957 134.611C118.312 135.424 120.933 135.244 122.108 134.25C122.289 134.159 122.379 133.798 122.379 133.707C122.108 133.165 121.837 132.532 121.566 131.9Z" fill="#7F5AF0"/>
    </g>
    <defs>
        <filter id="filter0_d_4_167" x="0" y="0" width="158" height="158" filterUnits="userSpaceOnUse" color-interpolation-filters="sRGB">
            <feFlood flood-opacity="0" result="BackgroundImageFix"/>
            <feColorMatrix in="SourceAlpha" type="matrix" values="0 0 0 0 0 0 0 0 0 0 0 0 0 0 0 0 0 0 127 0" result="hardAlpha"/>
            <feMorphology radius="5" operator="dilate" in="SourceAlpha" result="effect1_dropShadow_4_167"/>
            <feOffset/>
            <feGaussianBlur stdDeviation="5"/>
            <feComposite in2="hardAlpha" operator="out"/>
            <feColorMatrix type="matrix" values="0 0 0 0 0.498039 0 0 0 0 0.352941 0 0 0 0 0.941176 0 0 0 0.25 0"/>
            <feBlend mode="normal" in2="BackgroundImageFix" result="effect1_dropShadow_4_167"/>
            <feBlend mode="normal" in="SourceGraphic" in2="effect1_dropShadow_4_167" result="shape"/>
        </filter>
    </defs>
</svg>
