<svg xmlns="http://www.w3.org/2000/svg" width="320" height="320" viewBox="0 0 240 240" overflow="visible">
    <defs>
        <linearGradient id="gradient" x1="0%" y1="0%" x2="100%" y2="100%">
            <stop offset="0%" stop-color="#009BFF">
                <animate attributeName="stop-color" values="#009BFF;#FF3A76;#FFB200;#6A5CFF;#009BFF" dur="6s" repeatCount="indefinite" keyTimes="0;0.25;0.5;0.75;1" calcMode="linear"/>
            </stop>
            <stop offset="25%" stop-color="#FF3A76">
                <animate attributeName="stop-color" values="#FF3A76;#FFB200;#6A5CFF;#009BFF;#FF3A76" dur="6s" repeatCount="indefinite" keyTimes="0;0.25;0.5;0.75;1" calcMode="linear"/>
            </stop>
            <stop offset="50%" stop-color="#FFB200">
                <animate attributeName="stop-color" values="#FFB200;#6A5CFF;#009BFF;#FF3A76;#FFB200" dur="6s" repeatCount="indefinite" keyTimes="0;0.25;0.5;0.75;1" calcMode="linear"/>
            </stop>
            <stop offset="75%" stop-color="#6A5CFF">
                <animate attributeName="stop-color" values="#6A5CFF;#009BFF;#FF3A76;#FFB200;#6A5CFF" dur="6s" repeatCount="indefinite" keyTimes="0;0.25;0.5;0.75;1" calcMode="linear"/>
            </stop>
            <stop offset="100%" stop-color="#009BFF">
                <animate attributeName="stop-color" values="#009BFF;#FF3A76;#FFB200;#6A5CFF;#009BFF" dur="6s" repeatCount="indefinite" keyTimes="0;0.25;0.5;0.75;1" calcMode="linear"/>
            </stop>
        </linearGradient>

        <filter id="shadow3D" x="-60%" y="-60%" width="220%" height="220%">
            <feGaussianBlur in="SourceAlpha" stdDeviation="12" result="blur"/>
            <feOffset in="blur" dx="0" dy="0" result="offsetBlur"/>
            <feMerge>
                <feMergeNode in="offsetBlur"/>
                <feMergeNode in="SourceGraphic"/>
            </feMerge>
        </filter>

        <filter id="glow" x="-200%" y="-200%" width="400%" height="400%">
            <feGaussianBlur in="SourceGraphic" stdDeviation="6" result="blur1"/>
            <feGaussianBlur in="SourceGraphic" stdDeviation="12" result="blur2"/>
            <feGaussianBlur in="SourceGraphic" stdDeviation="18" result="blur3"/>
            <feMerge>
                <feMergeNode in="blur1"/>
                <feMergeNode in="blur2"/>
                <feMergeNode in="blur3"/>
                <feMergeNode in="SourceGraphic"/>
            </feMerge>
        </filter>

        <mask id="lightMask" maskUnits="userSpaceOnUse">
            <g filter="url(#maskFilter)">
                <svg width="154" height="154" x="43" y="43" viewBox="0 0 154 154" fill="none" xmlns="http://www.w3.org/2000/svg">
                    <g clip-path="url(#clip0_7_120)">
                        <g clip-path="url(#clip1_7_120)">
                            <path d="M117.906 0H36.0938C16.1597 0 0 16.1597 0 36.0938V117.906C0 137.84 16.1597 154 36.0938 154H117.906C137.84 154 154 137.84 154 117.906V36.0938C154 16.1597 137.84 0 117.906 0Z" fill="black"/>
                            <mask id="mask0_7_120" style="mask-type:luminance" maskUnits="userSpaceOnUse" x="16" y="16" width="122" height="122">
                                <path d="M137.156 16.8438H16.8438V137.156H137.156V16.8438Z" fill="white"/>
                            </mask>
                            <g mask="url(#mask0_7_120)">
                                <path d="M132.441 104.953C126.02 108.302 92.7633 121.976 85.683 125.666C78.602 129.356 74.6695 129.322 69.075 126.648C63.4805 123.975 28.0897 109.68 21.7106 106.631C18.5211 105.106 16.8498 103.824 16.8498 102.612V90.4509C16.8498 90.4509 62.9288 80.4199 70.3696 77.7501C77.8109 75.0804 80.385 74.9848 86.7194 77.3038C93.0539 79.6222 130.904 86.4511 137.158 88.7443V100.737C137.158 101.94 135.717 103.288 132.447 104.96L132.441 104.953Z" fill="#989898"/>
                                <path d="M132.441 92.7886C126.02 96.1375 92.7633 109.811 85.683 113.501C78.602 117.192 74.6695 117.156 69.075 114.483C63.4805 111.811 28.0897 97.5151 21.7107 94.4664C15.3317 91.417 15.2041 89.3218 21.4651 86.8686L70.3666 67.9357C77.8049 65.2695 80.382 65.1703 86.7158 67.4893C93.0503 69.8083 126.107 82.9651 132.358 85.2931C138.61 87.6218 138.855 89.4716 132.435 92.8205L132.441 92.7886Z" fill="#CECECE"/>
                                <path d="M132.441 85.1211C126.02 88.47 92.7633 102.144 85.683 105.833C78.602 109.524 74.6695 109.489 69.075 106.816C63.4805 104.143 28.0897 89.8476 21.7106 86.7989C18.5211 85.2739 16.8498 83.992 16.8498 82.7798V70.618C16.8498 70.618 62.9288 60.587 70.3696 57.9177C77.8109 55.248 80.385 55.1523 86.7194 57.4711C93.0539 59.7899 130.904 66.6188 137.158 68.912V80.9047C137.158 82.1067 135.717 83.456 132.447 85.1271L132.441 85.1211Z" fill="#989898"/>
                                <path d="M132.441 72.9593C126.02 76.3082 92.7633 89.9817 85.683 93.6723C78.602 97.3623 74.6695 97.3274 69.075 94.6547C63.4805 91.9813 28.0897 77.6864 21.7107 74.6371C15.3317 71.5877 15.2041 69.4925 21.4651 67.0393L70.3666 48.1098C77.8049 45.4402 80.382 45.3446 86.7158 47.6634C93.0503 49.9821 126.107 63.1418 132.364 65.4289C138.622 67.7161 138.862 69.6074 132.441 72.9563V72.9593Z" fill="#CECECE"/>
                                <path d="M132.441 64.5549C126.02 67.9038 92.7633 81.5773 85.683 85.2709C78.602 88.9645 74.6695 88.926 69.075 86.2532C63.4805 83.5805 28.0897 69.285 21.7106 66.2356C18.5211 64.7113 16.8498 63.4294 16.8498 62.2172V50.0491C16.8498 50.0491 62.9288 40.0181 70.3696 37.3485C77.8109 34.6789 80.385 34.5832 86.7194 36.9019C93.0539 39.2207 130.904 46.0495 137.158 48.3427V60.3355C137.158 61.538 135.717 62.8867 132.447 64.5585L132.441 64.5549Z" fill="#989898"/>
                                <path d="M132.441 52.3902C126.02 55.7392 92.7633 69.4125 85.683 73.1031C78.602 76.7931 74.6695 76.7582 69.075 74.0854C63.4805 71.4127 28.0897 57.117 21.7107 54.0679C15.3317 51.0187 15.2041 48.9232 21.4651 46.4705L70.3666 27.5407C77.8049 24.8711 80.382 24.7754 86.7158 27.0942C93.0503 29.413 126.107 42.5729 132.364 44.8598C138.622 47.1466 138.862 49.038 132.441 52.387V52.3902Z" fill="#CECECE"/>
                                <path d="M80.0054 47.3763L76.2354 41.1089L64.1981 40.0245L73.1801 36.7839L70.4845 31.8083L78.8925 35.0935L86.8211 32.4972L84.6777 37.6387L92.7603 40.6687L82.3371 41.7532L80.0054 47.3763ZM59.9242 59.8537L87.8004 55.5733L79.3804 67.923L59.9242 59.8537Z" fill="white"/>
                                <path d="M52.4097 55.3532C60.6393 55.3532 67.3112 52.7671 67.3112 49.577C67.3112 46.3869 60.6393 43.8008 52.4097 43.8008C44.1799 43.8008 37.5083 46.3869 37.5083 49.577C37.5083 52.7671 44.1799 55.3532 52.4097 55.3532Z" fill="white"/>
                                <path d="M121.584 48.735L105.094 55.248L105.082 42.2125L121.584 48.735Z" fill="#838383"/>
                                <path d="M105.097 55.248L103.311 55.9496L86.8344 49.4367L105.088 42.2156L105.097 55.248Z" fill="#A7A7A7"/>
                            </g>
                        </g>
                    </g>
                    <defs>
                        <clipPath id="clip0_7_120">
                            <rect width="154" height="154" fill="white"/>
                        </clipPath>
                        <clipPath id="clip1_7_120">
                            <rect width="154" height="154" fill="white"/>
                        </clipPath>
                    </defs>
                </svg>

            </g>
        </mask>

        <filter id="maskFilter">
            <feColorMatrix in="SourceGraphic" type="saturate" values="0" result="gray"/>
        </filter>
    </defs>

    <rect x="38" y="38" width="164" height="164" rx="40" ry="40" fill="rgba(0,0,0,1)" filter="url(#shadow3D)"/>

    <rect x="40" y="40" width="160" height="160" rx="40" ry="40" fill="#0D1117"/>

    <rect x="40" y="40" width="160" height="160" rx="40" ry="40" fill="transparent" stroke="url(#gradient)" stroke-width="6" filter="url(#glow)"/>

    <rect x="40" y="40" width="160" height="160" rx="40" ry="40" fill="url(#gradient)" mask="url(#lightMask)"/>
</svg>