<svg width="158" height="158" viewBox="0 0 158 158" fill="none" xmlns="http://www.w3.org/2000/svg">
    <g filter="url(#filter0_d_4_113)">
        <rect x="15" y="15" width="128" height="128" fill="#0D1117"/>
        <rect x="16" y="16" width="126" height="126" stroke="#C9D1D9" stroke-width="2"/>
        <path d="M39.7335 109.801C39.7335 111.461 38.3492 113.028 36.5036 113.028C35.1193 113.028 33.9196 113.397 32.8123 114.227C31.6126 114.964 30.782 115.979 30.0438 117.177C28.5672 119.113 27.829 121.418 27.5521 122.248V133.773C27.5521 135.525 26.0756 137 24.2299 137C22.4765 137 21 135.525 21 133.773V109.801C21 108.049 22.4765 106.666 24.2299 106.666C26.0756 106.666 27.5521 108.049 27.5521 109.801V110.262C27.9212 109.801 28.3827 109.34 28.8441 109.064C30.8743 107.773 33.4582 106.666 36.5036 106.666C38.3492 106.666 39.7335 108.049 39.7335 109.801ZM37.9801 121.787C38.0724 113.489 44.4399 106.574 52.8377 106.574C60.7741 106.574 66.957 112.475 67.5107 120.681V120.957C67.5107 121.05 67.5107 121.418 67.4185 121.511C67.2339 122.986 65.9419 123.908 64.2808 123.908H44.9014C45.1782 125.291 45.9165 126.858 46.9316 127.872C48.2235 129.347 50.6229 130.454 52.7454 130.638C54.9602 130.823 57.5442 130.269 59.0207 129.163C60.3126 127.872 62.8043 127.964 63.5426 128.979C64.3731 129.808 64.9268 131.652 63.5426 132.943C60.5895 135.709 56.9905 136.908 52.6531 136.908C44.4399 136.908 37.9801 129.993 37.9801 121.787ZM44.5322 118.837H61.6969C61.0509 116.44 58.0056 112.844 52.7454 112.383C47.5776 112.567 45.0859 116.347 44.5322 118.837ZM98.3333 133.681C98.3333 135.433 96.8568 137 95.0111 137C93.35 137 92.0581 135.801 91.7812 134.418C89.4741 135.986 86.5211 137 83.4757 137C75.2625 137 68.7104 130.085 68.7104 121.879C68.7104 113.581 75.2625 106.666 83.4757 106.666C86.4288 106.666 89.3819 107.681 91.5967 109.248V97.7232C91.5967 95.9714 93.0732 94.404 94.9189 94.404C96.7645 94.404 98.2411 95.8792 98.2411 97.7232V121.879L98.3333 133.681ZM83.568 113.213C81.3532 113.213 79.4153 114.135 77.8465 115.702C76.3699 117.177 75.4471 119.39 75.4471 121.787C75.4471 124.092 76.3699 126.305 77.8465 127.78C79.323 129.347 81.3532 130.269 83.568 130.269C85.7828 130.269 87.7208 129.347 89.2896 127.78C90.7661 126.305 91.6889 124.092 91.6889 121.787C91.6889 119.39 90.7661 117.177 89.2896 115.702C87.813 114.135 85.8751 113.213 83.568 113.213ZM109.961 99.014C109.961 100.858 108.577 102.333 106.639 102.333C104.793 102.333 103.317 100.858 103.317 99.014V97.7232C103.317 95.8792 104.793 94.404 106.639 94.404C108.484 94.404 109.961 95.8792 109.961 97.7232V99.014ZM109.961 109.986V133.681C109.961 135.525 108.577 137 106.639 137C104.793 137 103.317 135.525 103.317 133.681V109.986C103.317 108.049 104.793 106.666 106.639 106.666C108.577 106.666 109.961 108.049 109.961 109.986ZM114.114 128.241C115.221 126.766 117.344 126.582 118.636 127.78C120.204 129.071 122.973 130.546 125.28 130.454C126.941 130.454 128.418 129.901 129.433 129.255C130.263 128.518 130.54 127.964 130.54 127.411C130.54 127.135 130.448 126.95 130.356 126.766C130.263 126.582 130.079 126.305 129.525 126.028C128.695 125.383 126.849 124.738 124.634 124.369H124.542C122.696 124 120.85 123.539 119.282 122.801C117.621 121.972 116.144 120.957 115.129 119.298C114.483 118.191 114.114 116.901 114.114 115.518C114.114 112.752 115.683 110.354 117.713 108.879C119.835 107.404 122.419 106.666 125.188 106.666C129.34 106.666 132.386 108.695 134.324 109.986C135.8 111 136.169 112.936 135.339 114.503C134.324 115.979 132.386 116.347 130.817 115.333C128.879 114.042 127.126 113.12 125.188 113.12C123.711 113.12 122.327 113.581 121.496 114.227C120.666 114.78 120.481 115.333 120.481 115.61C120.481 115.886 120.481 115.886 120.574 116.071C120.666 116.163 120.85 116.44 121.22 116.716C122.05 117.269 123.619 117.823 125.649 118.191L125.741 118.284H125.834C127.864 118.652 129.71 119.206 131.463 120.035C133.124 120.773 134.785 121.879 135.8 123.631C136.539 124.83 137 126.213 137 127.596C137 130.546 135.339 133.035 133.216 134.603C131.002 136.078 128.325 137 125.28 137C120.574 136.908 116.882 134.787 114.483 132.851C113.191 131.652 113.006 129.624 114.114 128.241Z" fill="#7F5AF0"/>
        <path d="M118.636 77.6238C114.021 80.021 90.3047 89.7941 85.2291 92.3756C80.1535 95.0494 77.385 94.9572 73.4169 93.1132C69.3564 91.177 44.1631 81.0351 39.5489 78.8224C37.2418 77.716 36.0422 76.794 36.0422 75.9642V67.2975C36.0422 67.2975 68.895 60.1059 74.2474 58.262C79.5998 56.3258 81.4455 56.3258 85.8751 57.9854C90.397 59.6449 117.436 64.5315 121.866 66.0989V74.6734C121.958 75.5032 120.943 76.4252 118.636 77.6238Z" fill="#603FC7"/>
        <path d="M118.636 68.9571C114.021 71.3542 90.3047 81.1273 85.2291 83.7089C80.1535 86.3827 77.385 86.2905 73.4169 84.4465C69.3564 82.5103 44.1631 72.3684 39.5489 70.1556C35.027 67.9429 34.9348 66.4677 39.3644 64.7159C43.794 62.9641 68.9873 53.0988 74.2474 51.2548C79.5998 49.3186 81.4455 49.3186 85.8751 50.9782C90.397 52.6378 114.021 62.0421 118.451 63.6095C123.065 65.2691 123.25 66.5599 118.636 68.9571Z" fill="#7F5AF0"/>
        <path d="M118.636 63.5173C114.021 65.9145 90.3047 75.6876 85.2291 78.2692C80.1535 80.9429 77.385 80.8507 73.4169 79.0068C69.3564 77.0706 44.1631 66.8365 39.5489 64.7159C37.2418 63.6095 36.0422 62.6875 36.0422 61.8577V53.191C36.0422 53.191 68.895 45.9995 74.2474 44.1555C79.5998 42.2193 81.4455 42.2193 85.8751 43.8789C90.397 45.5385 117.436 50.425 121.866 51.9924V60.5669C121.958 61.3967 120.943 62.3187 118.636 63.5173Z" fill="#603FC7"/>
        <path d="M118.636 54.8506C114.021 57.2478 90.3047 67.0209 85.2291 69.6025C80.1535 72.2762 77.385 72.184 73.4169 70.34C69.4487 68.4039 44.1631 58.262 39.6412 56.0492C35.1193 53.8364 35.027 52.3612 39.4566 50.6094C43.8862 48.8577 69.0796 38.9923 74.3397 37.1484C79.6921 35.2122 81.5378 35.2122 85.9674 36.8718C90.4893 38.5314 114.114 47.9357 118.543 49.503C123.065 51.0704 123.25 52.4534 118.636 54.8506Z" fill="#7F5AF0"/>
        <path d="M118.636 48.8576C114.021 51.2548 90.3047 61.0279 85.2291 63.6095C80.1535 66.2833 77.385 66.1911 73.4169 64.3471C69.4487 62.4109 44.1631 52.269 39.6412 50.0562C37.3341 48.9498 36.1344 48.0279 36.1344 47.1981V38.5313C36.1344 38.5313 68.9873 31.3398 74.3397 29.4958C79.6921 27.5597 81.5378 27.5597 85.9674 29.2192C90.4893 30.8788 117.528 35.7654 121.958 37.3328V45.9073C121.958 46.6449 120.943 47.6591 118.636 48.8576Z" fill="#603FC7"/>
        <path d="M118.636 40.1909C114.021 42.5881 90.3047 52.3612 85.2291 54.9428C80.1535 57.6166 77.385 57.5244 73.4169 55.6804C69.4487 53.7442 44.1631 43.6023 39.6412 41.3895C35.1193 39.1767 35.027 37.7016 39.4566 35.9498C43.8862 34.198 69.0796 24.3327 74.3397 22.4887C79.6921 20.5525 81.5378 20.5525 85.9674 22.2121C90.4893 23.8717 114.114 33.276 118.543 34.8434C123.065 36.4108 123.25 37.7938 118.636 40.1909Z" fill="#7F5AF0"/>
        <path d="M90.3047 31.8008L82.8298 32.5384L81.1687 36.5952L78.4924 32.0774L69.9101 31.3398L76.2776 29.0348L74.432 25.5313L80.4304 27.8363L86.0597 25.9923L84.4909 29.6802L90.3047 31.8008ZM80.7072 51.2548L66.8648 45.4463L86.7979 42.4037L80.7072 51.2548Z" fill="#C9D1D9"/>
        <path d="M61.5123 42.3115C67.3735 42.3115 72.1249 40.454 72.1249 38.1626C72.1249 35.8711 67.3735 34.0136 61.5123 34.0136C55.6512 34.0136 50.8998 35.8711 50.8998 38.1626C50.8998 40.454 55.6512 42.3115 61.5123 42.3115Z" fill="#C9D1D9"/>
        <path d="M99.0716 32.9072L110.884 37.5172L99.0716 42.2193V32.9072Z" fill="#563BA8"/>
        <path d="M86.0597 38.0704L99.0716 32.9072V42.2193L97.8719 42.6803L86.0597 38.0704Z" fill="#744CED"/>
    </g>
    <defs>
        <filter id="filter0_d_4_113" x="0" y="0" width="158" height="158" filterUnits="userSpaceOnUse" color-interpolation-filters="sRGB">
            <feFlood flood-opacity="0" result="BackgroundImageFix"/>
            <feColorMatrix in="SourceAlpha" type="matrix" values="0 0 0 0 0 0 0 0 0 0 0 0 0 0 0 0 0 0 127 0" result="hardAlpha"/>
            <feMorphology radius="5" operator="dilate" in="SourceAlpha" result="effect1_dropShadow_4_113"/>
            <feOffset/>
            <feGaussianBlur stdDeviation="5"/>
            <feComposite in2="hardAlpha" operator="out"/>
            <feColorMatrix type="matrix" values="0 0 0 0 0.498039 0 0 0 0 0.352941 0 0 0 0 0.941176 0 0 0 0.25 0"/>
            <feBlend mode="normal" in2="BackgroundImageFix" result="effect1_dropShadow_4_113"/>
            <feBlend mode="normal" in="SourceGraphic" in2="effect1_dropShadow_4_113" result="shape"/>
        </filter>
    </defs>
</svg>
