<svg xmlns="http://www.w3.org/2000/svg" width="320" height="320" viewBox="0 0 240 240" overflow="visible">
    <defs>
        <linearGradient id="gradient" x1="0%" y1="0%" x2="100%" y2="100%">
            <stop offset="0%" stop-color="#009BFF">
                <animate attributeName="stop-color" values="#009BFF;#FF3A76;#FFB200;#6A5CFF;#009BFF" dur="6s" repeatCount="indefinite" keyTimes="0;0.25;0.5;0.75;1" calcMode="linear"/>
            </stop>
            <stop offset="25%" stop-color="#FF3A76">
                <animate attributeName="stop-color" values="#FF3A76;#FFB200;#6A5CFF;#009BFF;#FF3A76" dur="6s" repeatCount="indefinite" keyTimes="0;0.25;0.5;0.75;1" calcMode="linear"/>
            </stop>
            <stop offset="50%" stop-color="#FFB200">
                <animate attributeName="stop-color" values="#FFB200;#6A5CFF;#009BFF;#FF3A76;#FFB200" dur="6s" repeatCount="indefinite" keyTimes="0;0.25;0.5;0.75;1" calcMode="linear"/>
            </stop>
            <stop offset="75%" stop-color="#6A5CFF">
                <animate attributeName="stop-color" values="#6A5CFF;#009BFF;#FF3A76;#FFB200;#6A5CFF" dur="6s" repeatCount="indefinite" keyTimes="0;0.25;0.5;0.75;1" calcMode="linear"/>
            </stop>
            <stop offset="100%" stop-color="#009BFF">
                <animate attributeName="stop-color" values="#009BFF;#FF3A76;#FFB200;#6A5CFF;#009BFF" dur="6s" repeatCount="indefinite" keyTimes="0;0.25;0.5;0.75;1" calcMode="linear"/>
            </stop>
        </linearGradient>

        <filter id="shadow3D" x="-60%" y="-60%" width="220%" height="220%">
            <feGaussianBlur in="SourceAlpha" stdDeviation="12" result="blur"/>
            <feOffset in="blur" dx="0" dy="0" result="offsetBlur"/>
            <feMerge>
                <feMergeNode in="offsetBlur"/>
                <feMergeNode in="SourceGraphic"/>
            </feMerge>
        </filter>

        <filter id="glow" x="-200%" y="-200%" width="400%" height="400%">
            <feGaussianBlur in="SourceGraphic" stdDeviation="6" result="blur1"/>
            <feGaussianBlur in="SourceGraphic" stdDeviation="12" result="blur2"/>
            <feGaussianBlur in="SourceGraphic" stdDeviation="18" result="blur3"/>
            <feMerge>
                <feMergeNode in="blur1"/>
                <feMergeNode in="blur2"/>
                <feMergeNode in="blur3"/>
                <feMergeNode in="SourceGraphic"/>
            </feMerge>
        </filter>

        <mask id="lightMask" maskUnits="userSpaceOnUse">
            <g filter="url(#maskFilter)">
                <svg width="154" height="154" x="43" y="43" viewBox="0 0 154 154" fill="none" xmlns="http://www.w3.org/2000/svg">
                    <g clip-path="url(#clip0_7_360)">
                        <g clip-path="url(#clip1_7_360)">
                            <path d="M34.0552 77.5107L34.0063 83.8175H44.0285H54.0507V112.295V140.773H61.1398H68.2286V112.295V83.8175H78.2506H88.2727V77.6328C88.2727 74.2106 88.1999 71.3507 88.1018 71.2773C88.0285 71.1799 75.8306 71.1306 61.0418 71.1552L34.1285 71.2286L34.0552 77.5107Z" fill="white"/>
                            <path d="M124.263 71.0494C128.174 72.0275 131.156 73.763 133.894 76.5982C135.312 78.1141 137.414 80.8765 137.585 81.5364C137.634 81.7319 130.936 86.2298 126.879 88.7473C126.732 88.8454 126.145 88.2095 125.485 87.232C123.505 84.3475 121.427 83.1005 118.249 82.8809C113.58 82.5627 110.574 85.0074 110.598 89.0896C110.598 90.2873 110.769 90.996 111.258 91.9741C112.285 94.1006 114.192 95.3717 120.181 97.9627C131.205 102.705 135.922 105.834 138.856 110.283C142.132 115.245 142.865 123.165 140.64 129.056C138.196 135.46 132.134 139.812 123.602 141.254C120.963 141.719 114.705 141.645 111.87 141.132C105.685 140.032 99.8185 136.976 96.2007 132.968C94.7828 131.403 92.0204 127.321 92.1919 127.027C92.2646 126.93 92.9005 126.539 93.6091 126.123C94.2937 125.732 96.8852 124.241 99.3294 122.823L103.754 120.256L104.683 121.625C105.978 123.605 108.814 126.319 110.525 127.223C115.438 129.814 122.185 129.447 125.509 126.465C126.927 125.17 127.514 123.825 127.514 121.845C127.514 120.06 127.294 119.278 126.365 117.934C125.167 116.223 122.723 114.781 115.78 111.774C107.836 108.352 104.414 106.225 101.285 102.852C99.4762 100.896 97.7647 97.7671 97.0561 95.1516C96.4696 92.9763 96.3228 87.525 96.7872 85.325C98.4246 77.6497 104.218 72.2964 112.578 70.7071C115.292 70.1939 121.598 70.3894 124.263 71.0494Z" fill="white"/>
                        </g>
                    </g>
                    <defs>
                        <clipPath id="clip0_7_360">
                            <rect width="154" height="154" fill="white"/>
                        </clipPath>
                        <clipPath id="clip1_7_360">
                            <rect width="154" height="154" fill="white"/>
                        </clipPath>
                    </defs>
                </svg>
            </g>
        </mask>

        <filter id="maskFilter">
            <feColorMatrix in="SourceGraphic" type="saturate" values="0" result="gray"/>
            <feColorMatrix in="gray" type="luminanceToAlpha" result="lum"/>
            <feComponentTransfer in="lum" result="maskLight">
                <feFuncA type="discrete" tableValues="0 1"/>
            </feComponentTransfer>
            <feFlood flood-color="white" result="fill"/>
            <feComposite in="fill" in2="maskLight" operator="in"/>
        </filter>
    </defs>

    <rect x="38" y="38" width="164" height="164" rx="40" ry="40" fill="rgba(0,0,0,1)" filter="url(#shadow3D)"/>

    <rect x="40" y="40" width="160" height="160" rx="40" ry="40" fill="#0D1117"/>

    <rect x="40" y="40" width="160" height="160" rx="40" ry="40" fill="url(#gradient)" mask="url(#lightMask)"/>

    <rect x="40" y="40" width="160" height="160" rx="40" ry="40" fill="transparent" stroke="url(#gradient)" stroke-width="6" filter="url(#glow)"/>
</svg>